%TF.GenerationSoftware,KiCad,Pcbnew,7.0.1*%
%TF.CreationDate,2023-05-16T08:56:38-03:00*%
%TF.ProjectId,fulbo,66756c62-6f2e-46b6-9963-61645f706362,rev?*%
%TF.SameCoordinates,Original*%
%TF.FileFunction,Legend,Bot*%
%TF.FilePolarity,Positive*%
%FSLAX46Y46*%
G04 Gerber Fmt 4.6, Leading zero omitted, Abs format (unit mm)*
G04 Created by KiCad (PCBNEW 7.0.1) date 2023-05-16 08:56:38*
%MOMM*%
%LPD*%
G01*
G04 APERTURE LIST*
%ADD10C,0.300000*%
G04 APERTURE END LIST*
D10*
%TO.C,G\u002A\u002A\u002A*%
X69879177Y-32173602D02*
X70024320Y-32101031D01*
X70024320Y-32101031D02*
X70242034Y-32101031D01*
X70242034Y-32101031D02*
X70459748Y-32173602D01*
X70459748Y-32173602D02*
X70604891Y-32318745D01*
X70604891Y-32318745D02*
X70677462Y-32463888D01*
X70677462Y-32463888D02*
X70750034Y-32754174D01*
X70750034Y-32754174D02*
X70750034Y-32971888D01*
X70750034Y-32971888D02*
X70677462Y-33262174D01*
X70677462Y-33262174D02*
X70604891Y-33407317D01*
X70604891Y-33407317D02*
X70459748Y-33552460D01*
X70459748Y-33552460D02*
X70242034Y-33625031D01*
X70242034Y-33625031D02*
X70096891Y-33625031D01*
X70096891Y-33625031D02*
X69879177Y-33552460D01*
X69879177Y-33552460D02*
X69806605Y-33479888D01*
X69806605Y-33479888D02*
X69806605Y-32971888D01*
X69806605Y-32971888D02*
X70096891Y-32971888D01*
X68935748Y-32101031D02*
X68935748Y-32463888D01*
X69298605Y-32318745D02*
X68935748Y-32463888D01*
X68935748Y-32463888D02*
X68572891Y-32318745D01*
X69153462Y-32754174D02*
X68935748Y-32463888D01*
X68935748Y-32463888D02*
X68718034Y-32754174D01*
X67774605Y-32101031D02*
X67774605Y-32463888D01*
X68137462Y-32318745D02*
X67774605Y-32463888D01*
X67774605Y-32463888D02*
X67411748Y-32318745D01*
X67992319Y-32754174D02*
X67774605Y-32463888D01*
X67774605Y-32463888D02*
X67556891Y-32754174D01*
X66613462Y-32101031D02*
X66613462Y-32463888D01*
X66976319Y-32318745D02*
X66613462Y-32463888D01*
X66613462Y-32463888D02*
X66250605Y-32318745D01*
X66831176Y-32754174D02*
X66613462Y-32463888D01*
X66613462Y-32463888D02*
X66395748Y-32754174D01*
%TD*%
M02*
