%TF.GenerationSoftware,KiCad,Pcbnew,7.0.1*%
%TF.CreationDate,2023-05-16T08:56:37-03:00*%
%TF.ProjectId,fulbo,66756c62-6f2e-46b6-9963-61645f706362,rev?*%
%TF.SameCoordinates,Original*%
%TF.FileFunction,Copper,L1,Top*%
%TF.FilePolarity,Positive*%
%FSLAX46Y46*%
G04 Gerber Fmt 4.6, Leading zero omitted, Abs format (unit mm)*
G04 Created by KiCad (PCBNEW 7.0.1) date 2023-05-16 08:56:37*
%MOMM*%
%LPD*%
G01*
G04 APERTURE LIST*
%ADD10C,0.400000*%
%TA.AperFunction,NonConductor*%
%ADD11C,0.400000*%
%TD*%
%TA.AperFunction,ComponentPad*%
%ADD12C,1.998980*%
%TD*%
%TA.AperFunction,ComponentPad*%
%ADD13C,1.750000*%
%TD*%
%TA.AperFunction,ComponentPad*%
%ADD14R,1.998980X1.998980*%
%TD*%
%TA.AperFunction,ComponentPad*%
%ADD15R,1.750000X2.200000*%
%TD*%
%TA.AperFunction,ComponentPad*%
%ADD16O,1.750000X2.200000*%
%TD*%
%TA.AperFunction,ComponentPad*%
%ADD17C,2.499360*%
%TD*%
%TA.AperFunction,ComponentPad*%
%ADD18R,3.810000X2.540000*%
%TD*%
%TA.AperFunction,ComponentPad*%
%ADD19C,2.500000*%
%TD*%
%TA.AperFunction,ComponentPad*%
%ADD20C,1.501140*%
%TD*%
%TA.AperFunction,ComponentPad*%
%ADD21R,1.600000X1.600000*%
%TD*%
%TA.AperFunction,ComponentPad*%
%ADD22C,1.600000*%
%TD*%
%TA.AperFunction,ComponentPad*%
%ADD23R,1.800000X1.800000*%
%TD*%
%TA.AperFunction,ComponentPad*%
%ADD24O,1.800000X1.800000*%
%TD*%
%TA.AperFunction,ComponentPad*%
%ADD25R,1.750000X2.199640*%
%TD*%
%TA.AperFunction,ComponentPad*%
%ADD26O,1.750000X2.199640*%
%TD*%
%TA.AperFunction,ViaPad*%
%ADD27C,2.000000*%
%TD*%
%TA.AperFunction,Conductor*%
%ADD28C,1.250000*%
%TD*%
G04 APERTURE END LIST*
D10*
D11*
X78671430Y-41920857D02*
X79271430Y-41920857D01*
X79528573Y-42863714D02*
X78671430Y-42863714D01*
X78671430Y-42863714D02*
X78671430Y-41063714D01*
X78671430Y-41063714D02*
X79528573Y-41063714D01*
X80300001Y-42863714D02*
X80300001Y-41063714D01*
X80300001Y-41063714D02*
X80900001Y-42349428D01*
X80900001Y-42349428D02*
X81500001Y-41063714D01*
X81500001Y-41063714D02*
X81500001Y-42863714D01*
X82357144Y-42178000D02*
X83728573Y-42178000D01*
X85614286Y-42863714D02*
X85014286Y-42006571D01*
X84585715Y-42863714D02*
X84585715Y-41063714D01*
X84585715Y-41063714D02*
X85271429Y-41063714D01*
X85271429Y-41063714D02*
X85442858Y-41149428D01*
X85442858Y-41149428D02*
X85528572Y-41235142D01*
X85528572Y-41235142D02*
X85614286Y-41406571D01*
X85614286Y-41406571D02*
X85614286Y-41663714D01*
X85614286Y-41663714D02*
X85528572Y-41835142D01*
X85528572Y-41835142D02*
X85442858Y-41920857D01*
X85442858Y-41920857D02*
X85271429Y-42006571D01*
X85271429Y-42006571D02*
X84585715Y-42006571D01*
X86642858Y-42863714D02*
X86471429Y-42778000D01*
X86471429Y-42778000D02*
X86385715Y-42692285D01*
X86385715Y-42692285D02*
X86300001Y-42520857D01*
X86300001Y-42520857D02*
X86300001Y-42006571D01*
X86300001Y-42006571D02*
X86385715Y-41835142D01*
X86385715Y-41835142D02*
X86471429Y-41749428D01*
X86471429Y-41749428D02*
X86642858Y-41663714D01*
X86642858Y-41663714D02*
X86900001Y-41663714D01*
X86900001Y-41663714D02*
X87071429Y-41749428D01*
X87071429Y-41749428D02*
X87157144Y-41835142D01*
X87157144Y-41835142D02*
X87242858Y-42006571D01*
X87242858Y-42006571D02*
X87242858Y-42520857D01*
X87242858Y-42520857D02*
X87157144Y-42692285D01*
X87157144Y-42692285D02*
X87071429Y-42778000D01*
X87071429Y-42778000D02*
X86900001Y-42863714D01*
X86900001Y-42863714D02*
X86642858Y-42863714D01*
X88014286Y-42863714D02*
X88014286Y-41063714D01*
X88014286Y-41749428D02*
X88185715Y-41663714D01*
X88185715Y-41663714D02*
X88528572Y-41663714D01*
X88528572Y-41663714D02*
X88700000Y-41749428D01*
X88700000Y-41749428D02*
X88785715Y-41835142D01*
X88785715Y-41835142D02*
X88871429Y-42006571D01*
X88871429Y-42006571D02*
X88871429Y-42520857D01*
X88871429Y-42520857D02*
X88785715Y-42692285D01*
X88785715Y-42692285D02*
X88700000Y-42778000D01*
X88700000Y-42778000D02*
X88528572Y-42863714D01*
X88528572Y-42863714D02*
X88185715Y-42863714D01*
X88185715Y-42863714D02*
X88014286Y-42778000D01*
X89900000Y-42863714D02*
X89728571Y-42778000D01*
X89728571Y-42778000D02*
X89642857Y-42692285D01*
X89642857Y-42692285D02*
X89557143Y-42520857D01*
X89557143Y-42520857D02*
X89557143Y-42006571D01*
X89557143Y-42006571D02*
X89642857Y-41835142D01*
X89642857Y-41835142D02*
X89728571Y-41749428D01*
X89728571Y-41749428D02*
X89900000Y-41663714D01*
X89900000Y-41663714D02*
X90157143Y-41663714D01*
X90157143Y-41663714D02*
X90328571Y-41749428D01*
X90328571Y-41749428D02*
X90414286Y-41835142D01*
X90414286Y-41835142D02*
X90500000Y-42006571D01*
X90500000Y-42006571D02*
X90500000Y-42520857D01*
X90500000Y-42520857D02*
X90414286Y-42692285D01*
X90414286Y-42692285D02*
X90328571Y-42778000D01*
X90328571Y-42778000D02*
X90157143Y-42863714D01*
X90157143Y-42863714D02*
X89900000Y-42863714D01*
X91014285Y-41663714D02*
X91699999Y-41663714D01*
X91271428Y-41063714D02*
X91271428Y-42606571D01*
X91271428Y-42606571D02*
X91357142Y-42778000D01*
X91357142Y-42778000D02*
X91528571Y-42863714D01*
X91528571Y-42863714D02*
X91699999Y-42863714D01*
X92214285Y-42778000D02*
X92385713Y-42863714D01*
X92385713Y-42863714D02*
X92728570Y-42863714D01*
X92728570Y-42863714D02*
X92899999Y-42778000D01*
X92899999Y-42778000D02*
X92985713Y-42606571D01*
X92985713Y-42606571D02*
X92985713Y-42520857D01*
X92985713Y-42520857D02*
X92899999Y-42349428D01*
X92899999Y-42349428D02*
X92728570Y-42263714D01*
X92728570Y-42263714D02*
X92471428Y-42263714D01*
X92471428Y-42263714D02*
X92299999Y-42178000D01*
X92299999Y-42178000D02*
X92214285Y-42006571D01*
X92214285Y-42006571D02*
X92214285Y-41920857D01*
X92214285Y-41920857D02*
X92299999Y-41749428D01*
X92299999Y-41749428D02*
X92471428Y-41663714D01*
X92471428Y-41663714D02*
X92728570Y-41663714D01*
X92728570Y-41663714D02*
X92899999Y-41749428D01*
X93757142Y-42692285D02*
X93842856Y-42778000D01*
X93842856Y-42778000D02*
X93757142Y-42863714D01*
X93757142Y-42863714D02*
X93671428Y-42778000D01*
X93671428Y-42778000D02*
X93757142Y-42692285D01*
X93757142Y-42692285D02*
X93757142Y-42863714D01*
X95385714Y-42778000D02*
X95214285Y-42863714D01*
X95214285Y-42863714D02*
X94871428Y-42863714D01*
X94871428Y-42863714D02*
X94699999Y-42778000D01*
X94699999Y-42778000D02*
X94614285Y-42692285D01*
X94614285Y-42692285D02*
X94528571Y-42520857D01*
X94528571Y-42520857D02*
X94528571Y-42006571D01*
X94528571Y-42006571D02*
X94614285Y-41835142D01*
X94614285Y-41835142D02*
X94699999Y-41749428D01*
X94699999Y-41749428D02*
X94871428Y-41663714D01*
X94871428Y-41663714D02*
X95214285Y-41663714D01*
X95214285Y-41663714D02*
X95385714Y-41749428D01*
X96414285Y-42863714D02*
X96242856Y-42778000D01*
X96242856Y-42778000D02*
X96157142Y-42692285D01*
X96157142Y-42692285D02*
X96071428Y-42520857D01*
X96071428Y-42520857D02*
X96071428Y-42006571D01*
X96071428Y-42006571D02*
X96157142Y-41835142D01*
X96157142Y-41835142D02*
X96242856Y-41749428D01*
X96242856Y-41749428D02*
X96414285Y-41663714D01*
X96414285Y-41663714D02*
X96671428Y-41663714D01*
X96671428Y-41663714D02*
X96842856Y-41749428D01*
X96842856Y-41749428D02*
X96928571Y-41835142D01*
X96928571Y-41835142D02*
X97014285Y-42006571D01*
X97014285Y-42006571D02*
X97014285Y-42520857D01*
X97014285Y-42520857D02*
X96928571Y-42692285D01*
X96928571Y-42692285D02*
X96842856Y-42778000D01*
X96842856Y-42778000D02*
X96671428Y-42863714D01*
X96671428Y-42863714D02*
X96414285Y-42863714D01*
X97785713Y-42863714D02*
X97785713Y-41663714D01*
X97785713Y-41835142D02*
X97871427Y-41749428D01*
X97871427Y-41749428D02*
X98042856Y-41663714D01*
X98042856Y-41663714D02*
X98299999Y-41663714D01*
X98299999Y-41663714D02*
X98471427Y-41749428D01*
X98471427Y-41749428D02*
X98557142Y-41920857D01*
X98557142Y-41920857D02*
X98557142Y-42863714D01*
X98557142Y-41920857D02*
X98642856Y-41749428D01*
X98642856Y-41749428D02*
X98814284Y-41663714D01*
X98814284Y-41663714D02*
X99071427Y-41663714D01*
X99071427Y-41663714D02*
X99242856Y-41749428D01*
X99242856Y-41749428D02*
X99328570Y-41920857D01*
X99328570Y-41920857D02*
X99328570Y-42863714D01*
X100185713Y-42692285D02*
X100271427Y-42778000D01*
X100271427Y-42778000D02*
X100185713Y-42863714D01*
X100185713Y-42863714D02*
X100099999Y-42778000D01*
X100099999Y-42778000D02*
X100185713Y-42692285D01*
X100185713Y-42692285D02*
X100185713Y-42863714D01*
X101814285Y-42863714D02*
X101814285Y-41920857D01*
X101814285Y-41920857D02*
X101728570Y-41749428D01*
X101728570Y-41749428D02*
X101557142Y-41663714D01*
X101557142Y-41663714D02*
X101214285Y-41663714D01*
X101214285Y-41663714D02*
X101042856Y-41749428D01*
X101814285Y-42778000D02*
X101642856Y-42863714D01*
X101642856Y-42863714D02*
X101214285Y-42863714D01*
X101214285Y-42863714D02*
X101042856Y-42778000D01*
X101042856Y-42778000D02*
X100957142Y-42606571D01*
X100957142Y-42606571D02*
X100957142Y-42435142D01*
X100957142Y-42435142D02*
X101042856Y-42263714D01*
X101042856Y-42263714D02*
X101214285Y-42178000D01*
X101214285Y-42178000D02*
X101642856Y-42178000D01*
X101642856Y-42178000D02*
X101814285Y-42092285D01*
X102671427Y-42863714D02*
X102671427Y-41663714D01*
X102671427Y-42006571D02*
X102757141Y-41835142D01*
X102757141Y-41835142D02*
X102842856Y-41749428D01*
X102842856Y-41749428D02*
X103014284Y-41663714D01*
X103014284Y-41663714D02*
X103185713Y-41663714D01*
X80985714Y-45779714D02*
X80985714Y-43979714D01*
X80985714Y-43979714D02*
X81671428Y-43979714D01*
X81671428Y-43979714D02*
X81842857Y-44065428D01*
X81842857Y-44065428D02*
X81928571Y-44151142D01*
X81928571Y-44151142D02*
X82014285Y-44322571D01*
X82014285Y-44322571D02*
X82014285Y-44579714D01*
X82014285Y-44579714D02*
X81928571Y-44751142D01*
X81928571Y-44751142D02*
X81842857Y-44836857D01*
X81842857Y-44836857D02*
X81671428Y-44922571D01*
X81671428Y-44922571D02*
X80985714Y-44922571D01*
X83814285Y-45608285D02*
X83728571Y-45694000D01*
X83728571Y-45694000D02*
X83471428Y-45779714D01*
X83471428Y-45779714D02*
X83300000Y-45779714D01*
X83300000Y-45779714D02*
X83042857Y-45694000D01*
X83042857Y-45694000D02*
X82871428Y-45522571D01*
X82871428Y-45522571D02*
X82785714Y-45351142D01*
X82785714Y-45351142D02*
X82700000Y-45008285D01*
X82700000Y-45008285D02*
X82700000Y-44751142D01*
X82700000Y-44751142D02*
X82785714Y-44408285D01*
X82785714Y-44408285D02*
X82871428Y-44236857D01*
X82871428Y-44236857D02*
X83042857Y-44065428D01*
X83042857Y-44065428D02*
X83300000Y-43979714D01*
X83300000Y-43979714D02*
X83471428Y-43979714D01*
X83471428Y-43979714D02*
X83728571Y-44065428D01*
X83728571Y-44065428D02*
X83814285Y-44151142D01*
X85185714Y-44836857D02*
X85442857Y-44922571D01*
X85442857Y-44922571D02*
X85528571Y-45008285D01*
X85528571Y-45008285D02*
X85614285Y-45179714D01*
X85614285Y-45179714D02*
X85614285Y-45436857D01*
X85614285Y-45436857D02*
X85528571Y-45608285D01*
X85528571Y-45608285D02*
X85442857Y-45694000D01*
X85442857Y-45694000D02*
X85271428Y-45779714D01*
X85271428Y-45779714D02*
X84585714Y-45779714D01*
X84585714Y-45779714D02*
X84585714Y-43979714D01*
X84585714Y-43979714D02*
X85185714Y-43979714D01*
X85185714Y-43979714D02*
X85357143Y-44065428D01*
X85357143Y-44065428D02*
X85442857Y-44151142D01*
X85442857Y-44151142D02*
X85528571Y-44322571D01*
X85528571Y-44322571D02*
X85528571Y-44494000D01*
X85528571Y-44494000D02*
X85442857Y-44665428D01*
X85442857Y-44665428D02*
X85357143Y-44751142D01*
X85357143Y-44751142D02*
X85185714Y-44836857D01*
X85185714Y-44836857D02*
X84585714Y-44836857D01*
X86385714Y-45608285D02*
X86471428Y-45694000D01*
X86471428Y-45694000D02*
X86385714Y-45779714D01*
X86385714Y-45779714D02*
X86300000Y-45694000D01*
X86300000Y-45694000D02*
X86385714Y-45608285D01*
X86385714Y-45608285D02*
X86385714Y-45779714D01*
X86385714Y-44665428D02*
X86471428Y-44751142D01*
X86471428Y-44751142D02*
X86385714Y-44836857D01*
X86385714Y-44836857D02*
X86300000Y-44751142D01*
X86300000Y-44751142D02*
X86385714Y-44665428D01*
X86385714Y-44665428D02*
X86385714Y-44836857D01*
X88614286Y-45779714D02*
X88614286Y-43979714D01*
X88614286Y-43979714D02*
X89214286Y-45265428D01*
X89214286Y-45265428D02*
X89814286Y-43979714D01*
X89814286Y-43979714D02*
X89814286Y-45779714D01*
X92128572Y-45779714D02*
X92042858Y-45779714D01*
X92042858Y-45779714D02*
X91871429Y-45694000D01*
X91871429Y-45694000D02*
X91614286Y-45436857D01*
X91614286Y-45436857D02*
X91185715Y-44922571D01*
X91185715Y-44922571D02*
X91014286Y-44665428D01*
X91014286Y-44665428D02*
X90928572Y-44408285D01*
X90928572Y-44408285D02*
X90928572Y-44236857D01*
X90928572Y-44236857D02*
X91014286Y-44065428D01*
X91014286Y-44065428D02*
X91185715Y-43979714D01*
X91185715Y-43979714D02*
X91271429Y-43979714D01*
X91271429Y-43979714D02*
X91442858Y-44065428D01*
X91442858Y-44065428D02*
X91528572Y-44236857D01*
X91528572Y-44236857D02*
X91528572Y-44322571D01*
X91528572Y-44322571D02*
X91442858Y-44494000D01*
X91442858Y-44494000D02*
X91357143Y-44579714D01*
X91357143Y-44579714D02*
X90842858Y-44922571D01*
X90842858Y-44922571D02*
X90757143Y-45008285D01*
X90757143Y-45008285D02*
X90671429Y-45179714D01*
X90671429Y-45179714D02*
X90671429Y-45436857D01*
X90671429Y-45436857D02*
X90757143Y-45608285D01*
X90757143Y-45608285D02*
X90842858Y-45694000D01*
X90842858Y-45694000D02*
X91014286Y-45779714D01*
X91014286Y-45779714D02*
X91271429Y-45779714D01*
X91271429Y-45779714D02*
X91442858Y-45694000D01*
X91442858Y-45694000D02*
X91528572Y-45608285D01*
X91528572Y-45608285D02*
X91785715Y-45265428D01*
X91785715Y-45265428D02*
X91871429Y-45008285D01*
X91871429Y-45008285D02*
X91871429Y-44836857D01*
X92900000Y-45779714D02*
X92900000Y-43979714D01*
X92900000Y-43979714D02*
X93500000Y-45265428D01*
X93500000Y-45265428D02*
X94100000Y-43979714D01*
X94100000Y-43979714D02*
X94100000Y-45779714D01*
X94957143Y-45094000D02*
X96328572Y-45094000D01*
X98128571Y-45779714D02*
X97100000Y-45779714D01*
X97614285Y-45779714D02*
X97614285Y-43979714D01*
X97614285Y-43979714D02*
X97442857Y-44236857D01*
X97442857Y-44236857D02*
X97271428Y-44408285D01*
X97271428Y-44408285D02*
X97100000Y-44494000D01*
X98900000Y-45608285D02*
X98985714Y-45694000D01*
X98985714Y-45694000D02*
X98900000Y-45779714D01*
X98900000Y-45779714D02*
X98814286Y-45694000D01*
X98814286Y-45694000D02*
X98900000Y-45608285D01*
X98900000Y-45608285D02*
X98900000Y-45779714D01*
X100100000Y-43979714D02*
X100271429Y-43979714D01*
X100271429Y-43979714D02*
X100442857Y-44065428D01*
X100442857Y-44065428D02*
X100528572Y-44151142D01*
X100528572Y-44151142D02*
X100614286Y-44322571D01*
X100614286Y-44322571D02*
X100700000Y-44665428D01*
X100700000Y-44665428D02*
X100700000Y-45094000D01*
X100700000Y-45094000D02*
X100614286Y-45436857D01*
X100614286Y-45436857D02*
X100528572Y-45608285D01*
X100528572Y-45608285D02*
X100442857Y-45694000D01*
X100442857Y-45694000D02*
X100271429Y-45779714D01*
X100271429Y-45779714D02*
X100100000Y-45779714D01*
X100100000Y-45779714D02*
X99928572Y-45694000D01*
X99928572Y-45694000D02*
X99842857Y-45608285D01*
X99842857Y-45608285D02*
X99757143Y-45436857D01*
X99757143Y-45436857D02*
X99671429Y-45094000D01*
X99671429Y-45094000D02*
X99671429Y-44665428D01*
X99671429Y-44665428D02*
X99757143Y-44322571D01*
X99757143Y-44322571D02*
X99842857Y-44151142D01*
X99842857Y-44151142D02*
X99928572Y-44065428D01*
X99928572Y-44065428D02*
X100100000Y-43979714D01*
%TA.AperFunction,EtchedComponent*%
%TO.C,G\u002A\u002A\u002A*%
G36*
X67808994Y-37030352D02*
G01*
X67801309Y-37060772D01*
X67778657Y-37110869D01*
X67741267Y-37180151D01*
X67689369Y-37268123D01*
X67675457Y-37290863D01*
X67636181Y-37357644D01*
X67595880Y-37431292D01*
X67557124Y-37506573D01*
X67522481Y-37578250D01*
X67494522Y-37641089D01*
X67475817Y-37689853D01*
X67470460Y-37708529D01*
X67464013Y-37745275D01*
X67456653Y-37799703D01*
X67449391Y-37863781D01*
X67444434Y-37915408D01*
X67433654Y-38010033D01*
X67418213Y-38086549D01*
X67395529Y-38152551D01*
X67363021Y-38215634D01*
X67320449Y-38280111D01*
X67287777Y-38321933D01*
X67240984Y-38376393D01*
X67183987Y-38439428D01*
X67120703Y-38506974D01*
X67055051Y-38574970D01*
X66990949Y-38639350D01*
X66932315Y-38696053D01*
X66883066Y-38741016D01*
X66849696Y-38768312D01*
X66806219Y-38798452D01*
X66779252Y-38810500D01*
X66765692Y-38803104D01*
X66762435Y-38774912D01*
X66765641Y-38731701D01*
X66786163Y-38525533D01*
X66803341Y-38343999D01*
X66817146Y-38187420D01*
X66826452Y-38070914D01*
X66831764Y-38003162D01*
X66836937Y-37942850D01*
X66841459Y-37895553D01*
X66844821Y-37866849D01*
X66845482Y-37862919D01*
X66857199Y-37845332D01*
X66886441Y-37814519D01*
X66930418Y-37773135D01*
X66986339Y-37723836D01*
X67033336Y-37684179D01*
X67109490Y-37620183D01*
X67195410Y-37546642D01*
X67282335Y-37471133D01*
X67361503Y-37401233D01*
X67389149Y-37376438D01*
X67487084Y-37288145D01*
X67567686Y-37215639D01*
X67632728Y-37157389D01*
X67683982Y-37111861D01*
X67723222Y-37077526D01*
X67752220Y-37052849D01*
X67772748Y-37036301D01*
X67786579Y-37026349D01*
X67795485Y-37021461D01*
X67801240Y-37020104D01*
X67801483Y-37020102D01*
X67808994Y-37030352D01*
G37*
%TD.AperFunction*%
%TA.AperFunction,EtchedComponent*%
G36*
X65017024Y-37034872D02*
G01*
X65027243Y-37040812D01*
X65043117Y-37052494D01*
X65066370Y-37071409D01*
X65098726Y-37099047D01*
X65141907Y-37136898D01*
X65197638Y-37186452D01*
X65267642Y-37249200D01*
X65353642Y-37326631D01*
X65433840Y-37398996D01*
X65508439Y-37465540D01*
X65592920Y-37539583D01*
X65679129Y-37614058D01*
X65758912Y-37681898D01*
X65796193Y-37713070D01*
X65853274Y-37760645D01*
X65902788Y-37802341D01*
X65941586Y-37835475D01*
X65966523Y-37857361D01*
X65974518Y-37865252D01*
X65975706Y-37886779D01*
X65979015Y-37929780D01*
X65984064Y-37990065D01*
X65990469Y-38063443D01*
X65997851Y-38145725D01*
X66005825Y-38232718D01*
X66014012Y-38320233D01*
X66022027Y-38404080D01*
X66029491Y-38480067D01*
X66036020Y-38544003D01*
X66038506Y-38567310D01*
X66048811Y-38670585D01*
X66054587Y-38750066D01*
X66055839Y-38807345D01*
X66052569Y-38844015D01*
X66044780Y-38861666D01*
X66039074Y-38863858D01*
X66027592Y-38855164D01*
X66000408Y-38830699D01*
X65960086Y-38792893D01*
X65909192Y-38744176D01*
X65850292Y-38686977D01*
X65797365Y-38635000D01*
X65695809Y-38533247D01*
X65612066Y-38445169D01*
X65544318Y-38367719D01*
X65490746Y-38297851D01*
X65449534Y-38232518D01*
X65418863Y-38168673D01*
X65396916Y-38103270D01*
X65381874Y-38033262D01*
X65371920Y-37955603D01*
X65368536Y-37916298D01*
X65361309Y-37839949D01*
X65351061Y-37772014D01*
X65336173Y-37708299D01*
X65315030Y-37644611D01*
X65286012Y-37576756D01*
X65247502Y-37500541D01*
X65197883Y-37411774D01*
X65135538Y-37306260D01*
X65129061Y-37295491D01*
X65083298Y-37217757D01*
X65045393Y-37149911D01*
X65016941Y-37095007D01*
X64999536Y-37056102D01*
X64994619Y-37037867D01*
X65004912Y-37033447D01*
X65010736Y-37033185D01*
X65017024Y-37034872D01*
G37*
%TD.AperFunction*%
%TA.AperFunction,EtchedComponent*%
G36*
X63621087Y-38083423D02*
G01*
X63790616Y-38083423D01*
X63800195Y-38096091D01*
X63827495Y-38119594D01*
X63868557Y-38150800D01*
X63919423Y-38186580D01*
X63930628Y-38194146D01*
X64012243Y-38251502D01*
X64083817Y-38308376D01*
X64150146Y-38369467D01*
X64216028Y-38439471D01*
X64286258Y-38523088D01*
X64351133Y-38605990D01*
X64512163Y-38820658D01*
X64656008Y-39022005D01*
X64784770Y-39213829D01*
X64900551Y-39399924D01*
X65005455Y-39584087D01*
X65101582Y-39770115D01*
X65191036Y-39961802D01*
X65275918Y-40162946D01*
X65358331Y-40377341D01*
X65406999Y-40512584D01*
X65430112Y-40575438D01*
X65451879Y-40629539D01*
X65470259Y-40670173D01*
X65483216Y-40692625D01*
X65485976Y-40695253D01*
X65510766Y-40704239D01*
X65556985Y-40716440D01*
X65620586Y-40731081D01*
X65697522Y-40747389D01*
X65783745Y-40764592D01*
X65875208Y-40781915D01*
X65967864Y-40798586D01*
X66057665Y-40813831D01*
X66140564Y-40826876D01*
X66212514Y-40836950D01*
X66251726Y-40841561D01*
X66300995Y-40844214D01*
X66369548Y-40844489D01*
X66451020Y-40842665D01*
X66539047Y-40839020D01*
X66627264Y-40833834D01*
X66709305Y-40827386D01*
X66778806Y-40819954D01*
X66795069Y-40817747D01*
X66871844Y-40805968D01*
X66955004Y-40792001D01*
X67040458Y-40776662D01*
X67124118Y-40760768D01*
X67201891Y-40745136D01*
X67269690Y-40730583D01*
X67323422Y-40717925D01*
X67358999Y-40707980D01*
X67371531Y-40702617D01*
X67380836Y-40685581D01*
X67394724Y-40648298D01*
X67411608Y-40595562D01*
X67429900Y-40532163D01*
X67438197Y-40501320D01*
X67496001Y-40294598D01*
X67557007Y-40101081D01*
X67620192Y-39923549D01*
X67684536Y-39764782D01*
X67749017Y-39627560D01*
X67781749Y-39566549D01*
X67837121Y-39473873D01*
X67907330Y-39365151D01*
X67990059Y-39243587D01*
X68082990Y-39112390D01*
X68183807Y-38974766D01*
X68290193Y-38833923D01*
X68399832Y-38693066D01*
X68510407Y-38555402D01*
X68526122Y-38536212D01*
X68607349Y-38438763D01*
X68676717Y-38359208D01*
X68737336Y-38294441D01*
X68792315Y-38241361D01*
X68844766Y-38196862D01*
X68897799Y-38157842D01*
X68920516Y-38142652D01*
X68965315Y-38113305D01*
X69001190Y-38089538D01*
X69023196Y-38074641D01*
X69027637Y-38071382D01*
X69021690Y-38060271D01*
X69002589Y-38032280D01*
X68972885Y-37990981D01*
X68935127Y-37939948D01*
X68909991Y-37906568D01*
X68836361Y-37806165D01*
X68769042Y-37706888D01*
X68704879Y-37603463D01*
X68640719Y-37490620D01*
X68573406Y-37363088D01*
X68514573Y-37245736D01*
X68436958Y-37084066D01*
X68369150Y-36933170D01*
X68309848Y-36788804D01*
X68257746Y-36646726D01*
X68211544Y-36502693D01*
X68169937Y-36352461D01*
X68131623Y-36191787D01*
X68095299Y-36016427D01*
X68059661Y-35822140D01*
X68037800Y-35693108D01*
X68023327Y-35606323D01*
X68010059Y-35528353D01*
X67998612Y-35462684D01*
X67989601Y-35412805D01*
X67983641Y-35382204D01*
X67981516Y-35373970D01*
X67970245Y-35379858D01*
X67944499Y-35401324D01*
X67907486Y-35435176D01*
X67862411Y-35478221D01*
X67812482Y-35527267D01*
X67760906Y-35579122D01*
X67710889Y-35630592D01*
X67665637Y-35678487D01*
X67628359Y-35719612D01*
X67602260Y-35750777D01*
X67599859Y-35753925D01*
X67566923Y-35800384D01*
X67526630Y-35861044D01*
X67484334Y-35927671D01*
X67449165Y-35985623D01*
X67405429Y-36056588D01*
X67371475Y-36104759D01*
X67346695Y-36130946D01*
X67336154Y-36136409D01*
X67317936Y-36137708D01*
X67276668Y-36139220D01*
X67215087Y-36140886D01*
X67135930Y-36142649D01*
X67041931Y-36144451D01*
X66935828Y-36146236D01*
X66820355Y-36147946D01*
X66728782Y-36149151D01*
X66587897Y-36150981D01*
X66437317Y-36153072D01*
X66282821Y-36155335D01*
X66130189Y-36157680D01*
X65985202Y-36160019D01*
X65853640Y-36162263D01*
X65741283Y-36164322D01*
X65727567Y-36164588D01*
X65306556Y-36172801D01*
X65244065Y-36084905D01*
X65156393Y-35963455D01*
X65070913Y-35848610D01*
X64989826Y-35743159D01*
X64915331Y-35649890D01*
X64849625Y-35571590D01*
X64794909Y-35511047D01*
X64777095Y-35492921D01*
X64735495Y-35452793D01*
X64700978Y-35421088D01*
X64677352Y-35401194D01*
X64668521Y-35396221D01*
X64665233Y-35410208D01*
X64658860Y-35445568D01*
X64650093Y-35498164D01*
X64639622Y-35563859D01*
X64628812Y-35634061D01*
X64591480Y-35874675D01*
X64555161Y-36097341D01*
X64520047Y-36301065D01*
X64486335Y-36484851D01*
X64454217Y-36647704D01*
X64423890Y-36788628D01*
X64395546Y-36906629D01*
X64369381Y-37000711D01*
X64351244Y-37055139D01*
X64263982Y-37267700D01*
X64158203Y-37485056D01*
X64037969Y-37699546D01*
X63907345Y-37903510D01*
X63881767Y-37940326D01*
X63846826Y-37991027D01*
X63817989Y-38034916D01*
X63798253Y-38067288D01*
X63790616Y-38083423D01*
X63621087Y-38083423D01*
X63623100Y-38081248D01*
X63672625Y-38022796D01*
X63730473Y-37945143D01*
X63794046Y-37852450D01*
X63860744Y-37748876D01*
X63927970Y-37638580D01*
X63993124Y-37525722D01*
X64053606Y-37414460D01*
X64106819Y-37308956D01*
X64110653Y-37300953D01*
X64149018Y-37219048D01*
X64182794Y-37142916D01*
X64212735Y-37069700D01*
X64239593Y-36996544D01*
X64264119Y-36920590D01*
X64287065Y-36838982D01*
X64309183Y-36748863D01*
X64331226Y-36647375D01*
X64353945Y-36531661D01*
X64378092Y-36398865D01*
X64404420Y-36246130D01*
X64432313Y-36078884D01*
X64459656Y-35912503D01*
X64482894Y-35769496D01*
X64502321Y-35647829D01*
X64518230Y-35545466D01*
X64530913Y-35460374D01*
X64540666Y-35390516D01*
X64547781Y-35333859D01*
X64552551Y-35288367D01*
X64555271Y-35252007D01*
X64556233Y-35222742D01*
X64556244Y-35219479D01*
X64557895Y-35177564D01*
X64562219Y-35148923D01*
X64568159Y-35139814D01*
X64586204Y-35151789D01*
X64618952Y-35178638D01*
X64662840Y-35217034D01*
X64714303Y-35263651D01*
X64769778Y-35315163D01*
X64825700Y-35368243D01*
X64878505Y-35419565D01*
X64924630Y-35465802D01*
X64960510Y-35503627D01*
X64972638Y-35517339D01*
X65007276Y-35559674D01*
X65052399Y-35617371D01*
X65103641Y-35684712D01*
X65156637Y-35755979D01*
X65194638Y-35808187D01*
X65240541Y-35871661D01*
X65282364Y-35929006D01*
X65317354Y-35976484D01*
X65342756Y-36010358D01*
X65355635Y-36026686D01*
X65360721Y-36030960D01*
X65369028Y-36034563D01*
X65382396Y-36037508D01*
X65402667Y-36039806D01*
X65431682Y-36041469D01*
X65471283Y-36042511D01*
X65523310Y-36042943D01*
X65589604Y-36042777D01*
X65672009Y-36042026D01*
X65772364Y-36040701D01*
X65892510Y-36038816D01*
X66034290Y-36036381D01*
X66199545Y-36033409D01*
X66245279Y-36032574D01*
X66395349Y-36029835D01*
X66539778Y-36027212D01*
X66676179Y-36024747D01*
X66802166Y-36022483D01*
X66915354Y-36020462D01*
X67013357Y-36018728D01*
X67093788Y-36017321D01*
X67154262Y-36016286D01*
X67192393Y-36015665D01*
X67201500Y-36015533D01*
X67287415Y-36014417D01*
X67355259Y-35901599D01*
X67398454Y-35831525D01*
X67439633Y-35769276D01*
X67481856Y-35711223D01*
X67528179Y-35653734D01*
X67581663Y-35593178D01*
X67645364Y-35525925D01*
X67722341Y-35448342D01*
X67807104Y-35365121D01*
X67892042Y-35283094D01*
X67960024Y-35219063D01*
X68011854Y-35172322D01*
X68048332Y-35142168D01*
X68070263Y-35127899D01*
X68078022Y-35127662D01*
X68085991Y-35150515D01*
X68092819Y-35186426D01*
X68093970Y-35195686D01*
X68117873Y-35392457D01*
X68146081Y-35590255D01*
X68177814Y-35784951D01*
X68212290Y-35972414D01*
X68248726Y-36148515D01*
X68286342Y-36309125D01*
X68324355Y-36450113D01*
X68342899Y-36510813D01*
X68400403Y-36675867D01*
X68470833Y-36854047D01*
X68551036Y-37038318D01*
X68637860Y-37221646D01*
X68728152Y-37396997D01*
X68789634Y-37507589D01*
X68848363Y-37603462D01*
X68918462Y-37707976D01*
X68994536Y-37813699D01*
X69071190Y-37913199D01*
X69143031Y-37999045D01*
X69160294Y-38018253D01*
X69196878Y-38060771D01*
X69214345Y-38087697D01*
X69213323Y-38100028D01*
X69212194Y-38100509D01*
X69195478Y-38109589D01*
X69161842Y-38130428D01*
X69115657Y-38160234D01*
X69061293Y-38196216D01*
X69041391Y-38209585D01*
X68979229Y-38252864D01*
X68923396Y-38295284D01*
X68870829Y-38339934D01*
X68818464Y-38389905D01*
X68763235Y-38448285D01*
X68702081Y-38518164D01*
X68631935Y-38602631D01*
X68549734Y-38704775D01*
X68547666Y-38707372D01*
X68411134Y-38880464D01*
X68290689Y-39037089D01*
X68184856Y-39179664D01*
X68092161Y-39310605D01*
X68011129Y-39432328D01*
X67940286Y-39547250D01*
X67878157Y-39657788D01*
X67823269Y-39766358D01*
X67774147Y-39875376D01*
X67729318Y-39987260D01*
X67687305Y-40104425D01*
X67677392Y-40133858D01*
X67647296Y-40226577D01*
X67617639Y-40322245D01*
X67589493Y-40416991D01*
X67563928Y-40506942D01*
X67542016Y-40588224D01*
X67524827Y-40656965D01*
X67513434Y-40709293D01*
X67508908Y-40741334D01*
X67508874Y-40743071D01*
X67506622Y-40764254D01*
X67498044Y-40781970D01*
X67480302Y-40797367D01*
X67450559Y-40811587D01*
X67405980Y-40825777D01*
X67343728Y-40841080D01*
X67260967Y-40858642D01*
X67185242Y-40873688D01*
X67091955Y-40891375D01*
X66995837Y-40908619D01*
X66903769Y-40924255D01*
X66822628Y-40937119D01*
X66759295Y-40946043D01*
X66755059Y-40946570D01*
X66635487Y-40957320D01*
X66502019Y-40962731D01*
X66363982Y-40962830D01*
X66230706Y-40957648D01*
X66111521Y-40947211D01*
X66090559Y-40944544D01*
X66013594Y-40933076D01*
X65927782Y-40918478D01*
X65836936Y-40901585D01*
X65744870Y-40883232D01*
X65655399Y-40864252D01*
X65572337Y-40845480D01*
X65499497Y-40827750D01*
X65440695Y-40811895D01*
X65399744Y-40798751D01*
X65380584Y-40789279D01*
X65372492Y-40773671D01*
X65357951Y-40738572D01*
X65338889Y-40688883D01*
X65317234Y-40629502D01*
X65312926Y-40617361D01*
X65222671Y-40369849D01*
X65135553Y-40147366D01*
X65051343Y-39949375D01*
X64969810Y-39775338D01*
X64890725Y-39624718D01*
X64878835Y-39603720D01*
X64823522Y-39510473D01*
X64757773Y-39405280D01*
X64683997Y-39291572D01*
X64604604Y-39172783D01*
X64522002Y-39052345D01*
X64438601Y-38933688D01*
X64356810Y-38820246D01*
X64279039Y-38715451D01*
X64207697Y-38622735D01*
X64145194Y-38545529D01*
X64098580Y-38492241D01*
X64031569Y-38426276D01*
X63952242Y-38360654D01*
X63856810Y-38292509D01*
X63741486Y-38218973D01*
X63721396Y-38206794D01*
X63670226Y-38175573D01*
X63628278Y-38149249D01*
X63599851Y-38130571D01*
X63589240Y-38122286D01*
X63589239Y-38122261D01*
X63597171Y-38110662D01*
X63616853Y-38087997D01*
X63621087Y-38083423D01*
G37*
%TD.AperFunction*%
%TA.AperFunction,EtchedComponent*%
G36*
X63383988Y-38104225D02*
G01*
X63434518Y-38104225D01*
X63444762Y-38114582D01*
X63472208Y-38134672D01*
X63511925Y-38160998D01*
X63534442Y-38175156D01*
X63656029Y-38254558D01*
X63764868Y-38334114D01*
X63856506Y-38410448D01*
X63901053Y-38452966D01*
X63945094Y-38501479D01*
X64000917Y-38568837D01*
X64066447Y-38652135D01*
X64139613Y-38748470D01*
X64218343Y-38854937D01*
X64300563Y-38968632D01*
X64384201Y-39086650D01*
X64467184Y-39206088D01*
X64547440Y-39324040D01*
X64622896Y-39437602D01*
X64691480Y-39543871D01*
X64751118Y-39639941D01*
X64766980Y-39666381D01*
X64838335Y-39793776D01*
X64913903Y-39942256D01*
X64991898Y-40107828D01*
X65070534Y-40286500D01*
X65148024Y-40474278D01*
X65222582Y-40667168D01*
X65258690Y-40765635D01*
X65281244Y-40827268D01*
X65301262Y-40880043D01*
X65316908Y-40919257D01*
X65326345Y-40940210D01*
X65327652Y-40942192D01*
X65345693Y-40949506D01*
X65386047Y-40959174D01*
X65445393Y-40970727D01*
X65520412Y-40983693D01*
X65607785Y-40997604D01*
X65704191Y-41011988D01*
X65806312Y-41026377D01*
X65910827Y-41040299D01*
X66014417Y-41053284D01*
X66113763Y-41064862D01*
X66205545Y-41074564D01*
X66286443Y-41081919D01*
X66341980Y-41085848D01*
X66459207Y-41087698D01*
X66597911Y-41081142D01*
X66755259Y-41066374D01*
X66896396Y-41048243D01*
X66963320Y-41037935D01*
X67040731Y-41024754D01*
X67124703Y-41009499D01*
X67211309Y-40992974D01*
X67296624Y-40975979D01*
X67376721Y-40959316D01*
X67447674Y-40943786D01*
X67505556Y-40930190D01*
X67546440Y-40919330D01*
X67566402Y-40912007D01*
X67567303Y-40911310D01*
X67572962Y-40896926D01*
X67583642Y-40862310D01*
X67597958Y-40812207D01*
X67614525Y-40751363D01*
X67619700Y-40731827D01*
X67662907Y-40576488D01*
X67710701Y-40420280D01*
X67761561Y-40267373D01*
X67813969Y-40121937D01*
X67866406Y-39988140D01*
X67917350Y-39870154D01*
X67965284Y-39772146D01*
X67977856Y-39749035D01*
X68041452Y-39641780D01*
X68121252Y-39518061D01*
X68215675Y-39380088D01*
X68323141Y-39230070D01*
X68442068Y-39070214D01*
X68570876Y-38902730D01*
X68704060Y-38734702D01*
X68791281Y-38626672D01*
X68865185Y-38536509D01*
X68928279Y-38461717D01*
X68983070Y-38399802D01*
X69032063Y-38348269D01*
X69077765Y-38304623D01*
X69122682Y-38266368D01*
X69169321Y-38231010D01*
X69220188Y-38196053D01*
X69277790Y-38159004D01*
X69290228Y-38151192D01*
X69401928Y-38081234D01*
X69306407Y-37966480D01*
X69204370Y-37838853D01*
X69110524Y-37710184D01*
X69021678Y-37575446D01*
X68934636Y-37429613D01*
X68846208Y-37267659D01*
X68778525Y-37135527D01*
X68678354Y-36928147D01*
X68592919Y-36734558D01*
X68520121Y-36549018D01*
X68457862Y-36365784D01*
X68404045Y-36179112D01*
X68356572Y-35983260D01*
X68354904Y-35975736D01*
X68334463Y-35879599D01*
X68313301Y-35773537D01*
X68292042Y-35661276D01*
X68271306Y-35546545D01*
X68251715Y-35433070D01*
X68233890Y-35324578D01*
X68218452Y-35224798D01*
X68206023Y-35137456D01*
X68197224Y-35066280D01*
X68192677Y-35014997D01*
X68192183Y-34999636D01*
X68190969Y-34964105D01*
X68185290Y-34948431D01*
X68172090Y-34946722D01*
X68165524Y-34948228D01*
X68143502Y-34957813D01*
X68105908Y-34977935D01*
X68058878Y-35005214D01*
X68028266Y-35023869D01*
X67980027Y-35056391D01*
X67926279Y-35097919D01*
X67864234Y-35150853D01*
X67791104Y-35217594D01*
X67704099Y-35300543D01*
X67682638Y-35321381D01*
X67587233Y-35415794D01*
X67508754Y-35497276D01*
X67444312Y-35569404D01*
X67391020Y-35635755D01*
X67345991Y-35699904D01*
X67306339Y-35765427D01*
X67272314Y-35829619D01*
X67225928Y-35922030D01*
X67144969Y-35929104D01*
X67113894Y-35930872D01*
X67060422Y-35932845D01*
X66987944Y-35934941D01*
X66899847Y-35937079D01*
X66799521Y-35939177D01*
X66690356Y-35941155D01*
X66575740Y-35942930D01*
X66561168Y-35943134D01*
X66432756Y-35945002D01*
X66297816Y-35947131D01*
X66161986Y-35949420D01*
X66030906Y-35951769D01*
X65910212Y-35954077D01*
X65805545Y-35956245D01*
X65742437Y-35957682D01*
X65426548Y-35965275D01*
X65310508Y-35806154D01*
X65218665Y-35683364D01*
X65122648Y-35560760D01*
X65024975Y-35441209D01*
X64928165Y-35327578D01*
X64834736Y-35222734D01*
X64747208Y-35129543D01*
X64668099Y-35050875D01*
X64599927Y-34989594D01*
X64576947Y-34971103D01*
X64541466Y-34944458D01*
X64514456Y-34925529D01*
X64501917Y-34918478D01*
X64496622Y-34930053D01*
X64490310Y-34959800D01*
X64486366Y-34986168D01*
X64480176Y-35024844D01*
X64469613Y-35081315D01*
X64456111Y-35148251D01*
X64441104Y-35218323D01*
X64439791Y-35224250D01*
X64424889Y-35294280D01*
X64411653Y-35361863D01*
X64401452Y-35419657D01*
X64395651Y-35460318D01*
X64395402Y-35462778D01*
X64389986Y-35506972D01*
X64380356Y-35572742D01*
X64367174Y-35656343D01*
X64351101Y-35754029D01*
X64332797Y-35862053D01*
X64312922Y-35976670D01*
X64292139Y-36094135D01*
X64271106Y-36210701D01*
X64250485Y-36322624D01*
X64230936Y-36426156D01*
X64213121Y-36517552D01*
X64197699Y-36593067D01*
X64188947Y-36633300D01*
X64131775Y-36840924D01*
X64051554Y-37059549D01*
X63948241Y-37289279D01*
X63829449Y-37516498D01*
X63781106Y-37601018D01*
X63728666Y-37688499D01*
X63674626Y-37775140D01*
X63621485Y-37857139D01*
X63571742Y-37930694D01*
X63527896Y-37992002D01*
X63492444Y-38037262D01*
X63474117Y-38057210D01*
X63449659Y-38082565D01*
X63435739Y-38100807D01*
X63434518Y-38104225D01*
X63383988Y-38104225D01*
X63397202Y-38084104D01*
X63427178Y-38040752D01*
X63464564Y-37988240D01*
X63485826Y-37958910D01*
X63606223Y-37784098D01*
X63721594Y-37597765D01*
X63829007Y-37405458D01*
X63925533Y-37212724D01*
X64008244Y-37025108D01*
X64074209Y-36848158D01*
X64077046Y-36839594D01*
X64098934Y-36766879D01*
X64122020Y-36677748D01*
X64146532Y-36571028D01*
X64172697Y-36445542D01*
X64200744Y-36300117D01*
X64230901Y-36133578D01*
X64263394Y-35944750D01*
X64298453Y-35732459D01*
X64329701Y-35537361D01*
X64341859Y-35462011D01*
X64353625Y-35391755D01*
X64364023Y-35332229D01*
X64372077Y-35289070D01*
X64375455Y-35273046D01*
X64400193Y-35165341D01*
X64418587Y-35080087D01*
X64431105Y-35014860D01*
X64438213Y-34967241D01*
X64440379Y-34936222D01*
X64443354Y-34887034D01*
X64450959Y-34849605D01*
X64461777Y-34829861D01*
X64466205Y-34828224D01*
X64481301Y-34836223D01*
X64511378Y-34857887D01*
X64552172Y-34889714D01*
X64599419Y-34928203D01*
X64648859Y-34969853D01*
X64696226Y-35011162D01*
X64737259Y-35048630D01*
X64753029Y-35063803D01*
X64819699Y-35132661D01*
X64897665Y-35218521D01*
X64983473Y-35317231D01*
X65073670Y-35424638D01*
X65164803Y-35536593D01*
X65253420Y-35648942D01*
X65336067Y-35757535D01*
X65381807Y-35819788D01*
X65450861Y-35915261D01*
X65831953Y-35906928D01*
X65940647Y-35904614D01*
X66068452Y-35901997D01*
X66208696Y-35899206D01*
X66354708Y-35896372D01*
X66499816Y-35893627D01*
X66637348Y-35891098D01*
X66699735Y-35889982D01*
X67186424Y-35881369D01*
X67239705Y-35783502D01*
X67273137Y-35725225D01*
X67311112Y-35663717D01*
X67345821Y-35611592D01*
X67348173Y-35608274D01*
X67376510Y-35572882D01*
X67420286Y-35523570D01*
X67475972Y-35463883D01*
X67540037Y-35397369D01*
X67608951Y-35327574D01*
X67679185Y-35258044D01*
X67747209Y-35192328D01*
X67809491Y-35133970D01*
X67862503Y-35086518D01*
X67892226Y-35061673D01*
X67926053Y-35036756D01*
X67972032Y-35005692D01*
X68025354Y-34971406D01*
X68081209Y-34936824D01*
X68134789Y-34904868D01*
X68181284Y-34878464D01*
X68215886Y-34860537D01*
X68233700Y-34854011D01*
X68237274Y-34864296D01*
X68235070Y-34877995D01*
X68234199Y-34902936D01*
X68238006Y-34950885D01*
X68246182Y-35019545D01*
X68258415Y-35106626D01*
X68274394Y-35209832D01*
X68293810Y-35326872D01*
X68303445Y-35382640D01*
X68315501Y-35453043D01*
X68326177Y-35518025D01*
X68334521Y-35571605D01*
X68339583Y-35607803D01*
X68340383Y-35615043D01*
X68343874Y-35647229D01*
X68348806Y-35681868D01*
X68355949Y-35722948D01*
X68366076Y-35774457D01*
X68379960Y-35840381D01*
X68398372Y-35924710D01*
X68413976Y-35995064D01*
X68464326Y-36199049D01*
X68523867Y-36397723D01*
X68594522Y-36596245D01*
X68678214Y-36799773D01*
X68776866Y-37013465D01*
X68844207Y-37149036D01*
X68929825Y-37312761D01*
X69010866Y-37457162D01*
X69090736Y-37587436D01*
X69172842Y-37708776D01*
X69260593Y-37826380D01*
X69357396Y-37945442D01*
X69396786Y-37991596D01*
X69437361Y-38039934D01*
X69461801Y-38072820D01*
X69471974Y-38093263D01*
X69469748Y-38104271D01*
X69467699Y-38105773D01*
X69359744Y-38169832D01*
X69268582Y-38226564D01*
X69196591Y-38274461D01*
X69160124Y-38300967D01*
X69117456Y-38338411D01*
X69061529Y-38395088D01*
X68993906Y-38469130D01*
X68916151Y-38558670D01*
X68829827Y-38661842D01*
X68736498Y-38776776D01*
X68637728Y-38901607D01*
X68535080Y-39034466D01*
X68435072Y-39166853D01*
X68324334Y-39317178D01*
X68228788Y-39452069D01*
X68146384Y-39575264D01*
X68075069Y-39690501D01*
X68012791Y-39801517D01*
X67957497Y-39912051D01*
X67907135Y-40025839D01*
X67859653Y-40146620D01*
X67812999Y-40278132D01*
X67794398Y-40333706D01*
X67766004Y-40421975D01*
X67736847Y-40516592D01*
X67708388Y-40612439D01*
X67682090Y-40704401D01*
X67659414Y-40787362D01*
X67641823Y-40856205D01*
X67630780Y-40905815D01*
X67630573Y-40906912D01*
X67622288Y-40951070D01*
X67459190Y-40989724D01*
X67206824Y-41045005D01*
X66972870Y-41086546D01*
X66754103Y-41114633D01*
X66547295Y-41129554D01*
X66349223Y-41131597D01*
X66156660Y-41121048D01*
X66076604Y-41112927D01*
X66012416Y-41104975D01*
X65933197Y-41094285D01*
X65843835Y-41081605D01*
X65749221Y-41067680D01*
X65654240Y-41053256D01*
X65563783Y-41039079D01*
X65482737Y-41025893D01*
X65415990Y-41014447D01*
X65368432Y-41005484D01*
X65358569Y-41003376D01*
X65310575Y-40990134D01*
X65281764Y-40973969D01*
X65265602Y-40950042D01*
X65259223Y-40929810D01*
X65244650Y-40880855D01*
X65220964Y-40812226D01*
X65189721Y-40727727D01*
X65152474Y-40631162D01*
X65110777Y-40526334D01*
X65066184Y-40417047D01*
X65020249Y-40307105D01*
X64974526Y-40200312D01*
X64930568Y-40100471D01*
X64889931Y-40011387D01*
X64854167Y-39936863D01*
X64850940Y-39930401D01*
X64796341Y-39827805D01*
X64727671Y-39708912D01*
X64647310Y-39577282D01*
X64557642Y-39436474D01*
X64461045Y-39290050D01*
X64359901Y-39141568D01*
X64256591Y-38994589D01*
X64153495Y-38852673D01*
X64052996Y-38719380D01*
X63972337Y-38616699D01*
X63858294Y-38489832D01*
X63727567Y-38373480D01*
X63576496Y-38264540D01*
X63502208Y-38217895D01*
X63450953Y-38186158D01*
X63408962Y-38158623D01*
X63380555Y-38138232D01*
X63370051Y-38127926D01*
X63370051Y-38127905D01*
X63377279Y-38114441D01*
X63383988Y-38104225D01*
G37*
%TD.AperFunction*%
%TD*%
D12*
%TO.P,R4,1*%
%TO.N,/pin_Blue*%
X57700000Y-45290000D03*
%TO.P,R4,2*%
%TO.N,/Blue_2*%
X57700000Y-52910000D03*
%TD*%
D13*
%TO.P,U1,1,3V3*%
%TO.N,unconnected-(U1-3V3-Pad1)*%
X62700000Y-54460000D03*
%TO.P,U1,2,EN*%
%TO.N,unconnected-(U1-EN-Pad2)*%
X65240000Y-54460000D03*
%TO.P,U1,3,SVP*%
%TO.N,unconnected-(U1-SVP-Pad3)*%
X67780000Y-54460000D03*
%TO.P,U1,4,SVN*%
%TO.N,unconnected-(U1-SVN-Pad4)*%
X70320000Y-54460000D03*
%TO.P,U1,5,IO34*%
%TO.N,unconnected-(U1-IO34-Pad5)*%
X72860000Y-54460000D03*
%TO.P,U1,6,IO35*%
%TO.N,unconnected-(U1-IO35-Pad6)*%
X75400000Y-54460000D03*
%TO.P,U1,7,IO32*%
%TO.N,/IN4*%
X77940000Y-54460000D03*
%TO.P,U1,8,IO33*%
%TO.N,/IN3*%
X80480000Y-54460000D03*
%TO.P,U1,9,IO25*%
%TO.N,/IN2*%
X83020000Y-54460000D03*
%TO.P,U1,10,IO26*%
%TO.N,/IN1*%
X85560000Y-54460000D03*
%TO.P,U1,11,IO27*%
%TO.N,unconnected-(U1-IO27-Pad11)*%
X88100000Y-54460000D03*
%TO.P,U1,12,IO14*%
%TO.N,unconnected-(U1-IO14-Pad12)*%
X90640000Y-54460000D03*
%TO.P,U1,13,IO12*%
%TO.N,unconnected-(U1-IO12-Pad13)*%
X93180000Y-54460000D03*
%TO.P,U1,14,GND*%
%TO.N,GND*%
X95720000Y-54460000D03*
%TO.P,U1,15,IO13*%
%TO.N,unconnected-(U1-IO13-Pad15)*%
X98260000Y-54460000D03*
%TO.P,U1,16,SD2*%
%TO.N,unconnected-(U1-SD2-Pad16)*%
X100800000Y-54460000D03*
%TO.P,U1,17,SD3*%
%TO.N,unconnected-(U1-SD3-Pad17)*%
X103340000Y-54460000D03*
%TO.P,U1,18,CMD*%
%TO.N,unconnected-(U1-CMD-Pad18)*%
X105880000Y-54460000D03*
%TO.P,U1,19,>vin*%
%TO.N,+5V*%
X108420000Y-54460000D03*
%TO.P,U1,20,CLK*%
%TO.N,unconnected-(U1-CLK-Pad20)*%
X108420000Y-31600000D03*
%TO.P,U1,21,SD0*%
%TO.N,unconnected-(U1-SD0-Pad21)*%
X105880000Y-31600000D03*
%TO.P,U1,22,SD1*%
%TO.N,unconnected-(U1-SD1-Pad22)*%
X103340000Y-31600000D03*
%TO.P,U1,23,IO15*%
%TO.N,unconnected-(U1-IO15-Pad23)*%
X100800000Y-31600000D03*
%TO.P,U1,24,IO02*%
%TO.N,unconnected-(U1-IO02-Pad24)*%
X98260000Y-31600000D03*
%TO.P,U1,25,IO0*%
%TO.N,unconnected-(U1-IO0-Pad25)*%
X95720000Y-31600000D03*
%TO.P,U1,26,IO4*%
%TO.N,unconnected-(U1-IO4-Pad26)*%
X93180000Y-31600000D03*
%TO.P,U1,27,IO16*%
%TO.N,unconnected-(U1-IO16-Pad27)*%
X90640000Y-31600000D03*
%TO.P,U1,28,IO17*%
%TO.N,unconnected-(U1-IO17-Pad28)*%
X88100000Y-31600000D03*
%TO.P,U1,29,IO5*%
%TO.N,/pin_Red*%
X85560000Y-31600000D03*
%TO.P,U1,30,IO18*%
%TO.N,/pin_Green*%
X83020000Y-31600000D03*
%TO.P,U1,31,IO19*%
%TO.N,/pin_Blue*%
X80480000Y-31600000D03*
%TO.P,U1,32,GND*%
%TO.N,GND*%
X77940000Y-31600000D03*
%TO.P,U1,33,IO21*%
%TO.N,unconnected-(U1-IO21-Pad33)*%
X75400000Y-31600000D03*
%TO.P,U1,34,RXD0*%
%TO.N,unconnected-(U1-RXD0-Pad34)*%
X72860000Y-31600000D03*
%TO.P,U1,35,TXD0*%
%TO.N,unconnected-(U1-TXD0-Pad35)*%
X70320000Y-31600000D03*
%TO.P,U1,36,IO22*%
%TO.N,unconnected-(U1-IO22-Pad36)*%
X67780000Y-31600000D03*
%TO.P,U1,37,IO23*%
%TO.N,unconnected-(U1-IO23-Pad37)*%
X65240000Y-31600000D03*
%TO.P,U1,38,GND*%
%TO.N,GND*%
X62700000Y-31600000D03*
%TD*%
D12*
%TO.P,D2,1,A*%
%TO.N,GND*%
X67520000Y-63700000D03*
D14*
%TO.P,D2,2,K*%
%TO.N,Net-(D1-A)*%
X77680000Y-63700000D03*
%TD*%
D12*
%TO.P,hole_2mm,1*%
%TO.N,N/C*%
X41800000Y-31800000D03*
%TD*%
%TO.P,R7,1*%
%TO.N,/pin_Blue*%
X57670000Y-42510000D03*
%TO.P,R7,2*%
%TO.N,/Blue_1*%
X57670000Y-34890000D03*
%TD*%
%TO.P,hole_2mm,1*%
%TO.N,N/C*%
X41900000Y-77600000D03*
%TD*%
D15*
%TO.P,J6,1,Pin_1*%
%TO.N,/Red_2*%
X50880000Y-56200000D03*
D16*
%TO.P,J6,2,Pin_2*%
%TO.N,GND*%
X53420000Y-56200000D03*
%TO.P,J6,3,Pin_3*%
%TO.N,/Green_2*%
X55960000Y-56200000D03*
%TO.P,J6,4,Pin_4*%
%TO.N,/Blue_2*%
X58500000Y-56200000D03*
%TD*%
D17*
%TO.P,U3,1,IN*%
%TO.N,VCC*%
X52090000Y-67400000D03*
%TO.P,U3,2,GND*%
%TO.N,GND*%
X55900000Y-67400000D03*
%TO.P,U3,3,OUT*%
%TO.N,+5V*%
X59710000Y-67400000D03*
%TD*%
D18*
%TO.P,SW1,1,A*%
%TO.N,unconnected-(SW1-A-Pad1)*%
X45400000Y-47000000D03*
%TO.P,SW1,2,B*%
%TO.N,Net-(SW1-B)*%
X45400000Y-51700000D03*
%TO.P,SW1,3,C*%
%TO.N,VCC*%
X45400000Y-56400000D03*
%TD*%
D15*
%TO.P,J4,1,Pin_1*%
%TO.N,/Red_1*%
X49560000Y-32200000D03*
D16*
%TO.P,J4,2,Pin_2*%
%TO.N,GND*%
X52100000Y-32200000D03*
%TO.P,J4,3,Pin_3*%
%TO.N,/Green_1*%
X54640000Y-32200000D03*
%TO.P,J4,4,Pin_4*%
%TO.N,/Blue_1*%
X57180000Y-32200000D03*
%TD*%
D12*
%TO.P,R1,1*%
%TO.N,+5V*%
X63830000Y-69210000D03*
%TO.P,R1,2*%
%TO.N,Net-(D9-A)*%
X63830000Y-61590000D03*
%TD*%
%TO.P,R3,1*%
%TO.N,/pin_Green*%
X54668000Y-45290000D03*
%TO.P,R3,2*%
%TO.N,/Green_2*%
X54668000Y-52910000D03*
%TD*%
D19*
%TO.P,J3,1*%
%TO.N,Net-(SW1-B)*%
X44900000Y-62100000D03*
%TO.P,J3,2*%
%TO.N,GND*%
X44900000Y-67180000D03*
%TD*%
D12*
%TO.P,hole_2mm,1*%
%TO.N,N/C*%
X108000000Y-78000000D03*
%TD*%
D20*
%TO.P,C3,1*%
%TO.N,+5V*%
X59710000Y-62970000D03*
%TO.P,C3,2*%
%TO.N,GND*%
X59710000Y-60430000D03*
%TD*%
D12*
%TO.P,D6,1,A*%
%TO.N,GND*%
X67520000Y-70200000D03*
D14*
%TO.P,D6,2,K*%
%TO.N,Net-(D5-A)*%
X77680000Y-70200000D03*
%TD*%
D21*
%TO.P,C1,1*%
%TO.N,VCC*%
X81100000Y-77800000D03*
D22*
%TO.P,C1,2*%
%TO.N,GND*%
X79100000Y-77800000D03*
%TD*%
D23*
%TO.P,U4,1,SENSE_A*%
%TO.N,GND*%
X103900000Y-58460000D03*
D24*
%TO.P,U4,2,OUT1*%
%TO.N,Net-(D3-A)*%
X98820000Y-59730000D03*
%TO.P,U4,3,OUT2*%
%TO.N,Net-(D1-A)*%
X103900000Y-61000000D03*
%TO.P,U4,4,Vs*%
%TO.N,VCC*%
X98820000Y-62270000D03*
%TO.P,U4,5,IN1*%
%TO.N,/IN1*%
X103900000Y-63540000D03*
%TO.P,U4,6,EnA*%
%TO.N,+5V*%
X98820000Y-64810000D03*
%TO.P,U4,7,IN2*%
%TO.N,/IN2*%
X103900000Y-66080000D03*
%TO.P,U4,8,GND*%
%TO.N,GND*%
X98820000Y-67350000D03*
%TO.P,U4,9,Vss*%
%TO.N,+5V*%
X103900000Y-68620000D03*
%TO.P,U4,10,IN3*%
%TO.N,/IN3*%
X98820000Y-69890000D03*
%TO.P,U4,11,EnB*%
%TO.N,+5V*%
X103900000Y-71160000D03*
%TO.P,U4,12,IN4*%
%TO.N,/IN4*%
X98820000Y-72430000D03*
%TO.P,U4,13,OUT3*%
%TO.N,Net-(D7-A)*%
X103900000Y-73700000D03*
%TO.P,U4,14,OUT4*%
%TO.N,Net-(D5-A)*%
X98820000Y-74970000D03*
%TO.P,U4,15,SENSE_B*%
%TO.N,GND*%
X103900000Y-76240000D03*
%TD*%
D12*
%TO.P,D3,1,A*%
%TO.N,Net-(D3-A)*%
X81520000Y-66900000D03*
D14*
%TO.P,D3,2,K*%
%TO.N,VCC*%
X91680000Y-66900000D03*
%TD*%
D12*
%TO.P,D1,1,A*%
%TO.N,Net-(D1-A)*%
X81520000Y-63700000D03*
D14*
%TO.P,D1,2,K*%
%TO.N,VCC*%
X91680000Y-63700000D03*
%TD*%
D12*
%TO.P,D4,1,A*%
%TO.N,GND*%
X67520000Y-66900000D03*
D14*
%TO.P,D4,2,K*%
%TO.N,Net-(D3-A)*%
X77680000Y-66900000D03*
%TD*%
D19*
%TO.P,J7,1*%
%TO.N,Net-(D7-A)*%
X46620000Y-75676250D03*
%TO.P,J7,2*%
%TO.N,Net-(D5-A)*%
X51700000Y-75676250D03*
%TD*%
D12*
%TO.P,R5,1*%
%TO.N,/pin_Red*%
X51606000Y-42510000D03*
%TO.P,R5,2*%
%TO.N,/Red_1*%
X51606000Y-34890000D03*
%TD*%
%TO.P,R2,1*%
%TO.N,/pin_Red*%
X51636000Y-45290000D03*
%TO.P,R2,2*%
%TO.N,/Red_2*%
X51636000Y-52910000D03*
%TD*%
%TO.P,D8,1,A*%
%TO.N,GND*%
X67520000Y-73600000D03*
D14*
%TO.P,D8,2,K*%
%TO.N,Net-(D7-A)*%
X77680000Y-73600000D03*
%TD*%
D20*
%TO.P,C2,1*%
%TO.N,VCC*%
X52110000Y-63070000D03*
%TO.P,C2,2*%
%TO.N,GND*%
X52110000Y-60530000D03*
%TD*%
D12*
%TO.P,R6,1*%
%TO.N,/pin_Green*%
X54638000Y-42510000D03*
%TO.P,R6,2*%
%TO.N,/Green_1*%
X54638000Y-34890000D03*
%TD*%
D25*
%TO.P,D9,1,K*%
%TO.N,GND*%
X66370000Y-58182500D03*
D26*
%TO.P,D9,2,A*%
%TO.N,Net-(D9-A)*%
X63830000Y-58182500D03*
%TD*%
D12*
%TO.P,D7,1,A*%
%TO.N,Net-(D7-A)*%
X81520000Y-73600000D03*
D14*
%TO.P,D7,2,K*%
%TO.N,VCC*%
X91680000Y-73600000D03*
%TD*%
D19*
%TO.P,J5,1*%
%TO.N,Net-(D3-A)*%
X57620000Y-75676250D03*
%TO.P,J5,2*%
%TO.N,Net-(D1-A)*%
X62700000Y-75676250D03*
%TD*%
D12*
%TO.P,D5,1,A*%
%TO.N,Net-(D5-A)*%
X81520000Y-70200000D03*
D14*
%TO.P,D5,2,K*%
%TO.N,VCC*%
X91680000Y-70200000D03*
%TD*%
D27*
%TO.N,GND*%
X47000000Y-36700000D03*
%TD*%
D28*
%TO.N,VCC*%
X81100000Y-76300000D02*
X81100000Y-77800000D01*
X52090000Y-70990000D02*
X53100000Y-72000000D01*
X91680000Y-73600000D02*
X91680000Y-63700000D01*
X65600000Y-76400000D02*
X66800000Y-77600000D01*
X63600000Y-72000000D02*
X65600000Y-74000000D01*
X91680000Y-63700000D02*
X94300000Y-63700000D01*
X75500000Y-77600000D02*
X77300000Y-75800000D01*
X95730000Y-62270000D02*
X98820000Y-62270000D01*
X52090000Y-67400000D02*
X52090000Y-70990000D01*
X80600000Y-75800000D02*
X81100000Y-76300000D01*
X94300000Y-63700000D02*
X95730000Y-62270000D01*
X53100000Y-72000000D02*
X63600000Y-72000000D01*
X65600000Y-74000000D02*
X65600000Y-76400000D01*
X66800000Y-77600000D02*
X75500000Y-77600000D01*
X77300000Y-75800000D02*
X80600000Y-75800000D01*
%TO.N,Net-(D1-A)*%
X90200000Y-57400000D02*
X100100000Y-57400000D01*
X81520000Y-63700000D02*
X83900000Y-63700000D01*
X83900000Y-63700000D02*
X90200000Y-57400000D01*
X101100000Y-60200000D02*
X101900000Y-61000000D01*
X101900000Y-61000000D02*
X103900000Y-61000000D01*
X100100000Y-57400000D02*
X101100000Y-58400000D01*
X101100000Y-58400000D02*
X101100000Y-60200000D01*
X77680000Y-63700000D02*
X81520000Y-63700000D01*
%TO.N,+5V*%
X100600000Y-65100000D02*
X100310000Y-64810000D01*
X100310000Y-64810000D02*
X98820000Y-64810000D01*
X101100000Y-67500000D02*
X101100000Y-65700000D01*
X103900000Y-68620000D02*
X102220000Y-68620000D01*
X102220000Y-68620000D02*
X101100000Y-67500000D01*
X101100000Y-65700000D02*
X100600000Y-65200000D01*
X100600000Y-65200000D02*
X100600000Y-65100000D01*
%TO.N,Net-(D3-A)*%
X98820000Y-59730000D02*
X92001020Y-59730000D01*
X84831020Y-66900000D02*
X81520000Y-66900000D01*
X92001020Y-59730000D02*
X84831020Y-66900000D01*
X81520000Y-66900000D02*
X77680000Y-66900000D01*
%TO.N,Net-(D5-A)*%
X90700000Y-76200000D02*
X84700000Y-70200000D01*
X97230000Y-74970000D02*
X96000000Y-76200000D01*
X77680000Y-70200000D02*
X81520000Y-70200000D01*
X96000000Y-76200000D02*
X90700000Y-76200000D01*
X84700000Y-70200000D02*
X81520000Y-70200000D01*
X98820000Y-74970000D02*
X97230000Y-74970000D01*
%TO.N,Net-(D7-A)*%
X101700000Y-73700000D02*
X103900000Y-73700000D01*
X89000000Y-78100000D02*
X99500000Y-78100000D01*
X81520000Y-73600000D02*
X77680000Y-73600000D01*
X81520000Y-73600000D02*
X84500000Y-73600000D01*
X84500000Y-73600000D02*
X89000000Y-78100000D01*
X101200000Y-74200000D02*
X101700000Y-73700000D01*
X99500000Y-78100000D02*
X101200000Y-76400000D01*
X101200000Y-76400000D02*
X101200000Y-74200000D01*
%TD*%
%TA.AperFunction,Conductor*%
%TO.N,GND*%
G36*
X61877477Y-30015967D02*
G01*
X61953135Y-30060446D01*
X62008661Y-30128412D01*
X62037158Y-30211420D01*
X62035085Y-30299160D01*
X62002699Y-30380730D01*
X61944025Y-30445997D01*
X61919016Y-30465461D01*
X62700000Y-31246445D01*
X63480982Y-30465462D01*
X63480982Y-30465460D01*
X63455972Y-30445994D01*
X63397299Y-30380727D01*
X63364915Y-30299157D01*
X63362842Y-30211418D01*
X63391339Y-30128410D01*
X63446866Y-30060445D01*
X63522523Y-30015967D01*
X63608913Y-30000500D01*
X64330273Y-30000500D01*
X64416663Y-30015967D01*
X64492321Y-30060446D01*
X64547847Y-30128411D01*
X64576344Y-30211419D01*
X64574271Y-30299158D01*
X64541886Y-30380728D01*
X64483214Y-30445994D01*
X64460924Y-30463342D01*
X64305207Y-30584542D01*
X64150455Y-30752648D01*
X64090271Y-30800497D01*
X64018358Y-30827705D01*
X63941573Y-30831676D01*
X63833125Y-30820428D01*
X63053553Y-31600000D01*
X63833124Y-32379570D01*
X63941571Y-32368323D01*
X64018356Y-32372293D01*
X64090270Y-32399501D01*
X64150454Y-32447351D01*
X64261958Y-32568477D01*
X64305206Y-32615456D01*
X64485094Y-32755469D01*
X64485097Y-32755471D01*
X64485099Y-32755472D01*
X64685574Y-32863963D01*
X64899755Y-32937492D01*
X64901177Y-32937980D01*
X65126023Y-32975500D01*
X65353977Y-32975500D01*
X65578823Y-32937980D01*
X65794426Y-32863963D01*
X65994906Y-32755469D01*
X66174794Y-32615456D01*
X66326805Y-32450327D01*
X66391489Y-32399983D01*
X66469016Y-32373368D01*
X66550984Y-32373368D01*
X66628511Y-32399983D01*
X66693194Y-32450327D01*
X66845206Y-32615456D01*
X67025094Y-32755469D01*
X67025097Y-32755471D01*
X67025099Y-32755472D01*
X67225574Y-32863963D01*
X67439755Y-32937492D01*
X67441177Y-32937980D01*
X67666023Y-32975500D01*
X67893977Y-32975500D01*
X68118823Y-32937980D01*
X68334426Y-32863963D01*
X68534906Y-32755469D01*
X68714794Y-32615456D01*
X68866805Y-32450327D01*
X68931489Y-32399983D01*
X69009016Y-32373368D01*
X69090984Y-32373368D01*
X69168511Y-32399983D01*
X69233194Y-32450327D01*
X69385206Y-32615456D01*
X69565094Y-32755469D01*
X69565097Y-32755471D01*
X69565099Y-32755472D01*
X69765574Y-32863963D01*
X69979755Y-32937492D01*
X69981177Y-32937980D01*
X70206023Y-32975500D01*
X70433977Y-32975500D01*
X70658823Y-32937980D01*
X70874426Y-32863963D01*
X71074906Y-32755469D01*
X71254794Y-32615456D01*
X71406805Y-32450327D01*
X71471489Y-32399983D01*
X71549016Y-32373368D01*
X71630984Y-32373368D01*
X71708511Y-32399983D01*
X71773194Y-32450327D01*
X71925206Y-32615456D01*
X72105094Y-32755469D01*
X72105097Y-32755471D01*
X72105099Y-32755472D01*
X72305574Y-32863963D01*
X72519755Y-32937492D01*
X72521177Y-32937980D01*
X72746023Y-32975500D01*
X72973977Y-32975500D01*
X73198823Y-32937980D01*
X73414426Y-32863963D01*
X73614906Y-32755469D01*
X73794794Y-32615456D01*
X73946805Y-32450327D01*
X74011489Y-32399983D01*
X74089016Y-32373368D01*
X74170984Y-32373368D01*
X74248511Y-32399983D01*
X74313194Y-32450327D01*
X74465206Y-32615456D01*
X74645094Y-32755469D01*
X74645097Y-32755471D01*
X74645099Y-32755472D01*
X74845574Y-32863963D01*
X75059755Y-32937492D01*
X75061177Y-32937980D01*
X75286023Y-32975500D01*
X75513977Y-32975500D01*
X75738823Y-32937980D01*
X75954426Y-32863963D01*
X76154906Y-32755469D01*
X76181801Y-32734536D01*
X77159015Y-32734536D01*
X77185373Y-32755051D01*
X77385774Y-32863502D01*
X77601298Y-32937492D01*
X77826065Y-32975000D01*
X78053935Y-32975000D01*
X78278701Y-32937492D01*
X78494225Y-32863502D01*
X78694630Y-32755049D01*
X78720983Y-32734537D01*
X78720983Y-32734536D01*
X77940000Y-31953553D01*
X77159015Y-32734536D01*
X76181801Y-32734536D01*
X76334794Y-32615456D01*
X76489183Y-32447745D01*
X76489182Y-32447745D01*
X76489545Y-32447352D01*
X76549729Y-32399502D01*
X76621642Y-32372294D01*
X76698427Y-32368324D01*
X76806873Y-32379571D01*
X77586445Y-31600000D01*
X76806873Y-30820428D01*
X76698426Y-30831676D01*
X76621641Y-30827705D01*
X76549728Y-30800497D01*
X76489544Y-30752647D01*
X76334795Y-30584545D01*
X76245725Y-30515219D01*
X76156786Y-30445994D01*
X76098114Y-30380728D01*
X76065729Y-30299158D01*
X76063656Y-30211419D01*
X76092153Y-30128411D01*
X76147679Y-30060446D01*
X76223337Y-30015967D01*
X76309727Y-30000500D01*
X77031087Y-30000500D01*
X77117477Y-30015967D01*
X77193135Y-30060446D01*
X77248661Y-30128412D01*
X77277158Y-30211420D01*
X77275085Y-30299160D01*
X77242699Y-30380730D01*
X77184025Y-30445997D01*
X77159016Y-30465461D01*
X77940000Y-31246445D01*
X78720982Y-30465462D01*
X78720982Y-30465460D01*
X78695972Y-30445994D01*
X78637299Y-30380727D01*
X78604915Y-30299157D01*
X78602842Y-30211418D01*
X78631339Y-30128410D01*
X78686866Y-30060445D01*
X78762523Y-30015967D01*
X78848913Y-30000500D01*
X79570273Y-30000500D01*
X79656663Y-30015967D01*
X79732321Y-30060446D01*
X79787847Y-30128411D01*
X79816344Y-30211419D01*
X79814271Y-30299158D01*
X79781886Y-30380728D01*
X79723214Y-30445994D01*
X79700924Y-30463342D01*
X79545207Y-30584542D01*
X79390455Y-30752648D01*
X79330271Y-30800497D01*
X79258358Y-30827705D01*
X79181573Y-30831676D01*
X79073125Y-30820428D01*
X78293553Y-31600000D01*
X79073124Y-32379570D01*
X79181571Y-32368323D01*
X79258356Y-32372293D01*
X79330270Y-32399501D01*
X79390454Y-32447351D01*
X79501958Y-32568477D01*
X79545206Y-32615456D01*
X79725094Y-32755469D01*
X79725097Y-32755471D01*
X79725099Y-32755472D01*
X79925574Y-32863963D01*
X80139755Y-32937492D01*
X80141177Y-32937980D01*
X80366023Y-32975500D01*
X80593977Y-32975500D01*
X80818823Y-32937980D01*
X81034426Y-32863963D01*
X81234906Y-32755469D01*
X81414794Y-32615456D01*
X81566805Y-32450327D01*
X81631489Y-32399983D01*
X81709016Y-32373368D01*
X81790984Y-32373368D01*
X81868511Y-32399983D01*
X81933194Y-32450327D01*
X82085206Y-32615456D01*
X82265094Y-32755469D01*
X82265097Y-32755471D01*
X82265099Y-32755472D01*
X82465574Y-32863963D01*
X82679755Y-32937492D01*
X82681177Y-32937980D01*
X82906023Y-32975500D01*
X83133977Y-32975500D01*
X83358823Y-32937980D01*
X83574426Y-32863963D01*
X83774906Y-32755469D01*
X83954794Y-32615456D01*
X84106805Y-32450327D01*
X84171489Y-32399983D01*
X84249016Y-32373368D01*
X84330984Y-32373368D01*
X84408511Y-32399983D01*
X84473194Y-32450327D01*
X84625206Y-32615456D01*
X84805094Y-32755469D01*
X84805097Y-32755471D01*
X84805099Y-32755472D01*
X85005574Y-32863963D01*
X85219755Y-32937492D01*
X85221177Y-32937980D01*
X85446023Y-32975500D01*
X85673977Y-32975500D01*
X85898823Y-32937980D01*
X86114426Y-32863963D01*
X86314906Y-32755469D01*
X86494794Y-32615456D01*
X86646805Y-32450327D01*
X86711489Y-32399983D01*
X86789016Y-32373368D01*
X86870984Y-32373368D01*
X86948511Y-32399983D01*
X87013194Y-32450327D01*
X87165206Y-32615456D01*
X87345094Y-32755469D01*
X87345097Y-32755471D01*
X87345099Y-32755472D01*
X87545574Y-32863963D01*
X87759755Y-32937492D01*
X87761177Y-32937980D01*
X87986023Y-32975500D01*
X88213977Y-32975500D01*
X88438823Y-32937980D01*
X88654426Y-32863963D01*
X88854906Y-32755469D01*
X89034794Y-32615456D01*
X89186805Y-32450327D01*
X89251489Y-32399983D01*
X89329016Y-32373368D01*
X89410984Y-32373368D01*
X89488511Y-32399983D01*
X89553194Y-32450327D01*
X89705206Y-32615456D01*
X89885094Y-32755469D01*
X89885097Y-32755471D01*
X89885099Y-32755472D01*
X90085574Y-32863963D01*
X90299755Y-32937492D01*
X90301177Y-32937980D01*
X90526023Y-32975500D01*
X90753977Y-32975500D01*
X90978823Y-32937980D01*
X91194426Y-32863963D01*
X91394906Y-32755469D01*
X91574794Y-32615456D01*
X91726805Y-32450327D01*
X91791489Y-32399983D01*
X91869016Y-32373368D01*
X91950984Y-32373368D01*
X92028511Y-32399983D01*
X92093194Y-32450327D01*
X92245206Y-32615456D01*
X92425094Y-32755469D01*
X92425097Y-32755471D01*
X92425099Y-32755472D01*
X92625574Y-32863963D01*
X92839755Y-32937492D01*
X92841177Y-32937980D01*
X93066023Y-32975500D01*
X93293977Y-32975500D01*
X93518823Y-32937980D01*
X93734426Y-32863963D01*
X93934906Y-32755469D01*
X94114794Y-32615456D01*
X94266805Y-32450327D01*
X94331489Y-32399983D01*
X94409016Y-32373368D01*
X94490984Y-32373368D01*
X94568511Y-32399983D01*
X94633194Y-32450327D01*
X94785206Y-32615456D01*
X94965094Y-32755469D01*
X94965097Y-32755471D01*
X94965099Y-32755472D01*
X95165574Y-32863963D01*
X95379755Y-32937492D01*
X95381177Y-32937980D01*
X95606023Y-32975500D01*
X95833977Y-32975500D01*
X96058823Y-32937980D01*
X96274426Y-32863963D01*
X96474906Y-32755469D01*
X96654794Y-32615456D01*
X96806805Y-32450327D01*
X96871489Y-32399983D01*
X96949016Y-32373368D01*
X97030984Y-32373368D01*
X97108511Y-32399983D01*
X97173194Y-32450327D01*
X97325206Y-32615456D01*
X97505094Y-32755469D01*
X97505097Y-32755471D01*
X97505099Y-32755472D01*
X97705574Y-32863963D01*
X97919755Y-32937492D01*
X97921177Y-32937980D01*
X98146023Y-32975500D01*
X98373977Y-32975500D01*
X98598823Y-32937980D01*
X98814426Y-32863963D01*
X99014906Y-32755469D01*
X99194794Y-32615456D01*
X99346805Y-32450327D01*
X99411489Y-32399983D01*
X99489016Y-32373368D01*
X99570984Y-32373368D01*
X99648511Y-32399983D01*
X99713194Y-32450327D01*
X99865206Y-32615456D01*
X100045094Y-32755469D01*
X100045097Y-32755471D01*
X100045099Y-32755472D01*
X100245574Y-32863963D01*
X100459755Y-32937492D01*
X100461177Y-32937980D01*
X100686023Y-32975500D01*
X100913977Y-32975500D01*
X101138823Y-32937980D01*
X101354426Y-32863963D01*
X101554906Y-32755469D01*
X101734794Y-32615456D01*
X101886805Y-32450327D01*
X101951489Y-32399983D01*
X102029016Y-32373368D01*
X102110984Y-32373368D01*
X102188511Y-32399983D01*
X102253194Y-32450327D01*
X102405206Y-32615456D01*
X102585094Y-32755469D01*
X102585097Y-32755471D01*
X102585099Y-32755472D01*
X102785574Y-32863963D01*
X102999755Y-32937492D01*
X103001177Y-32937980D01*
X103226023Y-32975500D01*
X103453977Y-32975500D01*
X103678823Y-32937980D01*
X103894426Y-32863963D01*
X104094906Y-32755469D01*
X104274794Y-32615456D01*
X104426805Y-32450327D01*
X104491489Y-32399983D01*
X104569016Y-32373368D01*
X104650984Y-32373368D01*
X104728511Y-32399983D01*
X104793194Y-32450327D01*
X104945206Y-32615456D01*
X105125094Y-32755469D01*
X105125097Y-32755471D01*
X105125099Y-32755472D01*
X105325574Y-32863963D01*
X105539755Y-32937492D01*
X105541177Y-32937980D01*
X105766023Y-32975500D01*
X105993977Y-32975500D01*
X106218823Y-32937980D01*
X106434426Y-32863963D01*
X106634906Y-32755469D01*
X106814794Y-32615456D01*
X106966805Y-32450327D01*
X107031489Y-32399983D01*
X107109016Y-32373368D01*
X107190984Y-32373368D01*
X107268511Y-32399983D01*
X107333194Y-32450327D01*
X107485206Y-32615456D01*
X107665094Y-32755469D01*
X107665097Y-32755471D01*
X107665099Y-32755472D01*
X107865574Y-32863963D01*
X108079755Y-32937492D01*
X108081177Y-32937980D01*
X108306023Y-32975500D01*
X108533977Y-32975500D01*
X108758823Y-32937980D01*
X108974426Y-32863963D01*
X109174906Y-32755469D01*
X109354794Y-32615456D01*
X109509183Y-32447745D01*
X109520093Y-32431046D01*
X109542046Y-32397446D01*
X109604618Y-32331846D01*
X109686528Y-32292994D01*
X109776918Y-32286041D01*
X109863806Y-32311909D01*
X109935674Y-32367168D01*
X109982997Y-32444494D01*
X109999500Y-32533636D01*
X109999500Y-53526364D01*
X109982997Y-53615506D01*
X109935674Y-53692832D01*
X109863806Y-53748091D01*
X109776918Y-53773959D01*
X109686528Y-53767006D01*
X109604618Y-53728154D01*
X109542046Y-53662554D01*
X109509186Y-53612259D01*
X109509184Y-53612257D01*
X109509183Y-53612255D01*
X109354794Y-53444544D01*
X109174906Y-53304531D01*
X109174903Y-53304529D01*
X109174900Y-53304527D01*
X108974425Y-53196036D01*
X108758825Y-53122020D01*
X108533977Y-53084500D01*
X108306023Y-53084500D01*
X108081174Y-53122020D01*
X107865574Y-53196036D01*
X107665099Y-53304527D01*
X107638203Y-53325461D01*
X107524714Y-53413794D01*
X107485201Y-53444548D01*
X107333194Y-53609671D01*
X107268510Y-53660016D01*
X107190984Y-53686631D01*
X107109016Y-53686631D01*
X107031490Y-53660016D01*
X106966806Y-53609671D01*
X106814798Y-53444548D01*
X106814796Y-53444547D01*
X106814794Y-53444544D01*
X106634906Y-53304531D01*
X106634903Y-53304529D01*
X106634900Y-53304527D01*
X106434425Y-53196036D01*
X106218825Y-53122020D01*
X105993977Y-53084500D01*
X105766023Y-53084500D01*
X105541174Y-53122020D01*
X105325574Y-53196036D01*
X105125099Y-53304527D01*
X105098203Y-53325461D01*
X104984714Y-53413794D01*
X104945201Y-53444548D01*
X104793194Y-53609671D01*
X104728510Y-53660016D01*
X104650984Y-53686631D01*
X104569016Y-53686631D01*
X104491490Y-53660016D01*
X104426806Y-53609671D01*
X104274798Y-53444548D01*
X104274796Y-53444547D01*
X104274794Y-53444544D01*
X104094906Y-53304531D01*
X104094903Y-53304529D01*
X104094900Y-53304527D01*
X103894425Y-53196036D01*
X103678825Y-53122020D01*
X103453977Y-53084500D01*
X103226023Y-53084500D01*
X103001174Y-53122020D01*
X102785574Y-53196036D01*
X102585099Y-53304527D01*
X102558203Y-53325461D01*
X102444714Y-53413794D01*
X102405201Y-53444548D01*
X102253194Y-53609671D01*
X102188510Y-53660016D01*
X102110984Y-53686631D01*
X102029016Y-53686631D01*
X101951490Y-53660016D01*
X101886806Y-53609671D01*
X101734798Y-53444548D01*
X101734796Y-53444547D01*
X101734794Y-53444544D01*
X101554906Y-53304531D01*
X101554903Y-53304529D01*
X101554900Y-53304527D01*
X101354425Y-53196036D01*
X101138825Y-53122020D01*
X100913977Y-53084500D01*
X100686023Y-53084500D01*
X100461174Y-53122020D01*
X100245574Y-53196036D01*
X100045099Y-53304527D01*
X100018203Y-53325461D01*
X99904714Y-53413794D01*
X99865201Y-53444548D01*
X99713194Y-53609671D01*
X99648510Y-53660016D01*
X99570984Y-53686631D01*
X99489016Y-53686631D01*
X99411490Y-53660016D01*
X99346806Y-53609671D01*
X99194798Y-53444548D01*
X99194796Y-53444547D01*
X99194794Y-53444544D01*
X99014906Y-53304531D01*
X99014903Y-53304529D01*
X99014900Y-53304527D01*
X98814425Y-53196036D01*
X98598825Y-53122020D01*
X98373977Y-53084500D01*
X98146023Y-53084500D01*
X97921174Y-53122020D01*
X97705574Y-53196036D01*
X97505099Y-53304527D01*
X97478203Y-53325461D01*
X97364714Y-53413794D01*
X97325205Y-53444545D01*
X97170455Y-53612648D01*
X97110271Y-53660497D01*
X97038358Y-53687705D01*
X96961573Y-53691676D01*
X96853124Y-53680428D01*
X96073553Y-54459998D01*
X96853125Y-55239570D01*
X96961571Y-55228323D01*
X97038356Y-55232293D01*
X97110270Y-55259501D01*
X97170454Y-55307351D01*
X97170816Y-55307744D01*
X97170817Y-55307745D01*
X97325206Y-55475456D01*
X97505094Y-55615469D01*
X97505097Y-55615471D01*
X97505099Y-55615472D01*
X97705574Y-55723963D01*
X97897908Y-55789992D01*
X97974025Y-55832207D01*
X98030962Y-55898041D01*
X98061763Y-55979449D01*
X98062662Y-56066484D01*
X98033551Y-56148511D01*
X97977986Y-56215508D01*
X97902758Y-56259287D01*
X97817058Y-56274500D01*
X96161401Y-56274500D01*
X96075701Y-56259287D01*
X96000473Y-56215508D01*
X95944908Y-56148512D01*
X95915797Y-56066484D01*
X95916696Y-55979449D01*
X95947496Y-55898041D01*
X96004433Y-55832207D01*
X96080550Y-55789992D01*
X96274225Y-55723502D01*
X96474630Y-55615049D01*
X96500983Y-55594537D01*
X96500983Y-55594536D01*
X95720000Y-54813553D01*
X94939015Y-55594536D01*
X94965373Y-55615051D01*
X95165774Y-55723502D01*
X95359450Y-55789992D01*
X95435567Y-55832207D01*
X95492504Y-55898041D01*
X95523304Y-55979449D01*
X95524203Y-56066484D01*
X95495092Y-56148512D01*
X95439527Y-56215508D01*
X95364299Y-56259287D01*
X95278599Y-56274500D01*
X93622942Y-56274500D01*
X93537242Y-56259287D01*
X93462014Y-56215508D01*
X93406449Y-56148511D01*
X93377338Y-56066484D01*
X93378237Y-55979449D01*
X93409038Y-55898041D01*
X93465975Y-55832207D01*
X93542092Y-55789992D01*
X93682763Y-55741699D01*
X93734426Y-55723963D01*
X93934906Y-55615469D01*
X94114794Y-55475456D01*
X94269183Y-55307745D01*
X94269184Y-55307744D01*
X94269545Y-55307352D01*
X94329729Y-55259502D01*
X94401642Y-55232294D01*
X94478427Y-55228324D01*
X94586872Y-55239571D01*
X95366445Y-54459998D01*
X94586874Y-53680428D01*
X94478426Y-53691676D01*
X94401641Y-53687705D01*
X94329728Y-53660497D01*
X94269544Y-53612647D01*
X94114797Y-53444547D01*
X94114796Y-53444546D01*
X94114794Y-53444544D01*
X93961797Y-53325461D01*
X94939016Y-53325461D01*
X95720000Y-54106445D01*
X96500982Y-53325462D01*
X96500982Y-53325460D01*
X96474635Y-53304953D01*
X96274220Y-53196495D01*
X96058701Y-53122507D01*
X95833935Y-53085000D01*
X95606065Y-53085000D01*
X95381298Y-53122507D01*
X95165779Y-53196495D01*
X94965367Y-53304951D01*
X94939016Y-53325461D01*
X93961797Y-53325461D01*
X93934906Y-53304531D01*
X93934903Y-53304529D01*
X93934900Y-53304527D01*
X93734425Y-53196036D01*
X93518825Y-53122020D01*
X93293977Y-53084500D01*
X93066023Y-53084500D01*
X92841174Y-53122020D01*
X92625574Y-53196036D01*
X92425099Y-53304527D01*
X92398203Y-53325461D01*
X92284714Y-53413794D01*
X92245201Y-53444548D01*
X92093194Y-53609671D01*
X92028510Y-53660016D01*
X91950984Y-53686631D01*
X91869016Y-53686631D01*
X91791490Y-53660016D01*
X91726806Y-53609671D01*
X91574798Y-53444548D01*
X91574796Y-53444547D01*
X91574794Y-53444544D01*
X91394906Y-53304531D01*
X91394903Y-53304529D01*
X91394900Y-53304527D01*
X91194425Y-53196036D01*
X90978825Y-53122020D01*
X90753977Y-53084500D01*
X90526023Y-53084500D01*
X90301174Y-53122020D01*
X90085574Y-53196036D01*
X89885099Y-53304527D01*
X89858203Y-53325461D01*
X89744714Y-53413794D01*
X89705201Y-53444548D01*
X89553194Y-53609671D01*
X89488510Y-53660016D01*
X89410984Y-53686631D01*
X89329016Y-53686631D01*
X89251490Y-53660016D01*
X89186806Y-53609671D01*
X89034798Y-53444548D01*
X89034796Y-53444547D01*
X89034794Y-53444544D01*
X88854906Y-53304531D01*
X88854903Y-53304529D01*
X88854900Y-53304527D01*
X88654425Y-53196036D01*
X88438825Y-53122020D01*
X88213977Y-53084500D01*
X87986023Y-53084500D01*
X87761174Y-53122020D01*
X87545574Y-53196036D01*
X87345099Y-53304527D01*
X87318203Y-53325461D01*
X87204714Y-53413794D01*
X87165201Y-53444548D01*
X87013194Y-53609671D01*
X86948510Y-53660016D01*
X86870984Y-53686631D01*
X86789016Y-53686631D01*
X86711490Y-53660016D01*
X86646806Y-53609671D01*
X86494798Y-53444548D01*
X86494796Y-53444547D01*
X86494794Y-53444544D01*
X86314906Y-53304531D01*
X86314903Y-53304529D01*
X86314900Y-53304527D01*
X86114425Y-53196036D01*
X85898825Y-53122020D01*
X85673977Y-53084500D01*
X85446023Y-53084500D01*
X85221174Y-53122020D01*
X85005574Y-53196036D01*
X84805099Y-53304527D01*
X84778203Y-53325461D01*
X84664714Y-53413794D01*
X84625201Y-53444548D01*
X84473194Y-53609671D01*
X84408510Y-53660016D01*
X84330984Y-53686631D01*
X84249016Y-53686631D01*
X84171490Y-53660016D01*
X84106806Y-53609671D01*
X83954798Y-53444548D01*
X83954796Y-53444547D01*
X83954794Y-53444544D01*
X83774906Y-53304531D01*
X83774903Y-53304529D01*
X83774900Y-53304527D01*
X83574425Y-53196036D01*
X83358825Y-53122020D01*
X83133977Y-53084500D01*
X82906023Y-53084500D01*
X82681174Y-53122020D01*
X82465574Y-53196036D01*
X82265099Y-53304527D01*
X82238203Y-53325461D01*
X82124714Y-53413794D01*
X82085201Y-53444548D01*
X81933194Y-53609671D01*
X81868510Y-53660016D01*
X81790984Y-53686631D01*
X81709016Y-53686631D01*
X81631490Y-53660016D01*
X81566806Y-53609671D01*
X81414798Y-53444548D01*
X81414796Y-53444547D01*
X81414794Y-53444544D01*
X81234906Y-53304531D01*
X81234903Y-53304529D01*
X81234900Y-53304527D01*
X81034425Y-53196036D01*
X80818825Y-53122020D01*
X80593977Y-53084500D01*
X80366023Y-53084500D01*
X80141174Y-53122020D01*
X79925574Y-53196036D01*
X79725099Y-53304527D01*
X79698203Y-53325461D01*
X79584714Y-53413794D01*
X79545201Y-53444548D01*
X79393194Y-53609671D01*
X79328510Y-53660016D01*
X79250984Y-53686631D01*
X79169016Y-53686631D01*
X79091490Y-53660016D01*
X79026806Y-53609671D01*
X78874798Y-53444548D01*
X78874796Y-53444547D01*
X78874794Y-53444544D01*
X78694906Y-53304531D01*
X78694903Y-53304529D01*
X78694900Y-53304527D01*
X78494425Y-53196036D01*
X78278825Y-53122020D01*
X78053977Y-53084500D01*
X77826023Y-53084500D01*
X77601174Y-53122020D01*
X77385574Y-53196036D01*
X77185099Y-53304527D01*
X77158203Y-53325461D01*
X77044714Y-53413794D01*
X77005201Y-53444548D01*
X76853194Y-53609671D01*
X76788510Y-53660016D01*
X76710984Y-53686631D01*
X76629016Y-53686631D01*
X76551490Y-53660016D01*
X76486806Y-53609671D01*
X76334798Y-53444548D01*
X76334796Y-53444547D01*
X76334794Y-53444544D01*
X76154906Y-53304531D01*
X76154903Y-53304529D01*
X76154900Y-53304527D01*
X75954425Y-53196036D01*
X75738825Y-53122020D01*
X75513977Y-53084500D01*
X75286023Y-53084500D01*
X75061174Y-53122020D01*
X74845574Y-53196036D01*
X74645099Y-53304527D01*
X74618203Y-53325461D01*
X74504714Y-53413794D01*
X74465201Y-53444548D01*
X74313194Y-53609671D01*
X74248510Y-53660016D01*
X74170984Y-53686631D01*
X74089016Y-53686631D01*
X74011490Y-53660016D01*
X73946806Y-53609671D01*
X73794798Y-53444548D01*
X73794796Y-53444547D01*
X73794794Y-53444544D01*
X73614906Y-53304531D01*
X73614903Y-53304529D01*
X73614900Y-53304527D01*
X73414425Y-53196036D01*
X73198825Y-53122020D01*
X72973977Y-53084500D01*
X72746023Y-53084500D01*
X72521174Y-53122020D01*
X72305574Y-53196036D01*
X72105099Y-53304527D01*
X72078203Y-53325461D01*
X71964714Y-53413794D01*
X71925201Y-53444548D01*
X71773194Y-53609671D01*
X71708510Y-53660016D01*
X71630984Y-53686631D01*
X71549016Y-53686631D01*
X71471490Y-53660016D01*
X71406806Y-53609671D01*
X71254798Y-53444548D01*
X71254796Y-53444547D01*
X71254794Y-53444544D01*
X71074906Y-53304531D01*
X71074903Y-53304529D01*
X71074900Y-53304527D01*
X70874425Y-53196036D01*
X70658825Y-53122020D01*
X70433977Y-53084500D01*
X70206023Y-53084500D01*
X69981174Y-53122020D01*
X69765574Y-53196036D01*
X69565099Y-53304527D01*
X69538203Y-53325461D01*
X69424714Y-53413794D01*
X69385201Y-53444548D01*
X69233194Y-53609671D01*
X69168510Y-53660016D01*
X69090984Y-53686631D01*
X69009016Y-53686631D01*
X68931490Y-53660016D01*
X68866806Y-53609671D01*
X68714798Y-53444548D01*
X68714796Y-53444547D01*
X68714794Y-53444544D01*
X68534906Y-53304531D01*
X68534903Y-53304529D01*
X68534900Y-53304527D01*
X68334425Y-53196036D01*
X68118825Y-53122020D01*
X67893977Y-53084500D01*
X67666023Y-53084500D01*
X67441174Y-53122020D01*
X67225574Y-53196036D01*
X67025099Y-53304527D01*
X66998203Y-53325461D01*
X66884714Y-53413794D01*
X66845201Y-53444548D01*
X66693194Y-53609671D01*
X66628510Y-53660016D01*
X66550984Y-53686631D01*
X66469016Y-53686631D01*
X66391490Y-53660016D01*
X66326806Y-53609671D01*
X66174798Y-53444548D01*
X66174796Y-53444547D01*
X66174794Y-53444544D01*
X65994906Y-53304531D01*
X65994903Y-53304529D01*
X65994900Y-53304527D01*
X65794425Y-53196036D01*
X65578825Y-53122020D01*
X65353977Y-53084500D01*
X65126023Y-53084500D01*
X64901174Y-53122020D01*
X64685574Y-53196036D01*
X64485099Y-53304527D01*
X64458203Y-53325461D01*
X64344714Y-53413794D01*
X64305201Y-53444548D01*
X64153194Y-53609671D01*
X64088510Y-53660016D01*
X64010984Y-53686631D01*
X63929016Y-53686631D01*
X63851490Y-53660016D01*
X63786806Y-53609671D01*
X63634798Y-53444548D01*
X63634796Y-53444547D01*
X63634794Y-53444544D01*
X63454906Y-53304531D01*
X63454903Y-53304529D01*
X63454900Y-53304527D01*
X63254425Y-53196036D01*
X63038825Y-53122020D01*
X62813977Y-53084500D01*
X62586023Y-53084500D01*
X62361174Y-53122020D01*
X62145574Y-53196036D01*
X61945099Y-53304527D01*
X61918203Y-53325461D01*
X61804714Y-53413794D01*
X61765205Y-53444545D01*
X61610816Y-53612255D01*
X61486134Y-53803096D01*
X61394571Y-54011839D01*
X61338610Y-54232823D01*
X61319786Y-54460000D01*
X61338610Y-54687176D01*
X61394571Y-54908160D01*
X61486134Y-55116903D01*
X61610813Y-55307740D01*
X61610817Y-55307745D01*
X61765206Y-55475456D01*
X61945094Y-55615469D01*
X61945097Y-55615471D01*
X61945099Y-55615472D01*
X62144722Y-55723502D01*
X62145574Y-55723963D01*
X62361177Y-55797980D01*
X62586023Y-55835500D01*
X62813977Y-55835500D01*
X63038823Y-55797980D01*
X63254426Y-55723963D01*
X63454906Y-55615469D01*
X63634794Y-55475456D01*
X63786805Y-55310327D01*
X63851489Y-55259983D01*
X63929016Y-55233368D01*
X64010984Y-55233368D01*
X64088511Y-55259983D01*
X64153194Y-55310327D01*
X64305206Y-55475456D01*
X64485094Y-55615469D01*
X64485097Y-55615471D01*
X64485099Y-55615472D01*
X64684722Y-55723502D01*
X64685574Y-55723963D01*
X64901177Y-55797980D01*
X65126023Y-55835500D01*
X65353977Y-55835500D01*
X65578823Y-55797980D01*
X65794426Y-55723963D01*
X65994906Y-55615469D01*
X66174794Y-55475456D01*
X66326805Y-55310327D01*
X66391489Y-55259983D01*
X66469016Y-55233368D01*
X66550984Y-55233368D01*
X66628511Y-55259983D01*
X66693194Y-55310327D01*
X66845206Y-55475456D01*
X67025094Y-55615469D01*
X67025097Y-55615471D01*
X67025099Y-55615472D01*
X67224722Y-55723502D01*
X67225574Y-55723963D01*
X67441177Y-55797980D01*
X67666023Y-55835500D01*
X67893977Y-55835500D01*
X68118823Y-55797980D01*
X68334426Y-55723963D01*
X68534906Y-55615469D01*
X68714794Y-55475456D01*
X68866805Y-55310327D01*
X68931489Y-55259983D01*
X69009016Y-55233368D01*
X69090984Y-55233368D01*
X69168511Y-55259983D01*
X69233194Y-55310327D01*
X69385206Y-55475456D01*
X69565094Y-55615469D01*
X69565097Y-55615471D01*
X69565099Y-55615472D01*
X69764722Y-55723502D01*
X69765574Y-55723963D01*
X69981177Y-55797980D01*
X70206023Y-55835500D01*
X70433977Y-55835500D01*
X70658823Y-55797980D01*
X70874426Y-55723963D01*
X71074906Y-55615469D01*
X71254794Y-55475456D01*
X71406805Y-55310327D01*
X71471489Y-55259983D01*
X71549016Y-55233368D01*
X71630984Y-55233368D01*
X71708511Y-55259983D01*
X71773194Y-55310327D01*
X71925206Y-55475456D01*
X72105094Y-55615469D01*
X72105097Y-55615471D01*
X72105099Y-55615472D01*
X72304722Y-55723502D01*
X72305574Y-55723963D01*
X72521177Y-55797980D01*
X72746023Y-55835500D01*
X72973977Y-55835500D01*
X73198823Y-55797980D01*
X73414426Y-55723963D01*
X73614906Y-55615469D01*
X73794794Y-55475456D01*
X73946805Y-55310327D01*
X74011489Y-55259983D01*
X74089016Y-55233368D01*
X74170984Y-55233368D01*
X74248511Y-55259983D01*
X74313194Y-55310327D01*
X74465206Y-55475456D01*
X74645094Y-55615469D01*
X74645097Y-55615471D01*
X74645099Y-55615472D01*
X74844722Y-55723502D01*
X74845574Y-55723963D01*
X75061177Y-55797980D01*
X75286023Y-55835500D01*
X75513977Y-55835500D01*
X75738823Y-55797980D01*
X75954426Y-55723963D01*
X76154906Y-55615469D01*
X76334794Y-55475456D01*
X76486805Y-55310327D01*
X76551489Y-55259983D01*
X76629016Y-55233368D01*
X76710984Y-55233368D01*
X76788511Y-55259983D01*
X76853194Y-55310327D01*
X77005206Y-55475456D01*
X77185094Y-55615469D01*
X77185097Y-55615471D01*
X77185099Y-55615472D01*
X77384722Y-55723502D01*
X77385574Y-55723963D01*
X77601177Y-55797980D01*
X77826023Y-55835500D01*
X78053977Y-55835500D01*
X78278823Y-55797980D01*
X78494426Y-55723963D01*
X78694906Y-55615469D01*
X78874794Y-55475456D01*
X79026805Y-55310327D01*
X79091489Y-55259983D01*
X79169016Y-55233368D01*
X79250984Y-55233368D01*
X79328511Y-55259983D01*
X79393194Y-55310327D01*
X79545206Y-55475456D01*
X79725094Y-55615469D01*
X79725097Y-55615471D01*
X79725099Y-55615472D01*
X79924722Y-55723502D01*
X79925574Y-55723963D01*
X80141177Y-55797980D01*
X80366023Y-55835500D01*
X80593977Y-55835500D01*
X80818823Y-55797980D01*
X81034426Y-55723963D01*
X81234906Y-55615469D01*
X81414794Y-55475456D01*
X81566805Y-55310327D01*
X81631489Y-55259983D01*
X81709016Y-55233368D01*
X81790984Y-55233368D01*
X81868511Y-55259983D01*
X81933194Y-55310327D01*
X82085206Y-55475456D01*
X82265094Y-55615469D01*
X82265097Y-55615471D01*
X82265099Y-55615472D01*
X82464722Y-55723502D01*
X82465574Y-55723963D01*
X82681177Y-55797980D01*
X82906023Y-55835500D01*
X83133977Y-55835500D01*
X83358823Y-55797980D01*
X83574426Y-55723963D01*
X83774906Y-55615469D01*
X83954794Y-55475456D01*
X84106805Y-55310327D01*
X84171489Y-55259983D01*
X84249016Y-55233368D01*
X84330984Y-55233368D01*
X84408511Y-55259983D01*
X84473194Y-55310327D01*
X84625206Y-55475456D01*
X84805094Y-55615469D01*
X84805097Y-55615471D01*
X84805099Y-55615472D01*
X85004722Y-55723502D01*
X85005574Y-55723963D01*
X85221177Y-55797980D01*
X85446023Y-55835500D01*
X85673977Y-55835500D01*
X85898823Y-55797980D01*
X86114426Y-55723963D01*
X86314906Y-55615469D01*
X86494794Y-55475456D01*
X86646805Y-55310327D01*
X86711489Y-55259983D01*
X86789016Y-55233368D01*
X86870984Y-55233368D01*
X86948511Y-55259983D01*
X87013194Y-55310327D01*
X87165206Y-55475456D01*
X87345094Y-55615469D01*
X87345097Y-55615471D01*
X87345099Y-55615472D01*
X87544722Y-55723502D01*
X87545574Y-55723963D01*
X87761177Y-55797980D01*
X87986023Y-55835500D01*
X88213977Y-55835500D01*
X88438823Y-55797980D01*
X88654426Y-55723963D01*
X88854906Y-55615469D01*
X89034794Y-55475456D01*
X89186805Y-55310327D01*
X89251489Y-55259983D01*
X89329016Y-55233368D01*
X89410984Y-55233368D01*
X89488511Y-55259983D01*
X89553194Y-55310327D01*
X89705206Y-55475456D01*
X89885094Y-55615469D01*
X89885097Y-55615471D01*
X89885099Y-55615472D01*
X90084722Y-55723502D01*
X90085574Y-55723963D01*
X90277042Y-55789694D01*
X90352575Y-55831439D01*
X90409325Y-55896465D01*
X90440468Y-55976959D01*
X90442262Y-56063248D01*
X90414491Y-56144966D01*
X90360492Y-56212295D01*
X90286753Y-56257145D01*
X90202132Y-56274129D01*
X90195251Y-56274293D01*
X90189535Y-56274429D01*
X90183627Y-56274500D01*
X90146371Y-56274500D01*
X90141852Y-56274931D01*
X90124143Y-56275985D01*
X90065774Y-56277375D01*
X90040759Y-56282817D01*
X90011505Y-56287379D01*
X89986029Y-56289811D01*
X89930012Y-56306259D01*
X89912798Y-56310653D01*
X89855738Y-56323066D01*
X89832215Y-56333140D01*
X89804354Y-56343156D01*
X89779791Y-56350369D01*
X89779789Y-56350369D01*
X89779789Y-56350370D01*
X89727889Y-56377125D01*
X89711817Y-56384697D01*
X89658148Y-56407679D01*
X89636943Y-56422031D01*
X89611490Y-56437133D01*
X89588739Y-56448862D01*
X89542843Y-56484954D01*
X89528499Y-56495429D01*
X89505088Y-56511275D01*
X89480141Y-56528160D01*
X89462038Y-56546262D01*
X89439904Y-56565907D01*
X89419784Y-56581730D01*
X89381548Y-56625855D01*
X89369441Y-56638859D01*
X83506733Y-62501570D01*
X83455163Y-62541140D01*
X83395109Y-62566016D01*
X83330663Y-62574500D01*
X82601574Y-62574500D01*
X82520724Y-62561008D01*
X82448635Y-62521996D01*
X82343229Y-62439954D01*
X82124606Y-62321642D01*
X82124605Y-62321641D01*
X82124604Y-62321641D01*
X81889488Y-62240926D01*
X81889487Y-62240925D01*
X81889485Y-62240925D01*
X81644293Y-62200010D01*
X81395707Y-62200010D01*
X81150514Y-62240925D01*
X80915393Y-62321642D01*
X80696770Y-62439954D01*
X80591365Y-62521996D01*
X80519276Y-62561008D01*
X80438426Y-62574500D01*
X79335003Y-62574500D01*
X79259186Y-62562677D01*
X79190569Y-62528330D01*
X79135669Y-62474721D01*
X79109958Y-62440376D01*
X79037036Y-62342964D01*
X78921821Y-62256714D01*
X78786973Y-62206419D01*
X78786972Y-62206418D01*
X78786970Y-62206418D01*
X78727364Y-62200010D01*
X76632640Y-62200010D01*
X76573036Y-62206418D01*
X76573027Y-62206419D01*
X76438179Y-62256714D01*
X76438177Y-62256715D01*
X76438178Y-62256715D01*
X76322963Y-62342963D01*
X76250357Y-62439954D01*
X76236714Y-62458179D01*
X76206020Y-62540473D01*
X76186418Y-62593029D01*
X76180010Y-62652635D01*
X76180010Y-64747359D01*
X76182107Y-64766862D01*
X76186419Y-64806973D01*
X76236714Y-64941821D01*
X76301596Y-65028492D01*
X76322964Y-65057036D01*
X76381246Y-65100666D01*
X76443399Y-65168386D01*
X76476747Y-65254041D01*
X76476747Y-65345959D01*
X76443399Y-65431614D01*
X76381246Y-65499334D01*
X76322964Y-65542963D01*
X76262525Y-65623700D01*
X76236714Y-65658179D01*
X76205772Y-65741140D01*
X76186418Y-65793029D01*
X76180010Y-65852635D01*
X76180010Y-67947359D01*
X76181479Y-67961020D01*
X76186419Y-68006973D01*
X76236714Y-68141821D01*
X76322964Y-68257036D01*
X76438179Y-68343286D01*
X76438180Y-68343286D01*
X76448038Y-68350666D01*
X76510190Y-68418386D01*
X76543539Y-68504041D01*
X76543539Y-68595959D01*
X76510190Y-68681614D01*
X76448038Y-68749334D01*
X76322964Y-68842963D01*
X76287074Y-68890907D01*
X76236714Y-68958179D01*
X76208523Y-69033763D01*
X76186418Y-69093029D01*
X76180010Y-69152635D01*
X76180010Y-71247359D01*
X76182509Y-71270604D01*
X76186419Y-71306973D01*
X76236714Y-71441821D01*
X76257813Y-71470005D01*
X76322963Y-71557036D01*
X76372288Y-71593960D01*
X76438179Y-71643286D01*
X76500955Y-71666700D01*
X76575069Y-71710162D01*
X76629999Y-71776231D01*
X76659204Y-71857036D01*
X76659204Y-71942957D01*
X76630001Y-72023763D01*
X76575072Y-72089833D01*
X76500956Y-72133299D01*
X76438179Y-72156713D01*
X76322963Y-72242963D01*
X76256041Y-72332361D01*
X76236714Y-72358179D01*
X76209927Y-72430000D01*
X76186418Y-72493029D01*
X76180010Y-72552635D01*
X76180010Y-74647359D01*
X76180011Y-74647364D01*
X76186419Y-74706973D01*
X76236714Y-74841821D01*
X76291202Y-74914608D01*
X76291401Y-74914873D01*
X76330981Y-74993942D01*
X76340433Y-75081857D01*
X76318566Y-75167532D01*
X76268137Y-75240163D01*
X75106734Y-76401569D01*
X75055164Y-76441140D01*
X74995110Y-76466016D01*
X74930664Y-76474500D01*
X67369337Y-76474500D01*
X67274049Y-76455546D01*
X67193268Y-76401570D01*
X66798431Y-76006734D01*
X66758860Y-75955164D01*
X66733984Y-75895110D01*
X66725500Y-75830664D01*
X66725500Y-75261385D01*
X66743290Y-75168957D01*
X66794118Y-75089736D01*
X66870721Y-75035042D01*
X66962154Y-75012691D01*
X67055350Y-75025877D01*
X67150632Y-75058587D01*
X67395749Y-75099490D01*
X67644251Y-75099490D01*
X67889367Y-75058587D01*
X68124399Y-74977900D01*
X68342953Y-74859625D01*
X68389691Y-74823246D01*
X68389692Y-74823246D01*
X67520000Y-73953554D01*
X67519995Y-73953547D01*
X67166446Y-73599999D01*
X67873554Y-73599999D01*
X68743067Y-74469512D01*
X68843283Y-74316119D01*
X68943102Y-74088556D01*
X69004107Y-73847654D01*
X69024628Y-73599999D01*
X69004107Y-73352345D01*
X68943102Y-73111443D01*
X68843284Y-72883881D01*
X68743066Y-72730486D01*
X67873554Y-73599999D01*
X67166446Y-73599999D01*
X66296931Y-72730485D01*
X66287261Y-72731488D01*
X66256116Y-72764490D01*
X66177171Y-72803489D01*
X66089588Y-72812572D01*
X66004320Y-72790603D01*
X65932029Y-72740331D01*
X65568450Y-72376752D01*
X66650307Y-72376752D01*
X67519999Y-73246444D01*
X68389691Y-72376752D01*
X68342950Y-72340373D01*
X68124399Y-72222099D01*
X67872168Y-72135508D01*
X67795481Y-72092829D01*
X67738365Y-72026194D01*
X67707915Y-71943882D01*
X67707915Y-71856118D01*
X67738365Y-71773806D01*
X67795481Y-71707171D01*
X67872168Y-71664492D01*
X68124399Y-71577900D01*
X68342953Y-71459625D01*
X68389691Y-71423246D01*
X68389692Y-71423246D01*
X67520000Y-70553554D01*
X66650307Y-71423246D01*
X66697044Y-71459623D01*
X66915598Y-71577899D01*
X67167832Y-71664492D01*
X67244519Y-71707171D01*
X67301634Y-71773806D01*
X67332084Y-71856118D01*
X67332084Y-71943882D01*
X67301634Y-72026194D01*
X67244519Y-72092829D01*
X67167832Y-72135508D01*
X66915598Y-72222100D01*
X66697043Y-72340376D01*
X66650307Y-72376752D01*
X65568450Y-72376752D01*
X64476998Y-71285301D01*
X64458573Y-71263518D01*
X64454468Y-71259604D01*
X64454466Y-71259601D01*
X64388480Y-71196684D01*
X64384281Y-71192583D01*
X64357933Y-71166236D01*
X64354449Y-71163359D01*
X64341162Y-71151566D01*
X64298905Y-71111275D01*
X64298903Y-71111273D01*
X64277365Y-71097430D01*
X64253461Y-71079976D01*
X64229011Y-71059789D01*
X64172348Y-70993045D01*
X64142291Y-70910814D01*
X64142556Y-70823261D01*
X64173109Y-70741213D01*
X64230174Y-70674812D01*
X64306690Y-70632271D01*
X64434604Y-70588359D01*
X64653229Y-70470045D01*
X64849397Y-70317361D01*
X64957436Y-70200000D01*
X66015371Y-70200000D01*
X66035892Y-70447654D01*
X66096895Y-70688551D01*
X66196719Y-70916128D01*
X66296931Y-71069512D01*
X67166445Y-70199999D01*
X67873554Y-70199999D01*
X68743067Y-71069512D01*
X68843283Y-70916119D01*
X68943102Y-70688556D01*
X69004107Y-70447654D01*
X69024628Y-70200000D01*
X69004107Y-69952345D01*
X68943102Y-69711443D01*
X68843284Y-69483881D01*
X68743066Y-69330486D01*
X67873554Y-70199999D01*
X67166445Y-70199999D01*
X66296931Y-69330486D01*
X66196717Y-69483876D01*
X66096895Y-69711448D01*
X66035892Y-69952345D01*
X66015371Y-70200000D01*
X64957436Y-70200000D01*
X65017760Y-70134471D01*
X65153723Y-69926363D01*
X65253579Y-69698715D01*
X65314603Y-69457736D01*
X65335131Y-69210000D01*
X65315804Y-68976752D01*
X66650307Y-68976752D01*
X67519999Y-69846444D01*
X68389691Y-68976752D01*
X68342950Y-68940373D01*
X68124399Y-68822099D01*
X68017813Y-68785508D01*
X67941126Y-68742829D01*
X67884010Y-68676194D01*
X67853560Y-68593882D01*
X67853560Y-68506118D01*
X67884010Y-68423806D01*
X67941126Y-68357171D01*
X68017813Y-68314492D01*
X68124399Y-68277900D01*
X68342953Y-68159625D01*
X68389691Y-68123246D01*
X68389692Y-68123246D01*
X67520000Y-67253554D01*
X66650307Y-68123246D01*
X66697044Y-68159623D01*
X66915598Y-68277899D01*
X67022187Y-68314492D01*
X67098874Y-68357171D01*
X67155990Y-68423806D01*
X67186439Y-68506118D01*
X67186439Y-68593882D01*
X67155990Y-68676194D01*
X67098874Y-68742829D01*
X67022187Y-68785508D01*
X66915598Y-68822100D01*
X66697043Y-68940376D01*
X66650307Y-68976752D01*
X65315804Y-68976752D01*
X65314603Y-68962264D01*
X65253579Y-68721285D01*
X65153723Y-68493637D01*
X65153722Y-68493635D01*
X65153721Y-68493633D01*
X65017760Y-68285529D01*
X64849398Y-68102640D01*
X64653229Y-67949954D01*
X64434606Y-67831642D01*
X64434605Y-67831641D01*
X64434604Y-67831641D01*
X64199488Y-67750926D01*
X64199487Y-67750925D01*
X64199485Y-67750925D01*
X63954293Y-67710010D01*
X63705707Y-67710010D01*
X63460514Y-67750925D01*
X63225393Y-67831642D01*
X63006770Y-67949954D01*
X62810601Y-68102640D01*
X62642239Y-68285529D01*
X62506278Y-68493633D01*
X62406421Y-68721285D01*
X62345397Y-68962263D01*
X62326106Y-69195065D01*
X62324869Y-69210000D01*
X62345397Y-69457736D01*
X62406421Y-69698715D01*
X62457876Y-69816021D01*
X62506278Y-69926366D01*
X62642239Y-70134470D01*
X62791717Y-70296846D01*
X62810603Y-70317361D01*
X62954042Y-70429004D01*
X63012716Y-70494271D01*
X63045101Y-70575841D01*
X63047174Y-70663581D01*
X63018677Y-70746589D01*
X62963151Y-70814554D01*
X62887493Y-70859033D01*
X62801103Y-70874500D01*
X53669337Y-70874500D01*
X53574049Y-70855546D01*
X53493267Y-70801570D01*
X53288430Y-70596733D01*
X53234454Y-70515951D01*
X53215500Y-70420663D01*
X53215500Y-68851852D01*
X53222312Y-68802490D01*
X54851063Y-68802490D01*
X55022711Y-68919518D01*
X55258978Y-69033298D01*
X55509565Y-69110594D01*
X55768880Y-69149680D01*
X56031120Y-69149680D01*
X56290434Y-69110594D01*
X56541021Y-69033298D01*
X56777288Y-68919518D01*
X56948936Y-68802491D01*
X55899999Y-67753554D01*
X54851063Y-68802490D01*
X53222312Y-68802490D01*
X53224807Y-68784412D01*
X53252031Y-68722014D01*
X53295138Y-68669321D01*
X53300097Y-68664720D01*
X53376571Y-68593763D01*
X53540122Y-68388676D01*
X53671280Y-68161504D01*
X53763481Y-67926576D01*
X53807403Y-67854123D01*
X53873079Y-67800590D01*
X53952902Y-67772179D01*
X54037632Y-67772178D01*
X54117456Y-67800589D01*
X54183132Y-67854121D01*
X54227055Y-67926577D01*
X54319172Y-68161284D01*
X54450293Y-68388393D01*
X54498101Y-68448343D01*
X55546445Y-67399999D01*
X56253553Y-67399999D01*
X57301897Y-68448343D01*
X57349705Y-68388395D01*
X57480828Y-68161282D01*
X57572944Y-67926578D01*
X57616867Y-67854122D01*
X57682543Y-67800589D01*
X57762367Y-67772178D01*
X57847096Y-67772178D01*
X57926920Y-67800590D01*
X57992595Y-67854122D01*
X58036519Y-67926578D01*
X58044677Y-67947364D01*
X58128147Y-68160045D01*
X58128722Y-68161508D01*
X58259879Y-68388678D01*
X58423425Y-68593759D01*
X58423428Y-68593761D01*
X58423429Y-68593763D01*
X58537704Y-68699794D01*
X58615722Y-68772184D01*
X58738785Y-68856087D01*
X58832456Y-68919951D01*
X59068794Y-69033765D01*
X59319456Y-69111084D01*
X59578842Y-69150180D01*
X59841158Y-69150180D01*
X60100544Y-69111084D01*
X60351206Y-69033765D01*
X60587544Y-68919951D01*
X60804279Y-68772183D01*
X60996571Y-68593763D01*
X61160122Y-68388676D01*
X61291280Y-68161504D01*
X61387114Y-67917321D01*
X61445485Y-67661582D01*
X61465088Y-67400000D01*
X61445485Y-67138418D01*
X61391067Y-66899999D01*
X66015371Y-66899999D01*
X66035892Y-67147654D01*
X66096895Y-67388551D01*
X66196718Y-67616124D01*
X66296931Y-67769512D01*
X67166444Y-66899999D01*
X67873554Y-66899999D01*
X68743067Y-67769512D01*
X68843283Y-67616119D01*
X68943102Y-67388556D01*
X69004107Y-67147654D01*
X69024628Y-66900000D01*
X69004107Y-66652345D01*
X68943102Y-66411443D01*
X68843284Y-66183881D01*
X68743066Y-66030486D01*
X67873554Y-66899999D01*
X67166444Y-66899999D01*
X66296931Y-66030486D01*
X66196717Y-66183876D01*
X66096895Y-66411448D01*
X66035892Y-66652345D01*
X66015371Y-66899999D01*
X61391067Y-66899999D01*
X61387114Y-66882679D01*
X61291280Y-66638496D01*
X61160122Y-66411324D01*
X61112537Y-66351654D01*
X60996574Y-66206240D01*
X60980610Y-66191428D01*
X60804279Y-66027817D01*
X60804277Y-66027815D01*
X60587543Y-65880048D01*
X60351209Y-65766236D01*
X60100542Y-65688915D01*
X60019844Y-65676752D01*
X66650307Y-65676752D01*
X67519999Y-66546444D01*
X68389691Y-65676752D01*
X68342950Y-65640373D01*
X68118652Y-65518989D01*
X68049391Y-65463531D01*
X68003972Y-65387309D01*
X67988163Y-65300000D01*
X68003972Y-65212691D01*
X68049391Y-65136469D01*
X68118652Y-65081011D01*
X68342953Y-64959625D01*
X68389691Y-64923246D01*
X68389692Y-64923246D01*
X67520000Y-64053554D01*
X66650307Y-64923246D01*
X66697044Y-64959624D01*
X66921347Y-65081011D01*
X66990609Y-65136469D01*
X67036027Y-65212691D01*
X67051836Y-65300000D01*
X67036027Y-65387309D01*
X66990609Y-65463531D01*
X66921347Y-65518989D01*
X66697043Y-65640376D01*
X66650307Y-65676752D01*
X60019844Y-65676752D01*
X59841158Y-65649820D01*
X59578842Y-65649820D01*
X59319457Y-65688915D01*
X59068790Y-65766236D01*
X58832456Y-65880048D01*
X58615722Y-66027815D01*
X58423425Y-66206240D01*
X58259879Y-66411321D01*
X58128719Y-66638497D01*
X58036518Y-66873421D01*
X57992595Y-66945877D01*
X57926920Y-66999409D01*
X57847096Y-67027821D01*
X57762367Y-67027821D01*
X57682543Y-66999410D01*
X57616867Y-66945877D01*
X57572944Y-66873422D01*
X57480826Y-66638713D01*
X57349708Y-66411608D01*
X57301896Y-66351654D01*
X56253553Y-67399999D01*
X55546445Y-67399999D01*
X54498101Y-66351655D01*
X54450294Y-66411605D01*
X54319172Y-66638716D01*
X54227055Y-66873423D01*
X54183131Y-66945878D01*
X54117455Y-66999410D01*
X54037632Y-67027821D01*
X53952902Y-67027820D01*
X53873079Y-66999409D01*
X53807403Y-66945876D01*
X53763481Y-66873422D01*
X53671280Y-66638496D01*
X53540122Y-66411324D01*
X53492537Y-66351654D01*
X53376574Y-66206240D01*
X53360610Y-66191428D01*
X53184279Y-66027817D01*
X53184277Y-66027815D01*
X53139823Y-65997507D01*
X54851061Y-65997507D01*
X55899999Y-67046445D01*
X56948936Y-65997507D01*
X56777291Y-65880483D01*
X56541021Y-65766701D01*
X56290434Y-65689405D01*
X56031120Y-65650320D01*
X55768880Y-65650320D01*
X55509565Y-65689405D01*
X55258978Y-65766701D01*
X55022705Y-65880484D01*
X54851061Y-65997507D01*
X53139823Y-65997507D01*
X52967543Y-65880048D01*
X52731209Y-65766236D01*
X52480542Y-65688915D01*
X52221158Y-65649820D01*
X51958842Y-65649820D01*
X51699457Y-65688915D01*
X51448790Y-65766236D01*
X51212456Y-65880048D01*
X50995722Y-66027815D01*
X50803425Y-66206240D01*
X50639879Y-66411321D01*
X50508722Y-66638491D01*
X50412885Y-66882681D01*
X50354515Y-67138415D01*
X50334912Y-67400000D01*
X50354515Y-67661584D01*
X50412885Y-67917318D01*
X50412886Y-67917321D01*
X50508147Y-68160045D01*
X50508722Y-68161508D01*
X50639879Y-68388678D01*
X50803425Y-68593759D01*
X50803428Y-68593761D01*
X50803429Y-68593763D01*
X50805796Y-68595959D01*
X50884862Y-68669321D01*
X50927969Y-68722014D01*
X50955193Y-68784412D01*
X50964500Y-68851852D01*
X50964500Y-70875233D01*
X50962125Y-70903675D01*
X50964429Y-71000445D01*
X50964500Y-71006372D01*
X50964500Y-71043627D01*
X50964931Y-71048146D01*
X50965985Y-71065857D01*
X50967375Y-71124225D01*
X50972817Y-71149240D01*
X50977379Y-71178495D01*
X50979811Y-71203969D01*
X50996261Y-71259994D01*
X51000655Y-71277209D01*
X51013066Y-71334259D01*
X51023140Y-71357784D01*
X51033156Y-71385645D01*
X51040369Y-71410209D01*
X51040370Y-71410212D01*
X51067120Y-71462100D01*
X51074696Y-71478179D01*
X51097679Y-71531851D01*
X51112024Y-71553045D01*
X51127134Y-71578511D01*
X51138862Y-71601260D01*
X51174951Y-71647152D01*
X51185429Y-71661501D01*
X51202465Y-71686671D01*
X51216340Y-71707171D01*
X51218158Y-71709856D01*
X51236259Y-71727958D01*
X51255909Y-71750097D01*
X51271732Y-71770217D01*
X51315846Y-71808442D01*
X51328855Y-71820553D01*
X52223003Y-72714701D01*
X52241433Y-72736489D01*
X52311457Y-72803256D01*
X52315696Y-72807395D01*
X52342066Y-72833764D01*
X52345549Y-72836640D01*
X52358843Y-72848439D01*
X52377168Y-72865911D01*
X52401097Y-72888727D01*
X52419440Y-72900515D01*
X52422623Y-72902561D01*
X52446534Y-72920019D01*
X52453609Y-72925861D01*
X52466280Y-72936323D01*
X52517518Y-72964300D01*
X52532800Y-72973367D01*
X52581920Y-73004935D01*
X52605683Y-73014448D01*
X52632458Y-73027062D01*
X52654932Y-73039334D01*
X52686712Y-73049493D01*
X52710530Y-73057107D01*
X52727256Y-73063119D01*
X52745448Y-73070402D01*
X52781468Y-73084822D01*
X52806600Y-73089665D01*
X52835274Y-73096983D01*
X52859669Y-73104782D01*
X52917640Y-73111712D01*
X52935192Y-73114449D01*
X52992528Y-73125500D01*
X53018115Y-73125500D01*
X53047676Y-73127260D01*
X53073094Y-73130300D01*
X53131342Y-73126133D01*
X53149105Y-73125500D01*
X63030662Y-73125500D01*
X63125950Y-73144454D01*
X63206732Y-73198430D01*
X63672973Y-73664671D01*
X63722737Y-73735861D01*
X63745022Y-73819813D01*
X63737115Y-73906311D01*
X63699977Y-73984830D01*
X63638130Y-74045817D01*
X63559097Y-74081849D01*
X63472496Y-74088542D01*
X63388865Y-74065082D01*
X63341323Y-74042187D01*
X63090613Y-73964853D01*
X62868036Y-73931305D01*
X62831182Y-73925750D01*
X62568818Y-73925750D01*
X62531964Y-73931305D01*
X62309386Y-73964853D01*
X62058673Y-74042188D01*
X61822296Y-74156021D01*
X61605522Y-74303815D01*
X61413194Y-74482269D01*
X61249613Y-74687394D01*
X61118431Y-74914608D01*
X61022580Y-75158830D01*
X60964198Y-75414618D01*
X60956317Y-75519783D01*
X60944592Y-75676250D01*
X60950730Y-75758153D01*
X60964198Y-75937881D01*
X61022580Y-76193669D01*
X61114120Y-76426906D01*
X61118432Y-76437893D01*
X61249614Y-76665107D01*
X61341646Y-76780511D01*
X61413194Y-76870230D01*
X61605522Y-77048684D01*
X61809710Y-77187897D01*
X61822296Y-77196478D01*
X62058677Y-77310313D01*
X62309385Y-77387646D01*
X62568818Y-77426750D01*
X62831181Y-77426750D01*
X62831182Y-77426750D01*
X63090615Y-77387646D01*
X63341323Y-77310313D01*
X63577704Y-77196478D01*
X63794479Y-77048683D01*
X63986805Y-76870231D01*
X64110802Y-76714743D01*
X64178781Y-76655636D01*
X64263347Y-76624585D01*
X64353428Y-76625656D01*
X64437232Y-76658711D01*
X64503790Y-76719422D01*
X64544388Y-76799843D01*
X64550367Y-76820208D01*
X64577120Y-76872100D01*
X64584696Y-76888179D01*
X64607679Y-76941851D01*
X64622024Y-76963045D01*
X64637134Y-76988511D01*
X64648862Y-77011260D01*
X64684951Y-77057152D01*
X64695429Y-77071501D01*
X64713974Y-77098900D01*
X64727593Y-77119022D01*
X64728158Y-77119856D01*
X64746259Y-77137958D01*
X64765909Y-77160097D01*
X64781732Y-77180217D01*
X64811747Y-77206225D01*
X64825846Y-77218442D01*
X64838855Y-77230553D01*
X65383827Y-77775525D01*
X65922999Y-78314696D01*
X65941436Y-78336492D01*
X66011477Y-78403275D01*
X66015719Y-78407416D01*
X66042067Y-78433764D01*
X66045550Y-78436640D01*
X66058841Y-78448437D01*
X66075403Y-78464228D01*
X66101097Y-78488727D01*
X66122635Y-78502569D01*
X66146534Y-78520019D01*
X66166279Y-78536322D01*
X66201326Y-78555459D01*
X66217518Y-78564300D01*
X66232805Y-78573370D01*
X66281920Y-78604935D01*
X66305681Y-78614447D01*
X66332461Y-78627064D01*
X66354931Y-78639334D01*
X66410560Y-78657116D01*
X66427248Y-78663115D01*
X66481468Y-78684822D01*
X66506598Y-78689665D01*
X66535288Y-78696988D01*
X66559665Y-78704780D01*
X66559666Y-78704780D01*
X66559669Y-78704781D01*
X66617636Y-78711711D01*
X66635195Y-78714450D01*
X66692527Y-78725500D01*
X66692528Y-78725500D01*
X66718124Y-78725500D01*
X66747683Y-78727260D01*
X66773094Y-78730299D01*
X66831331Y-78726134D01*
X66849094Y-78725500D01*
X75385233Y-78725500D01*
X75413675Y-78727874D01*
X75419337Y-78727739D01*
X75419342Y-78727740D01*
X75510444Y-78725571D01*
X75516372Y-78725500D01*
X75553614Y-78725500D01*
X75553618Y-78725500D01*
X75558127Y-78725069D01*
X75575842Y-78724013D01*
X75634226Y-78722624D01*
X75659244Y-78717181D01*
X75688490Y-78712620D01*
X75713971Y-78710188D01*
X75769990Y-78693739D01*
X75787195Y-78689347D01*
X75844258Y-78676934D01*
X75867789Y-78666856D01*
X75895647Y-78656842D01*
X75920209Y-78649631D01*
X75972116Y-78622869D01*
X75988156Y-78615312D01*
X76041849Y-78592321D01*
X76063056Y-78577966D01*
X76088495Y-78562872D01*
X76111259Y-78551138D01*
X76157166Y-78515034D01*
X76171482Y-78504581D01*
X76219855Y-78471843D01*
X76237961Y-78453736D01*
X76260101Y-78434086D01*
X76280217Y-78418268D01*
X76318445Y-78374149D01*
X76330543Y-78361153D01*
X77412718Y-77278978D01*
X77489212Y-77226827D01*
X77579474Y-77206225D01*
X77671024Y-77220024D01*
X77751204Y-77266316D01*
X77808929Y-77338700D01*
X77836219Y-77427171D01*
X77829301Y-77519496D01*
X77814859Y-77573393D01*
X77795034Y-77799999D01*
X77814859Y-78026609D01*
X77873731Y-78246319D01*
X77969867Y-78452485D01*
X78020973Y-78525471D01*
X78923930Y-77622516D01*
X79004711Y-77568540D01*
X79099999Y-77549586D01*
X79195287Y-77568540D01*
X79276069Y-77622516D01*
X79277483Y-77623930D01*
X79331459Y-77704712D01*
X79350413Y-77800000D01*
X79331459Y-77895288D01*
X79277483Y-77976069D01*
X78374527Y-78879025D01*
X78374527Y-78879026D01*
X78447514Y-78930132D01*
X78653680Y-79026268D01*
X78873390Y-79085140D01*
X79100000Y-79104965D01*
X79326609Y-79085140D01*
X79546322Y-79026267D01*
X79711864Y-78949074D01*
X79798020Y-78926476D01*
X79886617Y-78935646D01*
X79966315Y-78975408D01*
X80057669Y-79043796D01*
X80192517Y-79094091D01*
X80252127Y-79100500D01*
X81947872Y-79100499D01*
X82007483Y-79094091D01*
X82142331Y-79043796D01*
X82257546Y-78957546D01*
X82343796Y-78842331D01*
X82394091Y-78707483D01*
X82400500Y-78647873D01*
X82400499Y-76952128D01*
X82394091Y-76892517D01*
X82343796Y-76757669D01*
X82275166Y-76665991D01*
X82238242Y-76595404D01*
X82225500Y-76516770D01*
X82225500Y-76414767D01*
X82227874Y-76386324D01*
X82227739Y-76380662D01*
X82227740Y-76380658D01*
X82225571Y-76289555D01*
X82225500Y-76283628D01*
X82225500Y-76246385D01*
X82225070Y-76241883D01*
X82224013Y-76224158D01*
X82222624Y-76165774D01*
X82217183Y-76140767D01*
X82212619Y-76111496D01*
X82210188Y-76086030D01*
X82210188Y-76086029D01*
X82193732Y-76029984D01*
X82189348Y-76012807D01*
X82176934Y-75955742D01*
X82166859Y-75932216D01*
X82156842Y-75904350D01*
X82154129Y-75895110D01*
X82149631Y-75879791D01*
X82122876Y-75827895D01*
X82115304Y-75811823D01*
X82092321Y-75758151D01*
X82077969Y-75736947D01*
X82062861Y-75711482D01*
X82051138Y-75688741D01*
X82036207Y-75669755D01*
X82015045Y-75642844D01*
X82004565Y-75628492D01*
X81971845Y-75580149D01*
X81971843Y-75580146D01*
X81953735Y-75562038D01*
X81934094Y-75539908D01*
X81918268Y-75519783D01*
X81874144Y-75481549D01*
X81861135Y-75469438D01*
X81844950Y-75453253D01*
X81796572Y-75384999D01*
X81773531Y-75304575D01*
X81778428Y-75221058D01*
X81810709Y-75143878D01*
X81866731Y-75081745D01*
X81940168Y-75041675D01*
X82124604Y-74978359D01*
X82343229Y-74860045D01*
X82448635Y-74778003D01*
X82520724Y-74738992D01*
X82601574Y-74725500D01*
X83930662Y-74725500D01*
X84025950Y-74744454D01*
X84106732Y-74798430D01*
X88122999Y-78814696D01*
X88141436Y-78836492D01*
X88211477Y-78903275D01*
X88215719Y-78907416D01*
X88242067Y-78933764D01*
X88245550Y-78936640D01*
X88258841Y-78948437D01*
X88268395Y-78957546D01*
X88301097Y-78988727D01*
X88322635Y-79002569D01*
X88346534Y-79020019D01*
X88366279Y-79036322D01*
X88393407Y-79051135D01*
X88417518Y-79064300D01*
X88432805Y-79073370D01*
X88481920Y-79104935D01*
X88505681Y-79114447D01*
X88532461Y-79127064D01*
X88554931Y-79139334D01*
X88610560Y-79157116D01*
X88627248Y-79163115D01*
X88681468Y-79184822D01*
X88706610Y-79189667D01*
X88735283Y-79196985D01*
X88759669Y-79204781D01*
X88817655Y-79211714D01*
X88835171Y-79214445D01*
X88892528Y-79225500D01*
X88918116Y-79225500D01*
X88947676Y-79227260D01*
X88973094Y-79230300D01*
X89031342Y-79226133D01*
X89049105Y-79225500D01*
X99385233Y-79225500D01*
X99413675Y-79227874D01*
X99419337Y-79227739D01*
X99419342Y-79227740D01*
X99510444Y-79225571D01*
X99516372Y-79225500D01*
X99553614Y-79225500D01*
X99553618Y-79225500D01*
X99558127Y-79225069D01*
X99575842Y-79224013D01*
X99634226Y-79222624D01*
X99659244Y-79217181D01*
X99688490Y-79212620D01*
X99713971Y-79210188D01*
X99769990Y-79193739D01*
X99787195Y-79189347D01*
X99844258Y-79176934D01*
X99867789Y-79166856D01*
X99895647Y-79156842D01*
X99920209Y-79149631D01*
X99972116Y-79122869D01*
X99988156Y-79115312D01*
X100041849Y-79092321D01*
X100063056Y-79077966D01*
X100088495Y-79062872D01*
X100111259Y-79051138D01*
X100157166Y-79015034D01*
X100171482Y-79004581D01*
X100219855Y-78971843D01*
X100237961Y-78953736D01*
X100260101Y-78934086D01*
X100280217Y-78918268D01*
X100318445Y-78874149D01*
X100330543Y-78861153D01*
X101191695Y-78000000D01*
X106494869Y-78000000D01*
X106499160Y-78051786D01*
X106500010Y-78072346D01*
X106500010Y-78124295D01*
X106508560Y-78175533D01*
X106511105Y-78195952D01*
X106515396Y-78247735D01*
X106528153Y-78298116D01*
X106532374Y-78318246D01*
X106540926Y-78369491D01*
X106557794Y-78418626D01*
X106563666Y-78438347D01*
X106576421Y-78488715D01*
X106597290Y-78536293D01*
X106604768Y-78555459D01*
X106621640Y-78604603D01*
X106646366Y-78650293D01*
X106655403Y-78668778D01*
X106676276Y-78716362D01*
X106704695Y-78759861D01*
X106715229Y-78777539D01*
X106739955Y-78823229D01*
X106750278Y-78836492D01*
X106771862Y-78864223D01*
X106783817Y-78880968D01*
X106812239Y-78924471D01*
X106847431Y-78962699D01*
X106860733Y-78978404D01*
X106892639Y-79019397D01*
X106930866Y-79054589D01*
X106945409Y-79069132D01*
X106961602Y-79086721D01*
X106980603Y-79107361D01*
X107021596Y-79139267D01*
X107037299Y-79152567D01*
X107075524Y-79187756D01*
X107075526Y-79187757D01*
X107075529Y-79187760D01*
X107119039Y-79216186D01*
X107135763Y-79228127D01*
X107176771Y-79260045D01*
X107222482Y-79284781D01*
X107240131Y-79295299D01*
X107283637Y-79323723D01*
X107331198Y-79344585D01*
X107331212Y-79344591D01*
X107349697Y-79353628D01*
X107395396Y-79378359D01*
X107444551Y-79395234D01*
X107463695Y-79402704D01*
X107511285Y-79423579D01*
X107561663Y-79436335D01*
X107581369Y-79442203D01*
X107595777Y-79447149D01*
X107630511Y-79459074D01*
X107681754Y-79467625D01*
X107701890Y-79471846D01*
X107752264Y-79484603D01*
X107804054Y-79488893D01*
X107824449Y-79491435D01*
X107875707Y-79499990D01*
X107937957Y-79499990D01*
X108124291Y-79499990D01*
X108124293Y-79499990D01*
X108175547Y-79491436D01*
X108195946Y-79488893D01*
X108247736Y-79484603D01*
X108298118Y-79471844D01*
X108318247Y-79467624D01*
X108337255Y-79464452D01*
X108369483Y-79459075D01*
X108369483Y-79459074D01*
X108369488Y-79459074D01*
X108418631Y-79442202D01*
X108438342Y-79436335D01*
X108473514Y-79427428D01*
X108488715Y-79423579D01*
X108536311Y-79402700D01*
X108555454Y-79395231D01*
X108604604Y-79378359D01*
X108650309Y-79353623D01*
X108668769Y-79344599D01*
X108716363Y-79323723D01*
X108759851Y-79295310D01*
X108759853Y-79295309D01*
X108777529Y-79284775D01*
X108823229Y-79260045D01*
X108843714Y-79244099D01*
X108864228Y-79228134D01*
X108880985Y-79216170D01*
X108890143Y-79210187D01*
X108924471Y-79187760D01*
X108947172Y-79166862D01*
X108962694Y-79152573D01*
X108978404Y-79139267D01*
X109019393Y-79107364D01*
X109019392Y-79107364D01*
X109019397Y-79107361D01*
X109054594Y-79069126D01*
X109069132Y-79054589D01*
X109107361Y-79019397D01*
X109114221Y-79010583D01*
X109139267Y-78978404D01*
X109152573Y-78962694D01*
X109187759Y-78924472D01*
X109188249Y-78923723D01*
X109216169Y-78880985D01*
X109228134Y-78864228D01*
X109246681Y-78840399D01*
X109260045Y-78823229D01*
X109284775Y-78777529D01*
X109295309Y-78759853D01*
X109323720Y-78716367D01*
X109323723Y-78716363D01*
X109344599Y-78668769D01*
X109353628Y-78650301D01*
X109378359Y-78604604D01*
X109395231Y-78555454D01*
X109402700Y-78536311D01*
X109423579Y-78488715D01*
X109432753Y-78452485D01*
X109436335Y-78438342D01*
X109442204Y-78418626D01*
X109459074Y-78369488D01*
X109460681Y-78359861D01*
X109467624Y-78318250D01*
X109471845Y-78298116D01*
X109484603Y-78247736D01*
X109488893Y-78195946D01*
X109491436Y-78175547D01*
X109499990Y-78124293D01*
X109499990Y-78072346D01*
X109500840Y-78051786D01*
X109502350Y-78033561D01*
X109511777Y-78000000D01*
X109502350Y-77966439D01*
X109500840Y-77948214D01*
X109499990Y-77927654D01*
X109499990Y-77875709D01*
X109499990Y-77875707D01*
X109491435Y-77824449D01*
X109488893Y-77804048D01*
X109484603Y-77752264D01*
X109471845Y-77701883D01*
X109467625Y-77681754D01*
X109459074Y-77630511D01*
X109442204Y-77581373D01*
X109436335Y-77561663D01*
X109423579Y-77511285D01*
X109402704Y-77463695D01*
X109395231Y-77444544D01*
X109378359Y-77395396D01*
X109353630Y-77349701D01*
X109344591Y-77331212D01*
X109331732Y-77301896D01*
X109323723Y-77283637D01*
X109295299Y-77240131D01*
X109284781Y-77222482D01*
X109260045Y-77176771D01*
X109228127Y-77135763D01*
X109216180Y-77119030D01*
X109187760Y-77075529D01*
X109187757Y-77075526D01*
X109187756Y-77075524D01*
X109152567Y-77037299D01*
X109139265Y-77021594D01*
X109131221Y-77011259D01*
X109107361Y-76980603D01*
X109073796Y-76949703D01*
X109069132Y-76945409D01*
X109054589Y-76930866D01*
X109019397Y-76892639D01*
X109007835Y-76883640D01*
X108978399Y-76860729D01*
X108962699Y-76847431D01*
X108924471Y-76812239D01*
X108880968Y-76783817D01*
X108864223Y-76771862D01*
X108845988Y-76757669D01*
X108823229Y-76739955D01*
X108777540Y-76715229D01*
X108759861Y-76704695D01*
X108716362Y-76676276D01*
X108668778Y-76655403D01*
X108650293Y-76646366D01*
X108604603Y-76621640D01*
X108555459Y-76604768D01*
X108536293Y-76597290D01*
X108488715Y-76576421D01*
X108438347Y-76563666D01*
X108418626Y-76557794D01*
X108369491Y-76540926D01*
X108318246Y-76532374D01*
X108298116Y-76528153D01*
X108247735Y-76515396D01*
X108195952Y-76511105D01*
X108175533Y-76508560D01*
X108124295Y-76500010D01*
X108124293Y-76500010D01*
X107875707Y-76500010D01*
X107875705Y-76500010D01*
X107824467Y-76508560D01*
X107804048Y-76511105D01*
X107752265Y-76515396D01*
X107701883Y-76528153D01*
X107681759Y-76532373D01*
X107630506Y-76540927D01*
X107581371Y-76557795D01*
X107561659Y-76563664D01*
X107544157Y-76568096D01*
X107511282Y-76576421D01*
X107463696Y-76597294D01*
X107444533Y-76604771D01*
X107395395Y-76621640D01*
X107349698Y-76646370D01*
X107331218Y-76655404D01*
X107283640Y-76676274D01*
X107240146Y-76704690D01*
X107222476Y-76715219D01*
X107176770Y-76739955D01*
X107135773Y-76771864D01*
X107119030Y-76783818D01*
X107075530Y-76812238D01*
X107037297Y-76847434D01*
X107021599Y-76860729D01*
X106980606Y-76892635D01*
X106945405Y-76930871D01*
X106930871Y-76945405D01*
X106892635Y-76980606D01*
X106860729Y-77021599D01*
X106847434Y-77037297D01*
X106812238Y-77075530D01*
X106783818Y-77119030D01*
X106771864Y-77135773D01*
X106739955Y-77176770D01*
X106715219Y-77222476D01*
X106704690Y-77240146D01*
X106676274Y-77283640D01*
X106655404Y-77331218D01*
X106646370Y-77349698D01*
X106621640Y-77395395D01*
X106604771Y-77444533D01*
X106597294Y-77463696D01*
X106576421Y-77511282D01*
X106568096Y-77544157D01*
X106563670Y-77561640D01*
X106563667Y-77561650D01*
X106557795Y-77581371D01*
X106540927Y-77630506D01*
X106532373Y-77681759D01*
X106528153Y-77701883D01*
X106515396Y-77752265D01*
X106511105Y-77804048D01*
X106508560Y-77824467D01*
X106500010Y-77875705D01*
X106500010Y-77927654D01*
X106499160Y-77948214D01*
X106494869Y-78000000D01*
X101191695Y-78000000D01*
X101914698Y-77276997D01*
X101936485Y-77258570D01*
X101940396Y-77254467D01*
X101940399Y-77254466D01*
X102003320Y-77188474D01*
X102007377Y-77184318D01*
X102033762Y-77157935D01*
X102036637Y-77154452D01*
X102048419Y-77141176D01*
X102088727Y-77098903D01*
X102102561Y-77077377D01*
X102120021Y-77053462D01*
X102136322Y-77033721D01*
X102164307Y-76982468D01*
X102173354Y-76967218D01*
X102204935Y-76918080D01*
X102205535Y-76916580D01*
X102258287Y-76835422D01*
X102338005Y-76780511D01*
X102432639Y-76760149D01*
X102527887Y-76777413D01*
X102609354Y-76829695D01*
X102652621Y-76891733D01*
X102653231Y-76891336D01*
X102791418Y-77102846D01*
X102948555Y-77273542D01*
X103131647Y-77416049D01*
X103335702Y-77526478D01*
X103555139Y-77601811D01*
X103649999Y-77617641D01*
X103650000Y-77617641D01*
X104150000Y-77617641D01*
X104244860Y-77601811D01*
X104464297Y-77526478D01*
X104668352Y-77416049D01*
X104851444Y-77273542D01*
X105008581Y-77102846D01*
X105135482Y-76908610D01*
X105228682Y-76696135D01*
X105280883Y-76490000D01*
X104150001Y-76490000D01*
X104150000Y-76490001D01*
X104150000Y-77617641D01*
X103650000Y-77617641D01*
X103650000Y-76239000D01*
X103668954Y-76143712D01*
X103722930Y-76062930D01*
X103803712Y-76008954D01*
X103899000Y-75990000D01*
X105280882Y-75990000D01*
X105228682Y-75783864D01*
X105135482Y-75571389D01*
X105008581Y-75377153D01*
X104851446Y-75206459D01*
X104800507Y-75166811D01*
X104740603Y-75099537D01*
X104708555Y-75015352D01*
X104708556Y-74925274D01*
X104740606Y-74841090D01*
X104800507Y-74773822D01*
X104851784Y-74733913D01*
X105008979Y-74563153D01*
X105135924Y-74368849D01*
X105229157Y-74156300D01*
X105286134Y-73931305D01*
X105305300Y-73700000D01*
X105286134Y-73468695D01*
X105279390Y-73442065D01*
X105246033Y-73310340D01*
X105229157Y-73243700D01*
X105135924Y-73031151D01*
X105008979Y-72836847D01*
X104851784Y-72666087D01*
X104800916Y-72626495D01*
X104741012Y-72559225D01*
X104708962Y-72475040D01*
X104708962Y-72384960D01*
X104741012Y-72300775D01*
X104800916Y-72233504D01*
X104851784Y-72193913D01*
X105008979Y-72023153D01*
X105135924Y-71828849D01*
X105229157Y-71616300D01*
X105286134Y-71391305D01*
X105305300Y-71160000D01*
X105286134Y-70928695D01*
X105282949Y-70916119D01*
X105229157Y-70703701D01*
X105216485Y-70674812D01*
X105135924Y-70491151D01*
X105008979Y-70296847D01*
X104851784Y-70126087D01*
X104800916Y-70086495D01*
X104741012Y-70019225D01*
X104708962Y-69935040D01*
X104708962Y-69844960D01*
X104741012Y-69760775D01*
X104800916Y-69693504D01*
X104851784Y-69653913D01*
X105008979Y-69483153D01*
X105135924Y-69288849D01*
X105229157Y-69076300D01*
X105286134Y-68851305D01*
X105305300Y-68620000D01*
X105286134Y-68388695D01*
X105285621Y-68386671D01*
X105251568Y-68252199D01*
X105229157Y-68163700D01*
X105135924Y-67951151D01*
X105008979Y-67756847D01*
X104851784Y-67586087D01*
X104800916Y-67546495D01*
X104741012Y-67479225D01*
X104708962Y-67395040D01*
X104708962Y-67304960D01*
X104741012Y-67220775D01*
X104800916Y-67153504D01*
X104851784Y-67113913D01*
X105008979Y-66943153D01*
X105135924Y-66748849D01*
X105229157Y-66536300D01*
X105286134Y-66311305D01*
X105305300Y-66080000D01*
X105286134Y-65848695D01*
X105229157Y-65623700D01*
X105135924Y-65411151D01*
X105008979Y-65216847D01*
X104851784Y-65046087D01*
X104800916Y-65006495D01*
X104741012Y-64939225D01*
X104708962Y-64855040D01*
X104708962Y-64764960D01*
X104741012Y-64680775D01*
X104800916Y-64613504D01*
X104851784Y-64573913D01*
X105008979Y-64403153D01*
X105135924Y-64208849D01*
X105229157Y-63996300D01*
X105286134Y-63771305D01*
X105305300Y-63540000D01*
X105286134Y-63308695D01*
X105261507Y-63211448D01*
X105244100Y-63142707D01*
X105229157Y-63083700D01*
X105135924Y-62871151D01*
X105008979Y-62676847D01*
X104851784Y-62506087D01*
X104800916Y-62466495D01*
X104741012Y-62399225D01*
X104708962Y-62315040D01*
X104708962Y-62224960D01*
X104741012Y-62140775D01*
X104800916Y-62073504D01*
X104851784Y-62033913D01*
X105008979Y-61863153D01*
X105135924Y-61668849D01*
X105229157Y-61456300D01*
X105286134Y-61231305D01*
X105305300Y-61000000D01*
X105286134Y-60768695D01*
X105280890Y-60747989D01*
X105238292Y-60579772D01*
X105229157Y-60543700D01*
X105135924Y-60331151D01*
X105008979Y-60136847D01*
X105008977Y-60136845D01*
X105001289Y-60125077D01*
X104965806Y-60038840D01*
X104964536Y-59945598D01*
X104997657Y-59858427D01*
X105060523Y-59789553D01*
X105157189Y-59717188D01*
X105243352Y-59602090D01*
X105293598Y-59467373D01*
X105300000Y-59407831D01*
X105300000Y-58710001D01*
X105299999Y-58710000D01*
X103899000Y-58710000D01*
X103803712Y-58691046D01*
X103722930Y-58637070D01*
X103668954Y-58556288D01*
X103650000Y-58461000D01*
X103650000Y-58209999D01*
X104150000Y-58209999D01*
X104150001Y-58210000D01*
X105299999Y-58210000D01*
X105300000Y-58209999D01*
X105300000Y-57512169D01*
X105293598Y-57452626D01*
X105243352Y-57317909D01*
X105157189Y-57202810D01*
X105042090Y-57116647D01*
X104907373Y-57066401D01*
X104847831Y-57060000D01*
X104150001Y-57060000D01*
X104150000Y-57060001D01*
X104150000Y-58209999D01*
X103650000Y-58209999D01*
X103650000Y-57060001D01*
X103649999Y-57060000D01*
X102952169Y-57060000D01*
X102892626Y-57066401D01*
X102757909Y-57116647D01*
X102642810Y-57202810D01*
X102556647Y-57317909D01*
X102506401Y-57452626D01*
X102500000Y-57512169D01*
X102500000Y-57640078D01*
X102484595Y-57726301D01*
X102440286Y-57801856D01*
X102372555Y-57857392D01*
X102289783Y-57886039D01*
X102202213Y-57884252D01*
X102120679Y-57852251D01*
X102055271Y-57793997D01*
X102015044Y-57742843D01*
X102004565Y-57728492D01*
X101971845Y-57680149D01*
X101971843Y-57680146D01*
X101953735Y-57662038D01*
X101934094Y-57639908D01*
X101918268Y-57619783D01*
X101896029Y-57600513D01*
X101874144Y-57581549D01*
X101861135Y-57569438D01*
X100976998Y-56685301D01*
X100958573Y-56663518D01*
X100954468Y-56659604D01*
X100954466Y-56659601D01*
X100888480Y-56596684D01*
X100884281Y-56592583D01*
X100857933Y-56566236D01*
X100854449Y-56563359D01*
X100841162Y-56551566D01*
X100798905Y-56511275D01*
X100798903Y-56511273D01*
X100777365Y-56497430D01*
X100753465Y-56479979D01*
X100733721Y-56463678D01*
X100733719Y-56463677D01*
X100733718Y-56463676D01*
X100682480Y-56435698D01*
X100667195Y-56426629D01*
X100618083Y-56395067D01*
X100618080Y-56395065D01*
X100594310Y-56385548D01*
X100567533Y-56372932D01*
X100545068Y-56360665D01*
X100489454Y-56342887D01*
X100472730Y-56336875D01*
X100418530Y-56315177D01*
X100393407Y-56310335D01*
X100364715Y-56303012D01*
X100340334Y-56295218D01*
X100291195Y-56289343D01*
X100282344Y-56288284D01*
X100264791Y-56285547D01*
X100207472Y-56274500D01*
X100181885Y-56274500D01*
X100152323Y-56272739D01*
X100126906Y-56269700D01*
X100091113Y-56272260D01*
X100068658Y-56273866D01*
X100050895Y-56274500D01*
X98702942Y-56274500D01*
X98617242Y-56259287D01*
X98542014Y-56215508D01*
X98486449Y-56148511D01*
X98457338Y-56066484D01*
X98458237Y-55979449D01*
X98489038Y-55898041D01*
X98545975Y-55832207D01*
X98622092Y-55789992D01*
X98762763Y-55741699D01*
X98814426Y-55723963D01*
X99014906Y-55615469D01*
X99194794Y-55475456D01*
X99346805Y-55310327D01*
X99411489Y-55259983D01*
X99489016Y-55233368D01*
X99570984Y-55233368D01*
X99648511Y-55259983D01*
X99713194Y-55310327D01*
X99865206Y-55475456D01*
X100045094Y-55615469D01*
X100045097Y-55615471D01*
X100045099Y-55615472D01*
X100244722Y-55723502D01*
X100245574Y-55723963D01*
X100461177Y-55797980D01*
X100686023Y-55835500D01*
X100913977Y-55835500D01*
X101138823Y-55797980D01*
X101354426Y-55723963D01*
X101554906Y-55615469D01*
X101734794Y-55475456D01*
X101886805Y-55310327D01*
X101951489Y-55259983D01*
X102029016Y-55233368D01*
X102110984Y-55233368D01*
X102188511Y-55259983D01*
X102253194Y-55310327D01*
X102405206Y-55475456D01*
X102585094Y-55615469D01*
X102585097Y-55615471D01*
X102585099Y-55615472D01*
X102784722Y-55723502D01*
X102785574Y-55723963D01*
X103001177Y-55797980D01*
X103226023Y-55835500D01*
X103453977Y-55835500D01*
X103678823Y-55797980D01*
X103894426Y-55723963D01*
X104094906Y-55615469D01*
X104274794Y-55475456D01*
X104426805Y-55310327D01*
X104491489Y-55259983D01*
X104569016Y-55233368D01*
X104650984Y-55233368D01*
X104728511Y-55259983D01*
X104793194Y-55310327D01*
X104945206Y-55475456D01*
X105125094Y-55615469D01*
X105125097Y-55615471D01*
X105125099Y-55615472D01*
X105324722Y-55723502D01*
X105325574Y-55723963D01*
X105541177Y-55797980D01*
X105766023Y-55835500D01*
X105993977Y-55835500D01*
X106218823Y-55797980D01*
X106434426Y-55723963D01*
X106634906Y-55615469D01*
X106814794Y-55475456D01*
X106966805Y-55310327D01*
X107031489Y-55259983D01*
X107109016Y-55233368D01*
X107190984Y-55233368D01*
X107268511Y-55259983D01*
X107333194Y-55310327D01*
X107485206Y-55475456D01*
X107665094Y-55615469D01*
X107665097Y-55615471D01*
X107665099Y-55615472D01*
X107864722Y-55723502D01*
X107865574Y-55723963D01*
X108081177Y-55797980D01*
X108306023Y-55835500D01*
X108533977Y-55835500D01*
X108758823Y-55797980D01*
X108974426Y-55723963D01*
X109174906Y-55615469D01*
X109354794Y-55475456D01*
X109509183Y-55307745D01*
X109515488Y-55298094D01*
X109542046Y-55257446D01*
X109604618Y-55191846D01*
X109686528Y-55152994D01*
X109776918Y-55146041D01*
X109863806Y-55171909D01*
X109935674Y-55227168D01*
X109982997Y-55304494D01*
X109999500Y-55393636D01*
X109999500Y-77945879D01*
X109989024Y-78000000D01*
X109999500Y-78054121D01*
X109999500Y-79750500D01*
X109980546Y-79845788D01*
X109926570Y-79926570D01*
X109845788Y-79980546D01*
X109750500Y-79999500D01*
X40249500Y-79999500D01*
X40154212Y-79980546D01*
X40073430Y-79926570D01*
X40019454Y-79845788D01*
X40000500Y-79750500D01*
X40000500Y-78191261D01*
X40019174Y-78096652D01*
X40072394Y-78016234D01*
X40152179Y-77962068D01*
X40246561Y-77942278D01*
X40341384Y-77959834D01*
X40422425Y-78012102D01*
X40477529Y-78091242D01*
X40497290Y-78136294D01*
X40504768Y-78155459D01*
X40521640Y-78204603D01*
X40546366Y-78250293D01*
X40555403Y-78268778D01*
X40576276Y-78316362D01*
X40604695Y-78359861D01*
X40615229Y-78377539D01*
X40639955Y-78423229D01*
X40651718Y-78438342D01*
X40671862Y-78464223D01*
X40683817Y-78480968D01*
X40712239Y-78524471D01*
X40747431Y-78562699D01*
X40760733Y-78578404D01*
X40792639Y-78619397D01*
X40830866Y-78654589D01*
X40845409Y-78669132D01*
X40845413Y-78669136D01*
X40880603Y-78707361D01*
X40921596Y-78739267D01*
X40937299Y-78752567D01*
X40975524Y-78787756D01*
X40975526Y-78787757D01*
X40975529Y-78787760D01*
X41019039Y-78816186D01*
X41035763Y-78828127D01*
X41076771Y-78860045D01*
X41122482Y-78884781D01*
X41140131Y-78895299D01*
X41183637Y-78923723D01*
X41231198Y-78944585D01*
X41231212Y-78944591D01*
X41249703Y-78953631D01*
X41289946Y-78975410D01*
X41295396Y-78978359D01*
X41344551Y-78995234D01*
X41363695Y-79002704D01*
X41411285Y-79023579D01*
X41461663Y-79036335D01*
X41481369Y-79042203D01*
X41486004Y-79043794D01*
X41530511Y-79059074D01*
X41581754Y-79067625D01*
X41601890Y-79071846D01*
X41652264Y-79084603D01*
X41704054Y-79088893D01*
X41724449Y-79091435D01*
X41775707Y-79099990D01*
X41837957Y-79099990D01*
X42024291Y-79099990D01*
X42024293Y-79099990D01*
X42075547Y-79091436D01*
X42095946Y-79088893D01*
X42147736Y-79084603D01*
X42198118Y-79071844D01*
X42218247Y-79067624D01*
X42246806Y-79062859D01*
X42269483Y-79059075D01*
X42269483Y-79059074D01*
X42269488Y-79059074D01*
X42318631Y-79042202D01*
X42338342Y-79036335D01*
X42373514Y-79027428D01*
X42388715Y-79023579D01*
X42436311Y-79002700D01*
X42455454Y-78995231D01*
X42504604Y-78978359D01*
X42550309Y-78953623D01*
X42568769Y-78944599D01*
X42616363Y-78923723D01*
X42659851Y-78895310D01*
X42659853Y-78895309D01*
X42677529Y-78884775D01*
X42723229Y-78860045D01*
X42745987Y-78842331D01*
X42764228Y-78828134D01*
X42780985Y-78816170D01*
X42786251Y-78812729D01*
X42824471Y-78787760D01*
X42835574Y-78777539D01*
X42862694Y-78752573D01*
X42878404Y-78739267D01*
X42919393Y-78707364D01*
X42919392Y-78707364D01*
X42919397Y-78707361D01*
X42954594Y-78669126D01*
X42969132Y-78654589D01*
X43007361Y-78619397D01*
X43018875Y-78604604D01*
X43039267Y-78578404D01*
X43052573Y-78562694D01*
X43087759Y-78524472D01*
X43116170Y-78480985D01*
X43128134Y-78464228D01*
X43148282Y-78438342D01*
X43160045Y-78423229D01*
X43184775Y-78377529D01*
X43195309Y-78359853D01*
X43222490Y-78318250D01*
X43223723Y-78316363D01*
X43244599Y-78268769D01*
X43253628Y-78250301D01*
X43278359Y-78204604D01*
X43295231Y-78155454D01*
X43302708Y-78136294D01*
X43323579Y-78088715D01*
X43332930Y-78051786D01*
X43336335Y-78038342D01*
X43342202Y-78018631D01*
X43359074Y-77969488D01*
X43367624Y-77918247D01*
X43371844Y-77898118D01*
X43384603Y-77847736D01*
X43388893Y-77795946D01*
X43391436Y-77775547D01*
X43399990Y-77724293D01*
X43399990Y-77672346D01*
X43400840Y-77651786D01*
X43401178Y-77647701D01*
X43405131Y-77600000D01*
X43400840Y-77548214D01*
X43399990Y-77527654D01*
X43399990Y-77475709D01*
X43397989Y-77463718D01*
X43391435Y-77424449D01*
X43388893Y-77404054D01*
X43384603Y-77352264D01*
X43371846Y-77301890D01*
X43367625Y-77281754D01*
X43359074Y-77230511D01*
X43342204Y-77181373D01*
X43336335Y-77161663D01*
X43323579Y-77111285D01*
X43302704Y-77063694D01*
X43295231Y-77044544D01*
X43278359Y-76995396D01*
X43253630Y-76949701D01*
X43244591Y-76931212D01*
X43223723Y-76883637D01*
X43195299Y-76840131D01*
X43184781Y-76822482D01*
X43160045Y-76776771D01*
X43128127Y-76735763D01*
X43116180Y-76719030D01*
X43087760Y-76675529D01*
X43087757Y-76675526D01*
X43087756Y-76675524D01*
X43052567Y-76637299D01*
X43039265Y-76621594D01*
X43033332Y-76613971D01*
X43007361Y-76580603D01*
X42982585Y-76557794D01*
X42969132Y-76545409D01*
X42954589Y-76530866D01*
X42919397Y-76492639D01*
X42878404Y-76460733D01*
X42862699Y-76447431D01*
X42824471Y-76412239D01*
X42780968Y-76383817D01*
X42764223Y-76371862D01*
X42746254Y-76357876D01*
X42723229Y-76339955D01*
X42677540Y-76315229D01*
X42659861Y-76304695D01*
X42616362Y-76276276D01*
X42568778Y-76255403D01*
X42550293Y-76246366D01*
X42504603Y-76221640D01*
X42455459Y-76204768D01*
X42436293Y-76197290D01*
X42388715Y-76176421D01*
X42338347Y-76163666D01*
X42318626Y-76157794D01*
X42269491Y-76140926D01*
X42218246Y-76132374D01*
X42198116Y-76128153D01*
X42147735Y-76115396D01*
X42095952Y-76111105D01*
X42075533Y-76108560D01*
X42024295Y-76100010D01*
X42024293Y-76100010D01*
X41775707Y-76100010D01*
X41775705Y-76100010D01*
X41724467Y-76108560D01*
X41704048Y-76111105D01*
X41652265Y-76115396D01*
X41601883Y-76128153D01*
X41581759Y-76132373D01*
X41530506Y-76140927D01*
X41481371Y-76157795D01*
X41461659Y-76163664D01*
X41444157Y-76168096D01*
X41411282Y-76176421D01*
X41363696Y-76197294D01*
X41344533Y-76204771D01*
X41295395Y-76221640D01*
X41249698Y-76246370D01*
X41231218Y-76255404D01*
X41183640Y-76276274D01*
X41140146Y-76304690D01*
X41122476Y-76315219D01*
X41076770Y-76339955D01*
X41035773Y-76371864D01*
X41019030Y-76383818D01*
X40975530Y-76412238D01*
X40937297Y-76447434D01*
X40921599Y-76460729D01*
X40880606Y-76492635D01*
X40845405Y-76530871D01*
X40830871Y-76545405D01*
X40792635Y-76580606D01*
X40760729Y-76621599D01*
X40747434Y-76637297D01*
X40712238Y-76675530D01*
X40683818Y-76719030D01*
X40671864Y-76735773D01*
X40639955Y-76776770D01*
X40615219Y-76822476D01*
X40604690Y-76840146D01*
X40576274Y-76883640D01*
X40555404Y-76931218D01*
X40546370Y-76949698D01*
X40521640Y-76995395D01*
X40504771Y-77044533D01*
X40497295Y-77063694D01*
X40477531Y-77108755D01*
X40422427Y-77187897D01*
X40341387Y-77240166D01*
X40246563Y-77257723D01*
X40152181Y-77237934D01*
X40072395Y-77183768D01*
X40019174Y-77103349D01*
X40000500Y-77008740D01*
X40000500Y-75676250D01*
X44864592Y-75676250D01*
X44870730Y-75758153D01*
X44884198Y-75937881D01*
X44942580Y-76193669D01*
X45034120Y-76426906D01*
X45038432Y-76437893D01*
X45169614Y-76665107D01*
X45261646Y-76780511D01*
X45333194Y-76870230D01*
X45525522Y-77048684D01*
X45729710Y-77187897D01*
X45742296Y-77196478D01*
X45978677Y-77310313D01*
X46229385Y-77387646D01*
X46488818Y-77426750D01*
X46751181Y-77426750D01*
X46751182Y-77426750D01*
X47010615Y-77387646D01*
X47261323Y-77310313D01*
X47497704Y-77196478D01*
X47714479Y-77048683D01*
X47906805Y-76870231D01*
X48070386Y-76665107D01*
X48201568Y-76437893D01*
X48297420Y-76193666D01*
X48355802Y-75937880D01*
X48375408Y-75676250D01*
X49944592Y-75676250D01*
X49950730Y-75758153D01*
X49964198Y-75937881D01*
X50022580Y-76193669D01*
X50114120Y-76426906D01*
X50118432Y-76437893D01*
X50249614Y-76665107D01*
X50341646Y-76780511D01*
X50413194Y-76870230D01*
X50605522Y-77048684D01*
X50809710Y-77187897D01*
X50822296Y-77196478D01*
X51058677Y-77310313D01*
X51309385Y-77387646D01*
X51568818Y-77426750D01*
X51831181Y-77426750D01*
X51831182Y-77426750D01*
X52090615Y-77387646D01*
X52341323Y-77310313D01*
X52577704Y-77196478D01*
X52794479Y-77048683D01*
X52986805Y-76870231D01*
X53150386Y-76665107D01*
X53281568Y-76437893D01*
X53377420Y-76193666D01*
X53435802Y-75937880D01*
X53455408Y-75676250D01*
X55864592Y-75676250D01*
X55870730Y-75758153D01*
X55884198Y-75937881D01*
X55942580Y-76193669D01*
X56034120Y-76426906D01*
X56038432Y-76437893D01*
X56169614Y-76665107D01*
X56261646Y-76780511D01*
X56333194Y-76870230D01*
X56525522Y-77048684D01*
X56729710Y-77187897D01*
X56742296Y-77196478D01*
X56978677Y-77310313D01*
X57229385Y-77387646D01*
X57488818Y-77426750D01*
X57751181Y-77426750D01*
X57751182Y-77426750D01*
X58010615Y-77387646D01*
X58261323Y-77310313D01*
X58497704Y-77196478D01*
X58714479Y-77048683D01*
X58906805Y-76870231D01*
X59070386Y-76665107D01*
X59201568Y-76437893D01*
X59297420Y-76193666D01*
X59355802Y-75937880D01*
X59375408Y-75676250D01*
X59355802Y-75414620D01*
X59297420Y-75158834D01*
X59297419Y-75158833D01*
X59297419Y-75158830D01*
X59201568Y-74914608D01*
X59201568Y-74914607D01*
X59070386Y-74687393D01*
X58906805Y-74482269D01*
X58757247Y-74343500D01*
X58714477Y-74303815D01*
X58497703Y-74156021D01*
X58261326Y-74042188D01*
X58010613Y-73964853D01*
X57788036Y-73931305D01*
X57751182Y-73925750D01*
X57488818Y-73925750D01*
X57451964Y-73931305D01*
X57229386Y-73964853D01*
X56978673Y-74042188D01*
X56742296Y-74156021D01*
X56525522Y-74303815D01*
X56333194Y-74482269D01*
X56169613Y-74687394D01*
X56038431Y-74914608D01*
X55942580Y-75158830D01*
X55884198Y-75414618D01*
X55876317Y-75519783D01*
X55864592Y-75676250D01*
X53455408Y-75676250D01*
X53435802Y-75414620D01*
X53377420Y-75158834D01*
X53377419Y-75158833D01*
X53377419Y-75158830D01*
X53281568Y-74914608D01*
X53281568Y-74914607D01*
X53150386Y-74687393D01*
X52986805Y-74482269D01*
X52837247Y-74343500D01*
X52794477Y-74303815D01*
X52577703Y-74156021D01*
X52341326Y-74042188D01*
X52090613Y-73964853D01*
X51868036Y-73931305D01*
X51831182Y-73925750D01*
X51568818Y-73925750D01*
X51531964Y-73931305D01*
X51309386Y-73964853D01*
X51058673Y-74042188D01*
X50822296Y-74156021D01*
X50605522Y-74303815D01*
X50413194Y-74482269D01*
X50249613Y-74687394D01*
X50118431Y-74914608D01*
X50022580Y-75158830D01*
X49964198Y-75414618D01*
X49956317Y-75519783D01*
X49944592Y-75676250D01*
X48375408Y-75676250D01*
X48355802Y-75414620D01*
X48297420Y-75158834D01*
X48297419Y-75158833D01*
X48297419Y-75158830D01*
X48201568Y-74914608D01*
X48201568Y-74914607D01*
X48070386Y-74687393D01*
X47906805Y-74482269D01*
X47757247Y-74343500D01*
X47714477Y-74303815D01*
X47497703Y-74156021D01*
X47261326Y-74042188D01*
X47010613Y-73964853D01*
X46788036Y-73931305D01*
X46751182Y-73925750D01*
X46488818Y-73925750D01*
X46451964Y-73931305D01*
X46229386Y-73964853D01*
X45978673Y-74042188D01*
X45742296Y-74156021D01*
X45525522Y-74303815D01*
X45333194Y-74482269D01*
X45169613Y-74687394D01*
X45038431Y-74914608D01*
X44942580Y-75158830D01*
X44884198Y-75414618D01*
X44876317Y-75519783D01*
X44864592Y-75676250D01*
X40000500Y-75676250D01*
X40000500Y-68582721D01*
X43850832Y-68582721D01*
X44022547Y-68699794D01*
X44258860Y-68813597D01*
X44509493Y-68890907D01*
X44768856Y-68930000D01*
X45031144Y-68930000D01*
X45290506Y-68890907D01*
X45541139Y-68813596D01*
X45777450Y-68699796D01*
X45949166Y-68582721D01*
X44899999Y-67533554D01*
X43850832Y-68582721D01*
X40000500Y-68582721D01*
X40000500Y-67180000D01*
X43145093Y-67180000D01*
X43164694Y-67441557D01*
X43223058Y-67697265D01*
X43318884Y-67941426D01*
X43450028Y-68168574D01*
X43497873Y-68228570D01*
X44546444Y-67179999D01*
X45253554Y-67179999D01*
X46302125Y-68228570D01*
X46349969Y-68168576D01*
X46481115Y-67941426D01*
X46576941Y-67697265D01*
X46635305Y-67441557D01*
X46654906Y-67180000D01*
X46635305Y-66918442D01*
X46576941Y-66662734D01*
X46481114Y-66418569D01*
X46349972Y-66191426D01*
X46302124Y-66131428D01*
X45253554Y-67179999D01*
X44546444Y-67179999D01*
X43497873Y-66131428D01*
X43450025Y-66191428D01*
X43318885Y-66418569D01*
X43223058Y-66662734D01*
X43164694Y-66918442D01*
X43145093Y-67180000D01*
X40000500Y-67180000D01*
X40000500Y-65777278D01*
X43850832Y-65777278D01*
X44899999Y-66826445D01*
X45949166Y-65777277D01*
X45777448Y-65660203D01*
X45541139Y-65546402D01*
X45290506Y-65469092D01*
X45031144Y-65430000D01*
X44768856Y-65430000D01*
X44509493Y-65469092D01*
X44258860Y-65546402D01*
X44022548Y-65660205D01*
X43850832Y-65777278D01*
X40000500Y-65777278D01*
X40000500Y-62100000D01*
X43144592Y-62100000D01*
X43164198Y-62361631D01*
X43222580Y-62617419D01*
X43318431Y-62861641D01*
X43318432Y-62861643D01*
X43449614Y-63088857D01*
X43450518Y-63089990D01*
X43613194Y-63293980D01*
X43805522Y-63472434D01*
X43845253Y-63499522D01*
X44022296Y-63620228D01*
X44258677Y-63734063D01*
X44509385Y-63811396D01*
X44768818Y-63850500D01*
X45031181Y-63850500D01*
X45031182Y-63850500D01*
X45290615Y-63811396D01*
X45541323Y-63734063D01*
X45777704Y-63620228D01*
X45994479Y-63472433D01*
X46186805Y-63293981D01*
X46350386Y-63088857D01*
X46361273Y-63070000D01*
X50854151Y-63070000D01*
X50873230Y-63288080D01*
X50917246Y-63452345D01*
X50929888Y-63499526D01*
X50992375Y-63633530D01*
X51022403Y-63697925D01*
X51145465Y-63873676D01*
X51147964Y-63877244D01*
X51302756Y-64032036D01*
X51482075Y-64157597D01*
X51680474Y-64250112D01*
X51829102Y-64289936D01*
X51891919Y-64306769D01*
X51891920Y-64306769D01*
X51891924Y-64306770D01*
X52110000Y-64325849D01*
X52328076Y-64306770D01*
X52539526Y-64250112D01*
X52737925Y-64157597D01*
X52917244Y-64032036D01*
X53072036Y-63877244D01*
X53197597Y-63697925D01*
X53290112Y-63499526D01*
X53346770Y-63288076D01*
X53365849Y-63070000D01*
X53357100Y-62970000D01*
X58454151Y-62970000D01*
X58473230Y-63188080D01*
X58516133Y-63348192D01*
X58529888Y-63399526D01*
X58576517Y-63499522D01*
X58622403Y-63597925D01*
X58729013Y-63750180D01*
X58747964Y-63777244D01*
X58902756Y-63932036D01*
X59082075Y-64057597D01*
X59280474Y-64150112D01*
X59423930Y-64188551D01*
X59491919Y-64206769D01*
X59491920Y-64206769D01*
X59491924Y-64206770D01*
X59710000Y-64225849D01*
X59928076Y-64206770D01*
X60139526Y-64150112D01*
X60337925Y-64057597D01*
X60517244Y-63932036D01*
X60672036Y-63777244D01*
X60726124Y-63699999D01*
X66015371Y-63699999D01*
X66035892Y-63947654D01*
X66096895Y-64188551D01*
X66196718Y-64416124D01*
X66296931Y-64569512D01*
X67166444Y-63699999D01*
X67873554Y-63699999D01*
X68743067Y-64569512D01*
X68843283Y-64416119D01*
X68943102Y-64188556D01*
X69004107Y-63947654D01*
X69024628Y-63700000D01*
X69004107Y-63452345D01*
X68943102Y-63211443D01*
X68843284Y-62983881D01*
X68743066Y-62830486D01*
X67873554Y-63699999D01*
X67166444Y-63699999D01*
X66296931Y-62830486D01*
X66196717Y-62983876D01*
X66096895Y-63211448D01*
X66035892Y-63452345D01*
X66015371Y-63699999D01*
X60726124Y-63699999D01*
X60797597Y-63597925D01*
X60890112Y-63399526D01*
X60946770Y-63188076D01*
X60965849Y-62970000D01*
X60946770Y-62751924D01*
X60946769Y-62751921D01*
X60946769Y-62751918D01*
X60890112Y-62540473D01*
X60797599Y-62342080D01*
X60797598Y-62342079D01*
X60797597Y-62342076D01*
X60672036Y-62162756D01*
X60598940Y-62089660D01*
X60517246Y-62007965D01*
X60368287Y-61903663D01*
X60302279Y-61835309D01*
X60266683Y-61747205D01*
X60266683Y-61652182D01*
X60291806Y-61590000D01*
X62324869Y-61590000D01*
X62345397Y-61837736D01*
X62406421Y-62078715D01*
X62453497Y-62186037D01*
X62506278Y-62306366D01*
X62642239Y-62514470D01*
X62791717Y-62676846D01*
X62810603Y-62697361D01*
X62847781Y-62726298D01*
X63006770Y-62850045D01*
X63045771Y-62871151D01*
X63225396Y-62968359D01*
X63460512Y-63049074D01*
X63705707Y-63089990D01*
X63954293Y-63089990D01*
X64199488Y-63049074D01*
X64434604Y-62968359D01*
X64653229Y-62850045D01*
X64849397Y-62697361D01*
X65017760Y-62514471D01*
X65042403Y-62476752D01*
X66650307Y-62476752D01*
X67519999Y-63346444D01*
X68389691Y-62476752D01*
X68342950Y-62440373D01*
X68124399Y-62322099D01*
X67889367Y-62241412D01*
X67644251Y-62200510D01*
X67395749Y-62200510D01*
X67150632Y-62241412D01*
X66915600Y-62322099D01*
X66697043Y-62440376D01*
X66650307Y-62476752D01*
X65042403Y-62476752D01*
X65153723Y-62306363D01*
X65253579Y-62078715D01*
X65314603Y-61837736D01*
X65335131Y-61590000D01*
X65314603Y-61342264D01*
X65253579Y-61101285D01*
X65153723Y-60873637D01*
X65153722Y-60873635D01*
X65153721Y-60873633D01*
X65017760Y-60665529D01*
X64849398Y-60482640D01*
X64827939Y-60465938D01*
X64781767Y-60430000D01*
X64653229Y-60329954D01*
X64434600Y-60211639D01*
X64309118Y-60168561D01*
X64233850Y-60127033D01*
X64177190Y-60062385D01*
X64145891Y-59982322D01*
X64143682Y-59896386D01*
X64170828Y-59814821D01*
X64224093Y-59747348D01*
X64297122Y-59702011D01*
X64451494Y-59639980D01*
X64650875Y-59517216D01*
X64686901Y-59485508D01*
X64756342Y-59442288D01*
X64836042Y-59423900D01*
X64917400Y-59432328D01*
X64991637Y-59466664D01*
X65050743Y-59523203D01*
X65137809Y-59639508D01*
X65252909Y-59725672D01*
X65387626Y-59775918D01*
X65447169Y-59782320D01*
X66119999Y-59782320D01*
X66120000Y-59782319D01*
X66620000Y-59782319D01*
X66620001Y-59782320D01*
X67292831Y-59782320D01*
X67352373Y-59775918D01*
X67487090Y-59725672D01*
X67602189Y-59639509D01*
X67688352Y-59524410D01*
X67738598Y-59389693D01*
X67745000Y-59330151D01*
X67745000Y-58432501D01*
X67744999Y-58432500D01*
X66620001Y-58432500D01*
X66620000Y-58432501D01*
X66620000Y-59782319D01*
X66120000Y-59782319D01*
X66120000Y-57932499D01*
X66620000Y-57932499D01*
X66620001Y-57932500D01*
X67744999Y-57932500D01*
X67745000Y-57932499D01*
X67745000Y-57034849D01*
X67738598Y-56975306D01*
X67688352Y-56840589D01*
X67602189Y-56725490D01*
X67487090Y-56639327D01*
X67352373Y-56589081D01*
X67292831Y-56582680D01*
X66620001Y-56582680D01*
X66620000Y-56582681D01*
X66620000Y-57932499D01*
X66120000Y-57932499D01*
X66120000Y-56582681D01*
X66119999Y-56582680D01*
X65447169Y-56582680D01*
X65387626Y-56589081D01*
X65252909Y-56639327D01*
X65137809Y-56725491D01*
X65050740Y-56841801D01*
X64978773Y-56906539D01*
X64887556Y-56938941D01*
X64790876Y-56934110D01*
X64703344Y-56892775D01*
X64642512Y-56847784D01*
X64553792Y-56782167D01*
X64535311Y-56772849D01*
X64344722Y-56676755D01*
X64217252Y-56637718D01*
X64120837Y-56608191D01*
X64120835Y-56608190D01*
X64120833Y-56608190D01*
X63888592Y-56578451D01*
X63888589Y-56578451D01*
X63789008Y-56582681D01*
X63654652Y-56588388D01*
X63425763Y-56637718D01*
X63208507Y-56725019D01*
X63009127Y-56847782D01*
X62833358Y-57002478D01*
X62686265Y-57184648D01*
X62630524Y-57284430D01*
X62577023Y-57380203D01*
X62572072Y-57389065D01*
X62494070Y-57609830D01*
X62454500Y-57840606D01*
X62454500Y-58465748D01*
X62469383Y-58640622D01*
X62528381Y-58867206D01*
X62571490Y-58962574D01*
X62624828Y-59080570D01*
X62755943Y-59274561D01*
X62917956Y-59443603D01*
X63106208Y-59582833D01*
X63144402Y-59602090D01*
X63315278Y-59688245D01*
X63340249Y-59695892D01*
X63419270Y-59736703D01*
X63478908Y-59802681D01*
X63511554Y-59885410D01*
X63513045Y-59974334D01*
X63483189Y-60058110D01*
X63425796Y-60126050D01*
X63348188Y-60169486D01*
X63225397Y-60211640D01*
X63006770Y-60329954D01*
X62810601Y-60482640D01*
X62642239Y-60665529D01*
X62506278Y-60873633D01*
X62406421Y-61101285D01*
X62345397Y-61342263D01*
X62336326Y-61451730D01*
X62324869Y-61590000D01*
X60291806Y-61590000D01*
X60302279Y-61564078D01*
X60368288Y-61495725D01*
X60399980Y-61473534D01*
X59709999Y-60783553D01*
X59020018Y-61473533D01*
X59051710Y-61495724D01*
X59117719Y-61564077D01*
X59153316Y-61652181D01*
X59153317Y-61747204D01*
X59117721Y-61835308D01*
X59051713Y-61903662D01*
X58902759Y-62007961D01*
X58747963Y-62162757D01*
X58622400Y-62342080D01*
X58529887Y-62540473D01*
X58473230Y-62751918D01*
X58454151Y-62970000D01*
X53357100Y-62970000D01*
X53346770Y-62851924D01*
X53346769Y-62851921D01*
X53346769Y-62851918D01*
X53290112Y-62640473D01*
X53197599Y-62442080D01*
X53197598Y-62442079D01*
X53197597Y-62442076D01*
X53072036Y-62262756D01*
X52995317Y-62186037D01*
X52917246Y-62107965D01*
X52774431Y-62007965D01*
X52768286Y-62003662D01*
X52702279Y-61935309D01*
X52666683Y-61847205D01*
X52666683Y-61752182D01*
X52702279Y-61664078D01*
X52768288Y-61595725D01*
X52799980Y-61573534D01*
X52109999Y-60883553D01*
X51420018Y-61573533D01*
X51451710Y-61595724D01*
X51517719Y-61664077D01*
X51553316Y-61752181D01*
X51553317Y-61847204D01*
X51517721Y-61935308D01*
X51451713Y-62003662D01*
X51302759Y-62107961D01*
X51147963Y-62262757D01*
X51022400Y-62442080D01*
X50929887Y-62640473D01*
X50873230Y-62851918D01*
X50854151Y-63070000D01*
X46361273Y-63070000D01*
X46481568Y-62861643D01*
X46577420Y-62617416D01*
X46635802Y-62361630D01*
X46655408Y-62100000D01*
X46635802Y-61838370D01*
X46577420Y-61582584D01*
X46577419Y-61582583D01*
X46577419Y-61582580D01*
X46492193Y-61365429D01*
X46481568Y-61338357D01*
X46350386Y-61111143D01*
X46186805Y-60906019D01*
X46016489Y-60747989D01*
X45994477Y-60727565D01*
X45777703Y-60579771D01*
X45674352Y-60530000D01*
X50854652Y-60530000D01*
X50873724Y-60747989D01*
X50930359Y-60959351D01*
X51022837Y-61157672D01*
X51066465Y-61219980D01*
X51756446Y-60530000D01*
X51756445Y-60529999D01*
X52463553Y-60529999D01*
X53153534Y-61219980D01*
X53197161Y-61157676D01*
X53289640Y-60959351D01*
X53346275Y-60747989D01*
X53365347Y-60530000D01*
X53356598Y-60429999D01*
X58454652Y-60429999D01*
X58473724Y-60647989D01*
X58530359Y-60859351D01*
X58622837Y-61057672D01*
X58666465Y-61119980D01*
X59356446Y-60430000D01*
X59356445Y-60429999D01*
X60063553Y-60429999D01*
X60753534Y-61119980D01*
X60797161Y-61057676D01*
X60889640Y-60859351D01*
X60946275Y-60647989D01*
X60965347Y-60429999D01*
X60946275Y-60212010D01*
X60889641Y-60000651D01*
X60797159Y-59802323D01*
X60753534Y-59740019D01*
X60753532Y-59740019D01*
X60063553Y-60429999D01*
X59356445Y-60429999D01*
X58666465Y-59740019D01*
X58622839Y-59802325D01*
X58530358Y-60000651D01*
X58473724Y-60212010D01*
X58454652Y-60429999D01*
X53356598Y-60429999D01*
X53346275Y-60312010D01*
X53289641Y-60100651D01*
X53197159Y-59902323D01*
X53153534Y-59840019D01*
X53153532Y-59840019D01*
X52463553Y-60529999D01*
X51756445Y-60529999D01*
X51066465Y-59840019D01*
X51022839Y-59902325D01*
X50930358Y-60100651D01*
X50873724Y-60312010D01*
X50854652Y-60530000D01*
X45674352Y-60530000D01*
X45541326Y-60465938D01*
X45290613Y-60388603D01*
X45077225Y-60356440D01*
X45031182Y-60349500D01*
X44768818Y-60349500D01*
X44729715Y-60355393D01*
X44509386Y-60388603D01*
X44258673Y-60465938D01*
X44022296Y-60579771D01*
X43805522Y-60727565D01*
X43613194Y-60906019D01*
X43449613Y-61111144D01*
X43318431Y-61338358D01*
X43222580Y-61582580D01*
X43164198Y-61838368D01*
X43144592Y-62100000D01*
X40000500Y-62100000D01*
X40000500Y-59486465D01*
X51420019Y-59486465D01*
X52110000Y-60176446D01*
X52799980Y-59486465D01*
X52737672Y-59442837D01*
X52616781Y-59386465D01*
X59020019Y-59386465D01*
X59710000Y-60076446D01*
X60399980Y-59386465D01*
X60337672Y-59342837D01*
X60139351Y-59250359D01*
X59927989Y-59193724D01*
X59710000Y-59174652D01*
X59492010Y-59193724D01*
X59280651Y-59250358D01*
X59082325Y-59342839D01*
X59020019Y-59386465D01*
X52616781Y-59386465D01*
X52539351Y-59350359D01*
X52327989Y-59293724D01*
X52110000Y-59274652D01*
X51892010Y-59293724D01*
X51680651Y-59350358D01*
X51482325Y-59442839D01*
X51420019Y-59486465D01*
X40000500Y-59486465D01*
X40000500Y-57717869D01*
X42994500Y-57717869D01*
X42997361Y-57744482D01*
X43000909Y-57777483D01*
X43051204Y-57912331D01*
X43056944Y-57919998D01*
X43137453Y-58027546D01*
X43175119Y-58055742D01*
X43252669Y-58113796D01*
X43387517Y-58164091D01*
X43447127Y-58170500D01*
X47352872Y-58170499D01*
X47412483Y-58164091D01*
X47547331Y-58113796D01*
X47662546Y-58027546D01*
X47748796Y-57912331D01*
X47799091Y-57777483D01*
X47805500Y-57717873D01*
X47805500Y-57347869D01*
X49504500Y-57347869D01*
X49507939Y-57379855D01*
X49510909Y-57407483D01*
X49561204Y-57542331D01*
X49586200Y-57575721D01*
X49647453Y-57657546D01*
X49690577Y-57689828D01*
X49762669Y-57743796D01*
X49897517Y-57794091D01*
X49957127Y-57800500D01*
X51802872Y-57800499D01*
X51862483Y-57794091D01*
X51997331Y-57743796D01*
X52112546Y-57657546D01*
X52198796Y-57542331D01*
X52198798Y-57542325D01*
X52199958Y-57540776D01*
X52271926Y-57476037D01*
X52363143Y-57443634D01*
X52459825Y-57448466D01*
X52547357Y-57489801D01*
X52696468Y-57600083D01*
X52905470Y-57705460D01*
X53129270Y-57773998D01*
X53169999Y-57779213D01*
X53170000Y-57779213D01*
X53170000Y-54622309D01*
X53015913Y-54655517D01*
X52798733Y-54742786D01*
X52599422Y-54865507D01*
X52563772Y-54896884D01*
X52494330Y-54940103D01*
X52414631Y-54958490D01*
X52333273Y-54950061D01*
X52259036Y-54915724D01*
X52199931Y-54859186D01*
X52198796Y-54857670D01*
X52198796Y-54857669D01*
X52112546Y-54742454D01*
X52112545Y-54742453D01*
X52111093Y-54740513D01*
X52052839Y-54677666D01*
X52019135Y-54594759D01*
X52016922Y-54505291D01*
X52046485Y-54420819D01*
X52104006Y-54352256D01*
X52182046Y-54308461D01*
X52240604Y-54288359D01*
X52459229Y-54170045D01*
X52655397Y-54017361D01*
X52823760Y-53834471D01*
X52916297Y-53692832D01*
X52943546Y-53651125D01*
X52999061Y-53590819D01*
X53071150Y-53551807D01*
X53152000Y-53538315D01*
X53232850Y-53551807D01*
X53304939Y-53590819D01*
X53360454Y-53651125D01*
X53480239Y-53834470D01*
X53643519Y-54011839D01*
X53648603Y-54017361D01*
X53763058Y-54106445D01*
X53854009Y-54177235D01*
X53915036Y-54246374D01*
X53946713Y-54332982D01*
X53944697Y-54425180D01*
X53909263Y-54510320D01*
X53845273Y-54576725D01*
X53761502Y-54615286D01*
X53670128Y-54620673D01*
X53670000Y-54620787D01*
X53670000Y-57777691D01*
X53824086Y-57744482D01*
X54041266Y-57657213D01*
X54240576Y-57534492D01*
X54416276Y-57379855D01*
X54492669Y-57285245D01*
X54563123Y-57225330D01*
X54650584Y-57195261D01*
X54742986Y-57199186D01*
X54827581Y-57236563D01*
X54869401Y-57278740D01*
X54871280Y-57276941D01*
X54885941Y-57292238D01*
X54885943Y-57292241D01*
X55047956Y-57461283D01*
X55236208Y-57600513D01*
X55337460Y-57651563D01*
X55445277Y-57705924D01*
X55445279Y-57705924D01*
X55445282Y-57705926D01*
X55669163Y-57774489D01*
X55901411Y-57804229D01*
X56135345Y-57794292D01*
X56364234Y-57744962D01*
X56581494Y-57657660D01*
X56780875Y-57534896D01*
X56956641Y-57380203D01*
X57032964Y-57285677D01*
X57103414Y-57225765D01*
X57190873Y-57195695D01*
X57283274Y-57199618D01*
X57367869Y-57236994D01*
X57409332Y-57278807D01*
X57411280Y-57276941D01*
X57425941Y-57292238D01*
X57425943Y-57292241D01*
X57587956Y-57461283D01*
X57776208Y-57600513D01*
X57877460Y-57651563D01*
X57985277Y-57705924D01*
X57985279Y-57705924D01*
X57985282Y-57705926D01*
X58209163Y-57774489D01*
X58441411Y-57804229D01*
X58675345Y-57794292D01*
X58904234Y-57744962D01*
X59121494Y-57657660D01*
X59320875Y-57534896D01*
X59496641Y-57380203D01*
X59643735Y-57198030D01*
X59757926Y-56993619D01*
X59835929Y-56772849D01*
X59854676Y-56663518D01*
X59875500Y-56542074D01*
X59875500Y-55916572D01*
X59860616Y-55741697D01*
X59801618Y-55515113D01*
X59746707Y-55393636D01*
X59705172Y-55301750D01*
X59574057Y-55107759D01*
X59412044Y-54938717D01*
X59223792Y-54799487D01*
X59220397Y-54797775D01*
X59014722Y-54694075D01*
X58891060Y-54656204D01*
X58790837Y-54625511D01*
X58790835Y-54625510D01*
X58790833Y-54625510D01*
X58651983Y-54607730D01*
X58559995Y-54576895D01*
X58486774Y-54513246D01*
X58443435Y-54426446D01*
X58436558Y-54329671D01*
X58467187Y-54237614D01*
X58530669Y-54164253D01*
X58719397Y-54017361D01*
X58887760Y-53834471D01*
X59023723Y-53626363D01*
X59123579Y-53398715D01*
X59184603Y-53157736D01*
X59205131Y-52910000D01*
X59184603Y-52662264D01*
X59123579Y-52421285D01*
X59023723Y-52193637D01*
X59023722Y-52193635D01*
X59023721Y-52193633D01*
X58887760Y-51985529D01*
X58719398Y-51802640D01*
X58523229Y-51649954D01*
X58304606Y-51531642D01*
X58304605Y-51531641D01*
X58304604Y-51531641D01*
X58069488Y-51450926D01*
X58069487Y-51450925D01*
X58069485Y-51450925D01*
X57824293Y-51410010D01*
X57575707Y-51410010D01*
X57330514Y-51450925D01*
X57095393Y-51531642D01*
X56876770Y-51649954D01*
X56680601Y-51802640D01*
X56512241Y-51985527D01*
X56392453Y-52168875D01*
X56336937Y-52229181D01*
X56264848Y-52268193D01*
X56183998Y-52281684D01*
X56103148Y-52268192D01*
X56031060Y-52229180D01*
X55975545Y-52168875D01*
X55855760Y-51985529D01*
X55687397Y-51802639D01*
X55651803Y-51774935D01*
X55491229Y-51649954D01*
X55272606Y-51531642D01*
X55272605Y-51531641D01*
X55272604Y-51531641D01*
X55037488Y-51450926D01*
X55037487Y-51450925D01*
X55037485Y-51450925D01*
X54792293Y-51410010D01*
X54543707Y-51410010D01*
X54298514Y-51450925D01*
X54063393Y-51531642D01*
X53844770Y-51649954D01*
X53648601Y-51802640D01*
X53480241Y-51985527D01*
X53360453Y-52168875D01*
X53304937Y-52229181D01*
X53232848Y-52268193D01*
X53151998Y-52281684D01*
X53071148Y-52268192D01*
X52999060Y-52229180D01*
X52943545Y-52168875D01*
X52823760Y-51985529D01*
X52655397Y-51802639D01*
X52619803Y-51774935D01*
X52459229Y-51649954D01*
X52240606Y-51531642D01*
X52240605Y-51531641D01*
X52240604Y-51531641D01*
X52005488Y-51450926D01*
X52005487Y-51450925D01*
X52005485Y-51450925D01*
X51760293Y-51410010D01*
X51511707Y-51410010D01*
X51266514Y-51450925D01*
X51031393Y-51531642D01*
X50812770Y-51649954D01*
X50616601Y-51802640D01*
X50448239Y-51985529D01*
X50312278Y-52193633D01*
X50212421Y-52421284D01*
X50212421Y-52421285D01*
X50151397Y-52662264D01*
X50130869Y-52910000D01*
X50151397Y-53157736D01*
X50212421Y-53398715D01*
X50243909Y-53470500D01*
X50312278Y-53626366D01*
X50448239Y-53834470D01*
X50611519Y-54011839D01*
X50616603Y-54017361D01*
X50731058Y-54106445D01*
X50792162Y-54154004D01*
X50850836Y-54219271D01*
X50883221Y-54300841D01*
X50885294Y-54388580D01*
X50856797Y-54471589D01*
X50801271Y-54539554D01*
X50725613Y-54584033D01*
X50639223Y-54599500D01*
X49957130Y-54599500D01*
X49899387Y-54605708D01*
X49897517Y-54605909D01*
X49762669Y-54656204D01*
X49762667Y-54656205D01*
X49762668Y-54656205D01*
X49647453Y-54742453D01*
X49594229Y-54813553D01*
X49561204Y-54857669D01*
X49550015Y-54887669D01*
X49510908Y-54992519D01*
X49504500Y-55052125D01*
X49504500Y-57347869D01*
X47805500Y-57347869D01*
X47805499Y-55082128D01*
X47799091Y-55022517D01*
X47748796Y-54887669D01*
X47682783Y-54799487D01*
X47662546Y-54772453D01*
X47604938Y-54729329D01*
X47547331Y-54686204D01*
X47412483Y-54635909D01*
X47412482Y-54635908D01*
X47412480Y-54635908D01*
X47352874Y-54629500D01*
X43447130Y-54629500D01*
X43387517Y-54635908D01*
X43387517Y-54635909D01*
X43252669Y-54686204D01*
X43252667Y-54686205D01*
X43252668Y-54686205D01*
X43137453Y-54772453D01*
X43073662Y-54857669D01*
X43051204Y-54887669D01*
X43024790Y-54958490D01*
X43000908Y-55022519D01*
X42994500Y-55082125D01*
X42994500Y-57717869D01*
X40000500Y-57717869D01*
X40000500Y-53017869D01*
X42994500Y-53017869D01*
X42994501Y-53017874D01*
X43000909Y-53077483D01*
X43051204Y-53212331D01*
X43094328Y-53269938D01*
X43137453Y-53327546D01*
X43180578Y-53359828D01*
X43252669Y-53413796D01*
X43387517Y-53464091D01*
X43447127Y-53470500D01*
X47352872Y-53470499D01*
X47412483Y-53464091D01*
X47547331Y-53413796D01*
X47662546Y-53327546D01*
X47748796Y-53212331D01*
X47799091Y-53077483D01*
X47805500Y-53017873D01*
X47805499Y-50382128D01*
X47799091Y-50322517D01*
X47748796Y-50187669D01*
X47694828Y-50115578D01*
X47662546Y-50072453D01*
X47604938Y-50029329D01*
X47547331Y-49986204D01*
X47412483Y-49935909D01*
X47412482Y-49935908D01*
X47412480Y-49935908D01*
X47352874Y-49929500D01*
X43447130Y-49929500D01*
X43387517Y-49935908D01*
X43387517Y-49935909D01*
X43252669Y-49986204D01*
X43252667Y-49986205D01*
X43252668Y-49986205D01*
X43137453Y-50072453D01*
X43062046Y-50173185D01*
X43051204Y-50187669D01*
X43015410Y-50283636D01*
X43000908Y-50322519D01*
X42994500Y-50382125D01*
X42994500Y-53017869D01*
X40000500Y-53017869D01*
X40000500Y-48317869D01*
X42994500Y-48317869D01*
X42994501Y-48317874D01*
X43000909Y-48377483D01*
X43051204Y-48512331D01*
X43094328Y-48569938D01*
X43137453Y-48627546D01*
X43180578Y-48659828D01*
X43252669Y-48713796D01*
X43387517Y-48764091D01*
X43447127Y-48770500D01*
X47352872Y-48770499D01*
X47412483Y-48764091D01*
X47547331Y-48713796D01*
X47662546Y-48627546D01*
X47748796Y-48512331D01*
X47799091Y-48377483D01*
X47805500Y-48317873D01*
X47805499Y-45682128D01*
X47799091Y-45622517D01*
X47748796Y-45487669D01*
X47694828Y-45415577D01*
X47662546Y-45372453D01*
X47604938Y-45329329D01*
X47547331Y-45286204D01*
X47412483Y-45235909D01*
X47412482Y-45235908D01*
X47412480Y-45235908D01*
X47352874Y-45229500D01*
X43447130Y-45229500D01*
X43387526Y-45235908D01*
X43387517Y-45235909D01*
X43252669Y-45286204D01*
X43252667Y-45286205D01*
X43252668Y-45286205D01*
X43137453Y-45372453D01*
X43062046Y-45473185D01*
X43051204Y-45487669D01*
X43015410Y-45583636D01*
X43000908Y-45622519D01*
X42994500Y-45682125D01*
X42994500Y-48317869D01*
X40000500Y-48317869D01*
X40000500Y-42510000D01*
X50100869Y-42510000D01*
X50121397Y-42757736D01*
X50182421Y-42998714D01*
X50282278Y-43226366D01*
X50418239Y-43434470D01*
X50418240Y-43434471D01*
X50586603Y-43617361D01*
X50712281Y-43715180D01*
X50772184Y-43782452D01*
X50804233Y-43866636D01*
X50804233Y-43956714D01*
X50772184Y-44040898D01*
X50712280Y-44108170D01*
X50616602Y-44182639D01*
X50448239Y-44365529D01*
X50312278Y-44573633D01*
X50212421Y-44801285D01*
X50151397Y-45042263D01*
X50131183Y-45286204D01*
X50130869Y-45290000D01*
X50151397Y-45537736D01*
X50187962Y-45682130D01*
X50212421Y-45778714D01*
X50312278Y-46006366D01*
X50328455Y-46031126D01*
X50448240Y-46214471D01*
X50616603Y-46397361D01*
X50687789Y-46452767D01*
X50812770Y-46550045D01*
X50941699Y-46619817D01*
X51031396Y-46668359D01*
X51266512Y-46749074D01*
X51511707Y-46789990D01*
X51760293Y-46789990D01*
X52005488Y-46749074D01*
X52240604Y-46668359D01*
X52459229Y-46550045D01*
X52655397Y-46397361D01*
X52823760Y-46214471D01*
X52943546Y-46031123D01*
X52999059Y-45970820D01*
X53071148Y-45931807D01*
X53151998Y-45918315D01*
X53232848Y-45931806D01*
X53304937Y-45970818D01*
X53360453Y-46031124D01*
X53451141Y-46169931D01*
X53480240Y-46214471D01*
X53648603Y-46397361D01*
X53719789Y-46452767D01*
X53844770Y-46550045D01*
X53973699Y-46619817D01*
X54063396Y-46668359D01*
X54298512Y-46749074D01*
X54543707Y-46789990D01*
X54792293Y-46789990D01*
X55037488Y-46749074D01*
X55272604Y-46668359D01*
X55491229Y-46550045D01*
X55687397Y-46397361D01*
X55855760Y-46214471D01*
X55975546Y-46031123D01*
X56031059Y-45970820D01*
X56103148Y-45931807D01*
X56183998Y-45918315D01*
X56264848Y-45931806D01*
X56336937Y-45970818D01*
X56392453Y-46031124D01*
X56483141Y-46169931D01*
X56512240Y-46214471D01*
X56680603Y-46397361D01*
X56751789Y-46452767D01*
X56876770Y-46550045D01*
X57005699Y-46619817D01*
X57095396Y-46668359D01*
X57330512Y-46749074D01*
X57575707Y-46789990D01*
X57824293Y-46789990D01*
X58069488Y-46749074D01*
X58304604Y-46668359D01*
X58523229Y-46550045D01*
X58719397Y-46397361D01*
X58887760Y-46214471D01*
X59023723Y-46006363D01*
X59123579Y-45778715D01*
X59184603Y-45537736D01*
X59205131Y-45290000D01*
X59184603Y-45042264D01*
X59123579Y-44801285D01*
X59023723Y-44573637D01*
X59023722Y-44573635D01*
X59023721Y-44573633D01*
X58887760Y-44365529D01*
X58719397Y-44182639D01*
X58593719Y-44084819D01*
X58533815Y-44017546D01*
X58501766Y-43933362D01*
X58501766Y-43843283D01*
X58533816Y-43759099D01*
X58593715Y-43691832D01*
X58689397Y-43617361D01*
X58857760Y-43434471D01*
X58993723Y-43226363D01*
X59093579Y-42998715D01*
X59154603Y-42757736D01*
X59175131Y-42510000D01*
X59154603Y-42262264D01*
X59093579Y-42021285D01*
X58993723Y-41793637D01*
X58993722Y-41793635D01*
X58993721Y-41793633D01*
X58857760Y-41585529D01*
X58689398Y-41402640D01*
X58673551Y-41390306D01*
X58596135Y-41330050D01*
X58493229Y-41249954D01*
X58274606Y-41131642D01*
X58274605Y-41131641D01*
X58274604Y-41131641D01*
X58039488Y-41050926D01*
X58039487Y-41050925D01*
X58039485Y-41050925D01*
X57794293Y-41010010D01*
X57545707Y-41010010D01*
X57300514Y-41050925D01*
X57065393Y-41131642D01*
X56846770Y-41249954D01*
X56650601Y-41402640D01*
X56482241Y-41585527D01*
X56362454Y-41768875D01*
X56306939Y-41829180D01*
X56234850Y-41868193D01*
X56154000Y-41881684D01*
X56073150Y-41868193D01*
X56001061Y-41829180D01*
X55945546Y-41768875D01*
X55856973Y-41633305D01*
X55825760Y-41585529D01*
X55697076Y-41445742D01*
X55657398Y-41402640D01*
X55641551Y-41390306D01*
X55564135Y-41330050D01*
X55461229Y-41249954D01*
X55242606Y-41131642D01*
X55242605Y-41131641D01*
X55242604Y-41131641D01*
X55007488Y-41050926D01*
X55007487Y-41050925D01*
X55007485Y-41050925D01*
X54762293Y-41010010D01*
X54513707Y-41010010D01*
X54268514Y-41050925D01*
X54033393Y-41131642D01*
X53814770Y-41249954D01*
X53618601Y-41402640D01*
X53450241Y-41585527D01*
X53330454Y-41768875D01*
X53274939Y-41829180D01*
X53202850Y-41868193D01*
X53122000Y-41881684D01*
X53041150Y-41868193D01*
X52969061Y-41829180D01*
X52913546Y-41768875D01*
X52824973Y-41633305D01*
X52793760Y-41585529D01*
X52665076Y-41445742D01*
X52625398Y-41402640D01*
X52609551Y-41390306D01*
X52532135Y-41330050D01*
X52429229Y-41249954D01*
X52210606Y-41131642D01*
X52210605Y-41131641D01*
X52210604Y-41131641D01*
X51975488Y-41050926D01*
X51975487Y-41050925D01*
X51975485Y-41050925D01*
X51730293Y-41010010D01*
X51481707Y-41010010D01*
X51236514Y-41050925D01*
X51001393Y-41131642D01*
X50782770Y-41249954D01*
X50586601Y-41402640D01*
X50418239Y-41585529D01*
X50282278Y-41793633D01*
X50182421Y-42021285D01*
X50121397Y-42262263D01*
X50100869Y-42510000D01*
X40000500Y-42510000D01*
X40000500Y-38096652D01*
X62865371Y-38096652D01*
X62866782Y-38114048D01*
X62867082Y-38150156D01*
X62865961Y-38167564D01*
X62870187Y-38186343D01*
X62875445Y-38220870D01*
X62877643Y-38247971D01*
X62881610Y-38263209D01*
X62882438Y-38265023D01*
X62895904Y-38305008D01*
X62906879Y-38324771D01*
X62921648Y-38356412D01*
X62931405Y-38381828D01*
X62939506Y-38395335D01*
X62940821Y-38396852D01*
X62968490Y-38436402D01*
X62981908Y-38449293D01*
X62981910Y-38449296D01*
X62999697Y-38466385D01*
X63015341Y-38482854D01*
X63038923Y-38510069D01*
X63041113Y-38512596D01*
X63066888Y-38533215D01*
X63067351Y-38533464D01*
X63089119Y-38548613D01*
X63089676Y-38547765D01*
X63112161Y-38562509D01*
X63122935Y-38569987D01*
X63128383Y-38573985D01*
X63153412Y-38592353D01*
X63166380Y-38598631D01*
X63179181Y-38606557D01*
X63184639Y-38610035D01*
X63211086Y-38627377D01*
X63224728Y-38634759D01*
X63236763Y-38642211D01*
X63238085Y-38643036D01*
X63289994Y-38675629D01*
X63303228Y-38684542D01*
X63403638Y-38756950D01*
X63423530Y-38772904D01*
X63494356Y-38835942D01*
X63513985Y-38855475D01*
X63583487Y-38932793D01*
X63594116Y-38945437D01*
X63654793Y-39022679D01*
X63657805Y-39026592D01*
X63749873Y-39148704D01*
X63752502Y-39152256D01*
X63840276Y-39273081D01*
X63848192Y-39283977D01*
X63850451Y-39287138D01*
X63947311Y-39424940D01*
X63949380Y-39427931D01*
X63976212Y-39467320D01*
X64044260Y-39567217D01*
X64046315Y-39570283D01*
X64136541Y-39707051D01*
X64138724Y-39710418D01*
X64221330Y-39840136D01*
X64223826Y-39844138D01*
X64295744Y-39961939D01*
X64298837Y-39967148D01*
X64356427Y-40066856D01*
X64360621Y-40074417D01*
X64403062Y-40154168D01*
X64407738Y-40163413D01*
X64435532Y-40221329D01*
X64437587Y-40225720D01*
X64473175Y-40303736D01*
X64474521Y-40306741D01*
X64514900Y-40398452D01*
X64515870Y-40400685D01*
X64553403Y-40488347D01*
X64558862Y-40501097D01*
X64559713Y-40503109D01*
X64603149Y-40607073D01*
X64603940Y-40608989D01*
X64646140Y-40712407D01*
X64646924Y-40714353D01*
X64686007Y-40812611D01*
X64686913Y-40814925D01*
X64720861Y-40902938D01*
X64722090Y-40906191D01*
X64748687Y-40978122D01*
X64750518Y-40983245D01*
X64763210Y-41020021D01*
X64765550Y-41029280D01*
X64765775Y-41029210D01*
X64772492Y-41050516D01*
X64780604Y-41084317D01*
X64783821Y-41103556D01*
X64783822Y-41103559D01*
X64814826Y-41167535D01*
X64815025Y-41167946D01*
X64827867Y-41194653D01*
X64837744Y-41218219D01*
X64838392Y-41220021D01*
X64844888Y-41230864D01*
X64858789Y-41246278D01*
X64880216Y-41273662D01*
X64888331Y-41285676D01*
X64901081Y-41301315D01*
X64920129Y-41327380D01*
X64923611Y-41330050D01*
X64956515Y-41360336D01*
X64959464Y-41363586D01*
X64987004Y-41380407D01*
X65003646Y-41391822D01*
X65004601Y-41392358D01*
X65042724Y-41418689D01*
X65044209Y-41419934D01*
X65055028Y-41424662D01*
X65084487Y-41440004D01*
X65095477Y-41443593D01*
X65096889Y-41444138D01*
X65096894Y-41444141D01*
X65115094Y-41451168D01*
X65125054Y-41455264D01*
X65142947Y-41463085D01*
X65142950Y-41463085D01*
X65143662Y-41463397D01*
X65165018Y-41470446D01*
X65197415Y-41482956D01*
X65197417Y-41482956D01*
X65200004Y-41483955D01*
X65222788Y-41488717D01*
X65223038Y-41487394D01*
X65238136Y-41490238D01*
X65258277Y-41494906D01*
X65259956Y-41495369D01*
X65259960Y-41495370D01*
X65264169Y-41495904D01*
X65284835Y-41499420D01*
X65298832Y-41502412D01*
X65298834Y-41502412D01*
X65304462Y-41503615D01*
X65313793Y-41504728D01*
X65325371Y-41506713D01*
X65329349Y-41507428D01*
X65358475Y-41512918D01*
X65358479Y-41512918D01*
X65367695Y-41514655D01*
X65374317Y-41515334D01*
X65399264Y-41519393D01*
X65401346Y-41519741D01*
X65433428Y-41525243D01*
X65433430Y-41525243D01*
X65446422Y-41527471D01*
X65449119Y-41527718D01*
X65466191Y-41530393D01*
X65484251Y-41533223D01*
X65485445Y-41533413D01*
X65518744Y-41538832D01*
X65533321Y-41541204D01*
X65534407Y-41541296D01*
X65543697Y-41542706D01*
X65543701Y-41542708D01*
X65572536Y-41547086D01*
X65577358Y-41547819D01*
X65578530Y-41547999D01*
X65612111Y-41553263D01*
X65612112Y-41553263D01*
X65625448Y-41555353D01*
X65625541Y-41555374D01*
X65626810Y-41555567D01*
X65627371Y-41555654D01*
X65627615Y-41555674D01*
X65640925Y-41557632D01*
X65640927Y-41557633D01*
X65674510Y-41562574D01*
X65675455Y-41562715D01*
X65709469Y-41567882D01*
X65709471Y-41567882D01*
X65722416Y-41569848D01*
X65722941Y-41569964D01*
X65738072Y-41572110D01*
X65738077Y-41572112D01*
X65771863Y-41576905D01*
X65772867Y-41577051D01*
X65815183Y-41583280D01*
X65816631Y-41583591D01*
X65830783Y-41585500D01*
X65830788Y-41585502D01*
X65863907Y-41589971D01*
X65865187Y-41590148D01*
X65898327Y-41594851D01*
X65898333Y-41594850D01*
X65899821Y-41595062D01*
X65903339Y-41595789D01*
X65946826Y-41601175D01*
X65949519Y-41601524D01*
X65975093Y-41604975D01*
X65983147Y-41606516D01*
X66008071Y-41609043D01*
X66017849Y-41610035D01*
X66023285Y-41610647D01*
X66050597Y-41614031D01*
X66050600Y-41614030D01*
X66068277Y-41616221D01*
X66068220Y-41616680D01*
X66090641Y-41618680D01*
X66093527Y-41618838D01*
X66093537Y-41618840D01*
X66111960Y-41619849D01*
X66123366Y-41620739D01*
X66141764Y-41622606D01*
X66141775Y-41622605D01*
X66141957Y-41622624D01*
X66165400Y-41622776D01*
X66292726Y-41629752D01*
X66311997Y-41631561D01*
X66318588Y-41632440D01*
X66330024Y-41632321D01*
X66346174Y-41632680D01*
X66357591Y-41633306D01*
X66364200Y-41632722D01*
X66383544Y-41631769D01*
X66522042Y-41630340D01*
X66542218Y-41630950D01*
X66547606Y-41631333D01*
X66560246Y-41630420D01*
X66575591Y-41629788D01*
X66588255Y-41629658D01*
X66593591Y-41628834D01*
X66613628Y-41626568D01*
X66757538Y-41616185D01*
X66779206Y-41615569D01*
X66782330Y-41615617D01*
X66797165Y-41613711D01*
X66810913Y-41612334D01*
X66825827Y-41611259D01*
X66828884Y-41610591D01*
X66850236Y-41606898D01*
X67001362Y-41587496D01*
X67024869Y-41585605D01*
X67025123Y-41585597D01*
X67042637Y-41582486D01*
X67054452Y-41580679D01*
X67072113Y-41578413D01*
X67072357Y-41578345D01*
X67095363Y-41573124D01*
X67256321Y-41544544D01*
X67277408Y-41541910D01*
X67278944Y-41541573D01*
X67278950Y-41541573D01*
X67299342Y-41537105D01*
X67309038Y-41535183D01*
X67329572Y-41531538D01*
X67329576Y-41531536D01*
X67331128Y-41531261D01*
X67351606Y-41525656D01*
X67520198Y-41488726D01*
X67531054Y-41487056D01*
X67539772Y-41484989D01*
X67539777Y-41484989D01*
X67568526Y-41478174D01*
X67572416Y-41477287D01*
X67601256Y-41470971D01*
X67601264Y-41470967D01*
X67610021Y-41469050D01*
X67620521Y-41465852D01*
X67689299Y-41449551D01*
X67721823Y-41444090D01*
X67731262Y-41443141D01*
X67743921Y-41441870D01*
X67807236Y-41416158D01*
X67809223Y-41415363D01*
X67872790Y-41390306D01*
X67872793Y-41390302D01*
X67875224Y-41389345D01*
X67877267Y-41387721D01*
X67877269Y-41387721D01*
X67930730Y-41345247D01*
X67932413Y-41343924D01*
X67986389Y-41301939D01*
X67986391Y-41301935D01*
X67988454Y-41300331D01*
X67989957Y-41298196D01*
X67989959Y-41298196D01*
X68029220Y-41242480D01*
X68030590Y-41240556D01*
X68070492Y-41185147D01*
X68070493Y-41185144D01*
X68072019Y-41183025D01*
X68072861Y-41180552D01*
X68072863Y-41180550D01*
X68094849Y-41115996D01*
X68095654Y-41113672D01*
X68118284Y-41049391D01*
X68119283Y-41030513D01*
X68124883Y-40989581D01*
X68127837Y-40976308D01*
X68129625Y-40968830D01*
X68142791Y-40917305D01*
X68143821Y-40913406D01*
X68163790Y-40840350D01*
X68164470Y-40837917D01*
X68188552Y-40753706D01*
X68189255Y-40751294D01*
X68200501Y-40713420D01*
X68215567Y-40662677D01*
X68216288Y-40660295D01*
X68242963Y-40573732D01*
X68243834Y-40570965D01*
X68265663Y-40503109D01*
X68269519Y-40491122D01*
X68270429Y-40488347D01*
X68285530Y-40443228D01*
X68286929Y-40439169D01*
X68327153Y-40325787D01*
X68330052Y-40318033D01*
X68367162Y-40223634D01*
X68371175Y-40214023D01*
X68408026Y-40130761D01*
X68413028Y-40120146D01*
X68420733Y-40104744D01*
X68452473Y-40041294D01*
X68457958Y-40030948D01*
X68503722Y-39949370D01*
X68509117Y-39940220D01*
X68564999Y-39849922D01*
X68569764Y-39842517D01*
X68571357Y-39840136D01*
X68639272Y-39738602D01*
X68642952Y-39733256D01*
X68728757Y-39612116D01*
X68731381Y-39608485D01*
X68791881Y-39526357D01*
X77165216Y-39526357D01*
X77165216Y-46757643D01*
X104434784Y-46757643D01*
X104434785Y-46757643D01*
X104434785Y-39526357D01*
X77165216Y-39526357D01*
X68791881Y-39526357D01*
X68835393Y-39467290D01*
X68837166Y-39464914D01*
X68845648Y-39453686D01*
X68932059Y-39339297D01*
X68933527Y-39337376D01*
X69031207Y-39210945D01*
X69032856Y-39208837D01*
X69126168Y-39090904D01*
X69127883Y-39088765D01*
X69214997Y-38981484D01*
X69217131Y-38978895D01*
X69295652Y-38885050D01*
X69298566Y-38881634D01*
X69316073Y-38861473D01*
X69365674Y-38804353D01*
X69369776Y-38799747D01*
X69421371Y-38743255D01*
X69427908Y-38736370D01*
X69452032Y-38711922D01*
X69491328Y-38679518D01*
X69536399Y-38649530D01*
X69542662Y-38645500D01*
X69617461Y-38598952D01*
X69621914Y-38596245D01*
X69673628Y-38565558D01*
X69710269Y-38547696D01*
X69718564Y-38544464D01*
X69737752Y-38529654D01*
X69747860Y-38522793D01*
X69753886Y-38517936D01*
X69753895Y-38517931D01*
X69768437Y-38506210D01*
X69777426Y-38499298D01*
X69794522Y-38486768D01*
X69794524Y-38486765D01*
X69799374Y-38483211D01*
X69810626Y-38473413D01*
X69832502Y-38456532D01*
X69832502Y-38456531D01*
X69834601Y-38454912D01*
X69837298Y-38451027D01*
X69867562Y-38415179D01*
X69871477Y-38411343D01*
X69884976Y-38387199D01*
X69900807Y-38362442D01*
X69910505Y-38349082D01*
X69917052Y-38340064D01*
X69920088Y-38331542D01*
X69937304Y-38293613D01*
X69941716Y-38285724D01*
X69947868Y-38258749D01*
X69952031Y-38244452D01*
X69953221Y-38238566D01*
X69953223Y-38238561D01*
X69953664Y-38236379D01*
X69961466Y-38207097D01*
X69965316Y-38195530D01*
X69965316Y-38195527D01*
X69968077Y-38187231D01*
X69972532Y-38156499D01*
X69973498Y-38152750D01*
X69974595Y-38148496D01*
X69973322Y-38110332D01*
X69973584Y-38087919D01*
X69973993Y-38080710D01*
X69975749Y-38049794D01*
X69975748Y-38049789D01*
X69975794Y-38048980D01*
X69970050Y-38005421D01*
X69969797Y-38004655D01*
X69969797Y-38004653D01*
X69957825Y-37968403D01*
X69951758Y-37946811D01*
X69948316Y-37932034D01*
X69943096Y-37909625D01*
X69941739Y-37907224D01*
X69932431Y-37890757D01*
X69930241Y-37886799D01*
X69908075Y-37845867D01*
X69904108Y-37838229D01*
X69896113Y-37822163D01*
X69893937Y-37817790D01*
X69893934Y-37817786D01*
X69892629Y-37815163D01*
X69886617Y-37805366D01*
X69885637Y-37804047D01*
X69868724Y-37778050D01*
X69867571Y-37776011D01*
X69853979Y-37759950D01*
X69832691Y-37729134D01*
X69832689Y-37729132D01*
X69829516Y-37724539D01*
X69817233Y-37712168D01*
X69804527Y-37698368D01*
X69779447Y-37668981D01*
X69778132Y-37667428D01*
X69772934Y-37661236D01*
X69757118Y-37642393D01*
X69757116Y-37642391D01*
X69748695Y-37632359D01*
X69744731Y-37628303D01*
X69743907Y-37627338D01*
X69740087Y-37622753D01*
X69658773Y-37522741D01*
X69652409Y-37514573D01*
X69646039Y-37506036D01*
X69584326Y-37423329D01*
X69577680Y-37413979D01*
X69529674Y-37343034D01*
X69514676Y-37320869D01*
X69508626Y-37311480D01*
X69445103Y-37207868D01*
X69440243Y-37199587D01*
X69371721Y-37077494D01*
X69368210Y-37071015D01*
X69291349Y-36924035D01*
X69288996Y-36919421D01*
X69251152Y-36843234D01*
X69229867Y-36800384D01*
X69226803Y-36793987D01*
X69222078Y-36783753D01*
X69164084Y-36658129D01*
X69139279Y-36604398D01*
X69135061Y-36594728D01*
X69110964Y-36536128D01*
X69064280Y-36422598D01*
X69059991Y-36411409D01*
X69037763Y-36348955D01*
X69001768Y-36247815D01*
X68997839Y-36235821D01*
X68989094Y-36206642D01*
X68949044Y-36073006D01*
X68945822Y-36061205D01*
X68941960Y-36045558D01*
X68902004Y-35883681D01*
X68900669Y-35877980D01*
X68896995Y-35861416D01*
X68887179Y-35817154D01*
X68869505Y-35736210D01*
X68869166Y-35734625D01*
X68856860Y-35676188D01*
X68856194Y-35672916D01*
X68848637Y-35634481D01*
X68847641Y-35629105D01*
X68843936Y-35607800D01*
X68842395Y-35589510D01*
X68840217Y-35573943D01*
X68840218Y-35573940D01*
X68836924Y-35550387D01*
X68835979Y-35542775D01*
X68834104Y-35525483D01*
X68834102Y-35525477D01*
X68832829Y-35513736D01*
X68829339Y-35496150D01*
X68828936Y-35493266D01*
X68825240Y-35466835D01*
X68825238Y-35466830D01*
X68823988Y-35457887D01*
X68822226Y-35450093D01*
X68820549Y-35439888D01*
X68820250Y-35438014D01*
X68817309Y-35419127D01*
X68817118Y-35417025D01*
X68815920Y-35410027D01*
X68815312Y-35406307D01*
X68813259Y-35393128D01*
X68812429Y-35389639D01*
X68809185Y-35370697D01*
X68808979Y-35369465D01*
X68803576Y-35336577D01*
X68803575Y-35336575D01*
X68801331Y-35322912D01*
X68800327Y-35318783D01*
X68796680Y-35297670D01*
X68796618Y-35297309D01*
X68787854Y-35246127D01*
X68787588Y-35245051D01*
X68787388Y-35243893D01*
X68787144Y-35242447D01*
X68787038Y-35241808D01*
X68768785Y-35131780D01*
X68768382Y-35129262D01*
X68767939Y-35126403D01*
X68753812Y-35035145D01*
X68753303Y-35031695D01*
X68752275Y-35024376D01*
X68742911Y-34957727D01*
X68742243Y-34952581D01*
X68741989Y-34950448D01*
X68741120Y-34943146D01*
X68741859Y-34928704D01*
X68740195Y-34928814D01*
X68738919Y-34909441D01*
X68739479Y-34869720D01*
X68742318Y-34839608D01*
X68742317Y-34839603D01*
X68742664Y-34835924D01*
X68739890Y-34804279D01*
X68737970Y-34797312D01*
X68736296Y-34791238D01*
X68729944Y-34753600D01*
X68717252Y-34718956D01*
X68711002Y-34699446D01*
X68709065Y-34692416D01*
X68700674Y-34661963D01*
X68700673Y-34661961D01*
X68699876Y-34659069D01*
X68681405Y-34621105D01*
X68680057Y-34617425D01*
X68678904Y-34614277D01*
X68678845Y-34614197D01*
X68671733Y-34604579D01*
X68650761Y-34570904D01*
X68645223Y-34560195D01*
X68628196Y-34542382D01*
X68607987Y-34518379D01*
X68600304Y-34507990D01*
X68593330Y-34498559D01*
X68593328Y-34498558D01*
X68593328Y-34498557D01*
X68583712Y-34491270D01*
X68554103Y-34464869D01*
X68545776Y-34456158D01*
X68524413Y-34443859D01*
X68498272Y-34426529D01*
X68478619Y-34411637D01*
X68467347Y-34407358D01*
X68431492Y-34390364D01*
X68421047Y-34384350D01*
X68397077Y-34378567D01*
X68367111Y-34369304D01*
X68344064Y-34360554D01*
X68332040Y-34359624D01*
X68292864Y-34353422D01*
X68281141Y-34350593D01*
X68256514Y-34351797D01*
X68225155Y-34351352D01*
X68200574Y-34349450D01*
X68200573Y-34349450D01*
X68188767Y-34351946D01*
X68149436Y-34357031D01*
X68144031Y-34357296D01*
X68137384Y-34357621D01*
X68114077Y-34365720D01*
X68103674Y-34368616D01*
X68067414Y-34381899D01*
X68063505Y-34383294D01*
X67997183Y-34406341D01*
X67980071Y-34415621D01*
X67980731Y-34416782D01*
X67946637Y-34436141D01*
X67938248Y-34440694D01*
X67915959Y-34452243D01*
X67909355Y-34456563D01*
X67909165Y-34456675D01*
X67909163Y-34456677D01*
X67885265Y-34470928D01*
X67880729Y-34473569D01*
X67856625Y-34487259D01*
X67855247Y-34487948D01*
X67851572Y-34490129D01*
X67849727Y-34491176D01*
X67845682Y-34493984D01*
X67823059Y-34507990D01*
X67819536Y-34510130D01*
X67795022Y-34524751D01*
X67792649Y-34525996D01*
X67792495Y-34526096D01*
X67785993Y-34530123D01*
X67784062Y-34531520D01*
X67760041Y-34546964D01*
X67756465Y-34549220D01*
X67731951Y-34564399D01*
X67727752Y-34566708D01*
X67726691Y-34567426D01*
X67724656Y-34568742D01*
X67723907Y-34569307D01*
X67698889Y-34586209D01*
X67694166Y-34589322D01*
X67666362Y-34607200D01*
X67661101Y-34610295D01*
X67641502Y-34624731D01*
X67633242Y-34630560D01*
X67603718Y-34650508D01*
X67588878Y-34662913D01*
X67576873Y-34672337D01*
X67565015Y-34681071D01*
X67564799Y-34681275D01*
X67538136Y-34705140D01*
X67531776Y-34710642D01*
X67506254Y-34731977D01*
X67506377Y-34732108D01*
X67473494Y-34762916D01*
X67469331Y-34766729D01*
X67437799Y-34794956D01*
X67437987Y-34795150D01*
X67403556Y-34828410D01*
X67400815Y-34831017D01*
X67365904Y-34863730D01*
X67364918Y-34862678D01*
X67364018Y-34863545D01*
X67365134Y-34864672D01*
X67330302Y-34899153D01*
X67328135Y-34901272D01*
X67297540Y-34930830D01*
X67292003Y-34937068D01*
X67291613Y-34937453D01*
X67285893Y-34942410D01*
X67255821Y-34972865D01*
X67253830Y-34974858D01*
X67218769Y-35009570D01*
X67217680Y-35008470D01*
X67215640Y-35010538D01*
X67216719Y-35011577D01*
X67182738Y-35046853D01*
X67180602Y-35049044D01*
X67146255Y-35083834D01*
X67146145Y-35083725D01*
X67114074Y-35118099D01*
X67111359Y-35120963D01*
X67078324Y-35155263D01*
X67078139Y-35155085D01*
X67052142Y-35184369D01*
X67048012Y-35188907D01*
X67017773Y-35221322D01*
X67017234Y-35220819D01*
X66997714Y-35245198D01*
X66989567Y-35254858D01*
X66969232Y-35277765D01*
X66966746Y-35280894D01*
X66965053Y-35283284D01*
X66963953Y-35284411D01*
X66955984Y-35294444D01*
X66948323Y-35302516D01*
X66947271Y-35301518D01*
X66911015Y-35338699D01*
X66842571Y-35374843D01*
X66766336Y-35388224D01*
X66742037Y-35388654D01*
X66741899Y-35388648D01*
X66690168Y-35389573D01*
X66690152Y-35389570D01*
X66690153Y-35389573D01*
X66680900Y-35389736D01*
X66680544Y-35389718D01*
X66628030Y-35390684D01*
X66628029Y-35390683D01*
X66628029Y-35390684D01*
X66575521Y-35391623D01*
X66575143Y-35391656D01*
X66543277Y-35392242D01*
X66542886Y-35392222D01*
X66489680Y-35393227D01*
X66489680Y-35393228D01*
X66489679Y-35393228D01*
X66484397Y-35393325D01*
X66438252Y-35394175D01*
X66437870Y-35394208D01*
X66397749Y-35394967D01*
X66397387Y-35394949D01*
X66346396Y-35395939D01*
X66345423Y-35395957D01*
X66345423Y-35395958D01*
X66292855Y-35396953D01*
X66292490Y-35396984D01*
X66252330Y-35397764D01*
X66251966Y-35397745D01*
X66199776Y-35398784D01*
X66198887Y-35398801D01*
X66198887Y-35398802D01*
X66163191Y-35399495D01*
X66163190Y-35399495D01*
X66146658Y-35399816D01*
X66146292Y-35399847D01*
X66111472Y-35400540D01*
X66111054Y-35400520D01*
X66058866Y-35401587D01*
X66058865Y-35401588D01*
X66045774Y-35401848D01*
X66006071Y-35402639D01*
X66005641Y-35402677D01*
X65983610Y-35403129D01*
X65983002Y-35403098D01*
X65929474Y-35404237D01*
X65929474Y-35404238D01*
X65929473Y-35404238D01*
X65927999Y-35404268D01*
X65877680Y-35405298D01*
X65877088Y-35405352D01*
X65874550Y-35405406D01*
X65874137Y-35405386D01*
X65826694Y-35406422D01*
X65749531Y-35395925D01*
X65679383Y-35362106D01*
X65644126Y-35328376D01*
X65642700Y-35329826D01*
X65638053Y-35325252D01*
X65617220Y-35302000D01*
X65587389Y-35264180D01*
X65581678Y-35255906D01*
X65556599Y-35225097D01*
X65554203Y-35222108D01*
X65553186Y-35220819D01*
X65535602Y-35198525D01*
X65535601Y-35198524D01*
X65529601Y-35190917D01*
X65522770Y-35183539D01*
X65492023Y-35145766D01*
X65486213Y-35137619D01*
X65460591Y-35107109D01*
X65458195Y-35104211D01*
X65439227Y-35080909D01*
X65439226Y-35080908D01*
X65433087Y-35073366D01*
X65426175Y-35066127D01*
X65397111Y-35031518D01*
X65390581Y-35022666D01*
X65380941Y-35011577D01*
X65365383Y-34993679D01*
X65362637Y-34990465D01*
X65337971Y-34961092D01*
X65330249Y-34953263D01*
X65320814Y-34942410D01*
X65310748Y-34930830D01*
X65305221Y-34924472D01*
X65297049Y-34913833D01*
X65273658Y-34888073D01*
X65270082Y-34884049D01*
X65264104Y-34877173D01*
X65251909Y-34863144D01*
X65251904Y-34863140D01*
X65247243Y-34857778D01*
X65237651Y-34848421D01*
X65218163Y-34826959D01*
X65206721Y-34812864D01*
X65204177Y-34810237D01*
X65204174Y-34810232D01*
X65187578Y-34793091D01*
X65182166Y-34787318D01*
X65176690Y-34781288D01*
X65166163Y-34769695D01*
X65166160Y-34769692D01*
X65163705Y-34766989D01*
X65150367Y-34754658D01*
X65140623Y-34744595D01*
X65127788Y-34729830D01*
X65115834Y-34718328D01*
X65105271Y-34706905D01*
X65101185Y-34703175D01*
X65101182Y-34703171D01*
X65101083Y-34703081D01*
X65090102Y-34692416D01*
X65085818Y-34687991D01*
X65071023Y-34675213D01*
X65058500Y-34663164D01*
X65056500Y-34661050D01*
X65054477Y-34659197D01*
X65050672Y-34656181D01*
X65031637Y-34639580D01*
X65027399Y-34635798D01*
X65005542Y-34615840D01*
X65004814Y-34615103D01*
X65002775Y-34613315D01*
X65001761Y-34612389D01*
X64997839Y-34609416D01*
X64992097Y-34604579D01*
X64976232Y-34591213D01*
X64973005Y-34588447D01*
X64962873Y-34579611D01*
X64952388Y-34570467D01*
X64950602Y-34568729D01*
X64944410Y-34563509D01*
X64943872Y-34563040D01*
X64941425Y-34561259D01*
X64920330Y-34544075D01*
X64917164Y-34541452D01*
X64898936Y-34526096D01*
X64898210Y-34525484D01*
X64894374Y-34521891D01*
X64892254Y-34520237D01*
X64888071Y-34516845D01*
X64886514Y-34515757D01*
X64866266Y-34499960D01*
X64862166Y-34496692D01*
X64842336Y-34480538D01*
X64835820Y-34474761D01*
X64815550Y-34460161D01*
X64807914Y-34454435D01*
X64789229Y-34439857D01*
X64771121Y-34428124D01*
X64738256Y-34404159D01*
X64718571Y-34391722D01*
X64709817Y-34385129D01*
X64687189Y-34376615D01*
X64658317Y-34363599D01*
X64656797Y-34362794D01*
X64651709Y-34360564D01*
X64646877Y-34358040D01*
X64642777Y-34357142D01*
X64608367Y-34346957D01*
X64578222Y-34335615D01*
X64571419Y-34333055D01*
X64538134Y-34331094D01*
X64499507Y-34325759D01*
X64498575Y-34325554D01*
X64494405Y-34325847D01*
X64458533Y-34325768D01*
X64427657Y-34323470D01*
X64402803Y-34329204D01*
X64364242Y-34334967D01*
X64359361Y-34335309D01*
X64355004Y-34335615D01*
X64337227Y-34342216D01*
X64306537Y-34351412D01*
X64283573Y-34356710D01*
X64272194Y-34363110D01*
X64236827Y-34379499D01*
X64220086Y-34385717D01*
X64220085Y-34385717D01*
X64220084Y-34385718D01*
X64205807Y-34396373D01*
X64175596Y-34415696D01*
X64159926Y-34424194D01*
X64146517Y-34437526D01*
X64119896Y-34460492D01*
X64104745Y-34471799D01*
X64094045Y-34486050D01*
X64070499Y-34513104D01*
X64057863Y-34525667D01*
X64048657Y-34542412D01*
X64048076Y-34543313D01*
X64035026Y-34567128D01*
X64018039Y-34593919D01*
X64003874Y-34613394D01*
X63999874Y-34624587D01*
X63989380Y-34647898D01*
X63989349Y-34648042D01*
X63979372Y-34681750D01*
X63957021Y-34741413D01*
X63955286Y-34765195D01*
X63950825Y-34797312D01*
X63945788Y-34821756D01*
X63943736Y-34857299D01*
X63943696Y-34857968D01*
X63941101Y-34900889D01*
X63938834Y-34922573D01*
X63938388Y-34925565D01*
X63936645Y-34935791D01*
X63928671Y-34977335D01*
X63927535Y-34982911D01*
X63912001Y-35054912D01*
X63911283Y-35058135D01*
X63898138Y-35115370D01*
X63894868Y-35126403D01*
X63891585Y-35141974D01*
X63887828Y-35155682D01*
X63884212Y-35175054D01*
X63882128Y-35185072D01*
X63877726Y-35204242D01*
X63876062Y-35215605D01*
X63873775Y-35226452D01*
X63872374Y-35238174D01*
X63871739Y-35241808D01*
X63871252Y-35244507D01*
X63866984Y-35267381D01*
X63863447Y-35286336D01*
X63862847Y-35292084D01*
X63860443Y-35306436D01*
X63860150Y-35308146D01*
X63856048Y-35331630D01*
X63855670Y-35333189D01*
X63854652Y-35339503D01*
X63854118Y-35342679D01*
X63852113Y-35354152D01*
X63851860Y-35356800D01*
X63848085Y-35380198D01*
X63847845Y-35381660D01*
X63839968Y-35428701D01*
X63839626Y-35432438D01*
X63835641Y-35457325D01*
X63835594Y-35457618D01*
X63827167Y-35509844D01*
X63827092Y-35510695D01*
X63804519Y-35651632D01*
X63804325Y-35652826D01*
X63770014Y-35860581D01*
X63769735Y-35862235D01*
X63738189Y-36045558D01*
X63737812Y-36047697D01*
X63709011Y-36206744D01*
X63708509Y-36209430D01*
X63682308Y-36345282D01*
X63681571Y-36348955D01*
X63658115Y-36461446D01*
X63657040Y-36466356D01*
X63638587Y-36546703D01*
X63636548Y-36555579D01*
X63634910Y-36562280D01*
X63618077Y-36627264D01*
X63615465Y-36636596D01*
X63603257Y-36677153D01*
X63598140Y-36692360D01*
X63546917Y-36829766D01*
X63541444Y-36843234D01*
X63474982Y-36993992D01*
X63469778Y-37005051D01*
X63389048Y-37166243D01*
X63383798Y-37176161D01*
X63292867Y-37338960D01*
X63287184Y-37348619D01*
X63190293Y-37505105D01*
X63183657Y-37515260D01*
X63088201Y-37653858D01*
X63085976Y-37657035D01*
X63058708Y-37695336D01*
X63057464Y-37697068D01*
X63045349Y-37713780D01*
X63041661Y-37718272D01*
X63034325Y-37728882D01*
X63031173Y-37733334D01*
X63030648Y-37734200D01*
X63024509Y-37743077D01*
X63012593Y-37756372D01*
X62986856Y-37796417D01*
X62958825Y-37831545D01*
X62947933Y-37847392D01*
X62940193Y-37864342D01*
X62923171Y-37895515D01*
X62920594Y-37899524D01*
X62917854Y-37906206D01*
X62918148Y-37906314D01*
X62917814Y-37907224D01*
X62913355Y-37917180D01*
X62907671Y-37931045D01*
X62904505Y-37936943D01*
X62903732Y-37938671D01*
X62890896Y-37962720D01*
X62886009Y-37977641D01*
X62885728Y-37979597D01*
X62875422Y-38020582D01*
X62873966Y-38043197D01*
X62869285Y-38077799D01*
X62865371Y-38096652D01*
X40000500Y-38096652D01*
X40000500Y-33347869D01*
X48184500Y-33347869D01*
X48187939Y-33379855D01*
X48190909Y-33407483D01*
X48241204Y-33542331D01*
X48280601Y-33594959D01*
X48327453Y-33657546D01*
X48370577Y-33689828D01*
X48442669Y-33743796D01*
X48577517Y-33794091D01*
X48637127Y-33800500D01*
X50065948Y-33800499D01*
X50153250Y-33816306D01*
X50229469Y-33861719D01*
X50284928Y-33930973D01*
X50312584Y-34015275D01*
X50308927Y-34103922D01*
X50287956Y-34153597D01*
X50290565Y-34154742D01*
X50182421Y-34401285D01*
X50121397Y-34642263D01*
X50102083Y-34875343D01*
X50100869Y-34890000D01*
X50121397Y-35137736D01*
X50182421Y-35378715D01*
X50201661Y-35422578D01*
X50282278Y-35606366D01*
X50366074Y-35734625D01*
X50418240Y-35814471D01*
X50586603Y-35997361D01*
X50648526Y-36045558D01*
X50782770Y-36150045D01*
X50887353Y-36206642D01*
X51001396Y-36268359D01*
X51236512Y-36349074D01*
X51481707Y-36389990D01*
X51730293Y-36389990D01*
X51975488Y-36349074D01*
X52210604Y-36268359D01*
X52429229Y-36150045D01*
X52625397Y-35997361D01*
X52793760Y-35814471D01*
X52850182Y-35728109D01*
X52913546Y-35631125D01*
X52969061Y-35570819D01*
X53041150Y-35531807D01*
X53122000Y-35518315D01*
X53202850Y-35531807D01*
X53274939Y-35570819D01*
X53330454Y-35631125D01*
X53398074Y-35734625D01*
X53450240Y-35814471D01*
X53618603Y-35997361D01*
X53680526Y-36045558D01*
X53814770Y-36150045D01*
X53919353Y-36206642D01*
X54033396Y-36268359D01*
X54268512Y-36349074D01*
X54513707Y-36389990D01*
X54762293Y-36389990D01*
X55007488Y-36349074D01*
X55242604Y-36268359D01*
X55461229Y-36150045D01*
X55657397Y-35997361D01*
X55825760Y-35814471D01*
X55882182Y-35728109D01*
X55945546Y-35631125D01*
X56001061Y-35570819D01*
X56073150Y-35531807D01*
X56154000Y-35518315D01*
X56234850Y-35531807D01*
X56306939Y-35570819D01*
X56362454Y-35631125D01*
X56430074Y-35734625D01*
X56482240Y-35814471D01*
X56650603Y-35997361D01*
X56712526Y-36045558D01*
X56846770Y-36150045D01*
X56951353Y-36206642D01*
X57065396Y-36268359D01*
X57300512Y-36349074D01*
X57545707Y-36389990D01*
X57794293Y-36389990D01*
X58039488Y-36349074D01*
X58274604Y-36268359D01*
X58493229Y-36150045D01*
X58689397Y-35997361D01*
X58857760Y-35814471D01*
X58993723Y-35606363D01*
X59093579Y-35378715D01*
X59154603Y-35137736D01*
X59175131Y-34890000D01*
X59154603Y-34642264D01*
X59093579Y-34401285D01*
X58993723Y-34173637D01*
X58993722Y-34173635D01*
X58993721Y-34173633D01*
X58857760Y-33965529D01*
X58689398Y-33782640D01*
X58677052Y-33773031D01*
X58528678Y-33657546D01*
X58493228Y-33629954D01*
X58395869Y-33577266D01*
X58327829Y-33523200D01*
X58282513Y-33449045D01*
X58265442Y-33363833D01*
X58278695Y-33277944D01*
X58320655Y-33201844D01*
X58323735Y-33198030D01*
X58437926Y-32993619D01*
X58515929Y-32772849D01*
X58522498Y-32734537D01*
X58522498Y-32734536D01*
X61919015Y-32734536D01*
X61945373Y-32755051D01*
X62145774Y-32863502D01*
X62361298Y-32937492D01*
X62586065Y-32975000D01*
X62813935Y-32975000D01*
X63038701Y-32937492D01*
X63254225Y-32863502D01*
X63454630Y-32755049D01*
X63480983Y-32734537D01*
X63480983Y-32734536D01*
X62700000Y-31953553D01*
X61919015Y-32734536D01*
X58522498Y-32734536D01*
X58555500Y-32542074D01*
X58555500Y-31916572D01*
X58540616Y-31741697D01*
X58503721Y-31599999D01*
X61320288Y-31599999D01*
X61339105Y-31827097D01*
X61395043Y-32047987D01*
X61486580Y-32256670D01*
X61566874Y-32379570D01*
X62346445Y-31600000D01*
X61566873Y-30820428D01*
X61486580Y-30943329D01*
X61395043Y-31152012D01*
X61339105Y-31372902D01*
X61320288Y-31599999D01*
X58503721Y-31599999D01*
X58481618Y-31515113D01*
X58475644Y-31501896D01*
X58385172Y-31301750D01*
X58254057Y-31107759D01*
X58092044Y-30938717D01*
X57903792Y-30799487D01*
X57866336Y-30780602D01*
X57694722Y-30694075D01*
X57571060Y-30656204D01*
X57470837Y-30625511D01*
X57470835Y-30625510D01*
X57470833Y-30625510D01*
X57238592Y-30595771D01*
X57238589Y-30595771D01*
X57121621Y-30600739D01*
X57004652Y-30605708D01*
X56775763Y-30655038D01*
X56558507Y-30742339D01*
X56359127Y-30865102D01*
X56183357Y-31019798D01*
X56107036Y-31114321D01*
X56036582Y-31174236D01*
X55949122Y-31204305D01*
X55856720Y-31200379D01*
X55772124Y-31163001D01*
X55730668Y-31121191D01*
X55728720Y-31123059D01*
X55714058Y-31107761D01*
X55714057Y-31107759D01*
X55552044Y-30938717D01*
X55363792Y-30799487D01*
X55326336Y-30780602D01*
X55154722Y-30694075D01*
X55031060Y-30656204D01*
X54930837Y-30625511D01*
X54930835Y-30625510D01*
X54930833Y-30625510D01*
X54698592Y-30595771D01*
X54698589Y-30595771D01*
X54581621Y-30600739D01*
X54464652Y-30605708D01*
X54235763Y-30655038D01*
X54018507Y-30742339D01*
X53819127Y-30865102D01*
X53643354Y-31019801D01*
X53566706Y-31114728D01*
X53496251Y-31174644D01*
X53408787Y-31204712D01*
X53316384Y-31200785D01*
X53231787Y-31163403D01*
X53190264Y-31121522D01*
X53188331Y-31123375D01*
X53011714Y-30939095D01*
X52823531Y-30799916D01*
X52614529Y-30694539D01*
X52390729Y-30626001D01*
X52350000Y-30620786D01*
X52350000Y-32201000D01*
X52331046Y-32296288D01*
X52277070Y-32377070D01*
X52196288Y-32431046D01*
X52101000Y-32450000D01*
X52099000Y-32450000D01*
X52003712Y-32431046D01*
X51922930Y-32377070D01*
X51868954Y-32296288D01*
X51850000Y-32201000D01*
X51850000Y-30622309D01*
X51695913Y-30655517D01*
X51478733Y-30742786D01*
X51279422Y-30865507D01*
X51243772Y-30896884D01*
X51174330Y-30940103D01*
X51094631Y-30958490D01*
X51013273Y-30950061D01*
X50939036Y-30915724D01*
X50879931Y-30859186D01*
X50878796Y-30857670D01*
X50878796Y-30857669D01*
X50792546Y-30742454D01*
X50792392Y-30742339D01*
X50769399Y-30725126D01*
X50677331Y-30656204D01*
X50542483Y-30605909D01*
X50542482Y-30605908D01*
X50542480Y-30605908D01*
X50482874Y-30599500D01*
X48637130Y-30599500D01*
X48579387Y-30605708D01*
X48577517Y-30605909D01*
X48442669Y-30656204D01*
X48436619Y-30660733D01*
X48327453Y-30742453D01*
X48268206Y-30821599D01*
X48241204Y-30857669D01*
X48226578Y-30896884D01*
X48190908Y-30992519D01*
X48184500Y-31052125D01*
X48184500Y-33347869D01*
X40000500Y-33347869D01*
X40000500Y-32619236D01*
X40019174Y-32524627D01*
X40072394Y-32444209D01*
X40152178Y-32390043D01*
X40246559Y-32370253D01*
X40341382Y-32387808D01*
X40422423Y-32440075D01*
X40463978Y-32499754D01*
X40464993Y-32499092D01*
X40504695Y-32559861D01*
X40515229Y-32577539D01*
X40539955Y-32623229D01*
X40567253Y-32658301D01*
X40571862Y-32664223D01*
X40583817Y-32680968D01*
X40612239Y-32724471D01*
X40647431Y-32762699D01*
X40660733Y-32778404D01*
X40692639Y-32819397D01*
X40730866Y-32854589D01*
X40745409Y-32869132D01*
X40745413Y-32869136D01*
X40780603Y-32907361D01*
X40821596Y-32939267D01*
X40837299Y-32952567D01*
X40875524Y-32987756D01*
X40875526Y-32987757D01*
X40875529Y-32987760D01*
X40919039Y-33016186D01*
X40935763Y-33028127D01*
X40976771Y-33060045D01*
X41022482Y-33084781D01*
X41040131Y-33095299D01*
X41083637Y-33123723D01*
X41131198Y-33144585D01*
X41131212Y-33144591D01*
X41149697Y-33153628D01*
X41195396Y-33178359D01*
X41244551Y-33195234D01*
X41263695Y-33202704D01*
X41311285Y-33223579D01*
X41361663Y-33236335D01*
X41381369Y-33242203D01*
X41395777Y-33247149D01*
X41430511Y-33259074D01*
X41481754Y-33267625D01*
X41501890Y-33271846D01*
X41552264Y-33284603D01*
X41604054Y-33288893D01*
X41624449Y-33291435D01*
X41675707Y-33299990D01*
X41737957Y-33299990D01*
X41924291Y-33299990D01*
X41924293Y-33299990D01*
X41975547Y-33291436D01*
X41995946Y-33288893D01*
X42047736Y-33284603D01*
X42098118Y-33271844D01*
X42118247Y-33267624D01*
X42137255Y-33264452D01*
X42169483Y-33259075D01*
X42169483Y-33259074D01*
X42169488Y-33259074D01*
X42218631Y-33242202D01*
X42238342Y-33236335D01*
X42280082Y-33225765D01*
X42288715Y-33223579D01*
X42336311Y-33202700D01*
X42355454Y-33195231D01*
X42404604Y-33178359D01*
X42450309Y-33153623D01*
X42468769Y-33144599D01*
X42516363Y-33123723D01*
X42559851Y-33095310D01*
X42559853Y-33095309D01*
X42577529Y-33084775D01*
X42623229Y-33060045D01*
X42643714Y-33044099D01*
X42664228Y-33028134D01*
X42680985Y-33016170D01*
X42686251Y-33012729D01*
X42724471Y-32987760D01*
X42727596Y-32984882D01*
X42762694Y-32952573D01*
X42778404Y-32939267D01*
X42819393Y-32907364D01*
X42819392Y-32907364D01*
X42819397Y-32907361D01*
X42854594Y-32869126D01*
X42869132Y-32854589D01*
X42907361Y-32819397D01*
X42911958Y-32813490D01*
X42939267Y-32778404D01*
X42952573Y-32762694D01*
X42987759Y-32724472D01*
X43016170Y-32680985D01*
X43028134Y-32664228D01*
X43044099Y-32643714D01*
X43060045Y-32623229D01*
X43084775Y-32577529D01*
X43095309Y-32559853D01*
X43112438Y-32533636D01*
X43123723Y-32516363D01*
X43144599Y-32468769D01*
X43153628Y-32450301D01*
X43153791Y-32450000D01*
X43178359Y-32404604D01*
X43195231Y-32355454D01*
X43202700Y-32336311D01*
X43223579Y-32288715D01*
X43231633Y-32256909D01*
X43236335Y-32238342D01*
X43242202Y-32218631D01*
X43259074Y-32169488D01*
X43267624Y-32118247D01*
X43271844Y-32098118D01*
X43284603Y-32047736D01*
X43288893Y-31995946D01*
X43291436Y-31975547D01*
X43299990Y-31924293D01*
X43299990Y-31872346D01*
X43300840Y-31851786D01*
X43302879Y-31827176D01*
X43305131Y-31800000D01*
X43300840Y-31748214D01*
X43299990Y-31727654D01*
X43299990Y-31675709D01*
X43299990Y-31675707D01*
X43291435Y-31624449D01*
X43288893Y-31604054D01*
X43284603Y-31552264D01*
X43271846Y-31501890D01*
X43267625Y-31481754D01*
X43259074Y-31430511D01*
X43242204Y-31381373D01*
X43236335Y-31361663D01*
X43223579Y-31311285D01*
X43202704Y-31263695D01*
X43195231Y-31244544D01*
X43178359Y-31195396D01*
X43153630Y-31149701D01*
X43144591Y-31131212D01*
X43123723Y-31083637D01*
X43095299Y-31040131D01*
X43084781Y-31022482D01*
X43060045Y-30976771D01*
X43028127Y-30935763D01*
X43016180Y-30919030D01*
X42987760Y-30875529D01*
X42987757Y-30875526D01*
X42987756Y-30875524D01*
X42952567Y-30837299D01*
X42939265Y-30821594D01*
X42907361Y-30780603D01*
X42876994Y-30752647D01*
X42869132Y-30745409D01*
X42854589Y-30730866D01*
X42819397Y-30692639D01*
X42778404Y-30660733D01*
X42762699Y-30647431D01*
X42724471Y-30612239D01*
X42680968Y-30583817D01*
X42664223Y-30571862D01*
X42623229Y-30539955D01*
X42577540Y-30515229D01*
X42559861Y-30504695D01*
X42499092Y-30464993D01*
X42499754Y-30463978D01*
X42440075Y-30422423D01*
X42387808Y-30341382D01*
X42370253Y-30246559D01*
X42390043Y-30152178D01*
X42444209Y-30072394D01*
X42524627Y-30019174D01*
X42619236Y-30000500D01*
X61791087Y-30000500D01*
X61877477Y-30015967D01*
G37*
%TD.AperFunction*%
%TA.AperFunction,Conductor*%
G36*
X97744609Y-63413803D02*
G01*
X97824535Y-63466021D01*
X97878935Y-63544478D01*
X97899813Y-63637639D01*
X97884099Y-63731808D01*
X97834103Y-63813143D01*
X97711021Y-63946845D01*
X97584076Y-64141150D01*
X97490842Y-64353701D01*
X97433866Y-64578690D01*
X97414700Y-64810000D01*
X97433866Y-65041309D01*
X97490842Y-65266298D01*
X97584076Y-65478849D01*
X97711021Y-65673153D01*
X97796709Y-65766236D01*
X97868216Y-65843913D01*
X97914642Y-65880048D01*
X97919490Y-65883821D01*
X97979394Y-65951093D01*
X98011444Y-66035277D01*
X98011444Y-66125355D01*
X97979395Y-66209539D01*
X97919491Y-66276812D01*
X97868555Y-66316456D01*
X97711418Y-66487153D01*
X97584517Y-66681389D01*
X97491317Y-66893864D01*
X97439117Y-67100000D01*
X98821000Y-67100000D01*
X98916288Y-67118954D01*
X98997070Y-67172930D01*
X99051046Y-67253712D01*
X99070000Y-67349000D01*
X99070000Y-67351000D01*
X99051046Y-67446288D01*
X98997070Y-67527070D01*
X98916288Y-67581046D01*
X98821000Y-67600000D01*
X97439117Y-67600000D01*
X97491317Y-67806135D01*
X97584517Y-68018610D01*
X97711418Y-68212846D01*
X97868556Y-68383544D01*
X97919489Y-68423186D01*
X97979394Y-68490458D01*
X98011444Y-68574641D01*
X98011444Y-68664720D01*
X97979395Y-68748904D01*
X97919492Y-68816177D01*
X97868213Y-68856089D01*
X97711021Y-69026846D01*
X97584076Y-69221150D01*
X97490842Y-69433701D01*
X97433866Y-69658690D01*
X97414700Y-69889999D01*
X97433866Y-70121309D01*
X97490842Y-70346298D01*
X97584076Y-70558849D01*
X97711021Y-70753153D01*
X97868215Y-70923913D01*
X97919083Y-70963505D01*
X97978987Y-71030777D01*
X98011036Y-71114961D01*
X98011036Y-71205039D01*
X97978987Y-71289223D01*
X97919083Y-71356495D01*
X97868215Y-71396086D01*
X97711021Y-71566846D01*
X97584076Y-71761150D01*
X97490842Y-71973701D01*
X97433866Y-72198690D01*
X97414700Y-72430000D01*
X97433866Y-72661309D01*
X97490842Y-72886298D01*
X97584076Y-73098849D01*
X97711021Y-73293154D01*
X97834103Y-73426857D01*
X97884099Y-73508192D01*
X97899813Y-73602361D01*
X97878935Y-73695522D01*
X97824535Y-73773979D01*
X97744609Y-73826197D01*
X97650908Y-73844500D01*
X97344768Y-73844500D01*
X97316323Y-73842125D01*
X97219555Y-73844429D01*
X97213628Y-73844500D01*
X97176371Y-73844500D01*
X97171852Y-73844931D01*
X97154143Y-73845985D01*
X97095774Y-73847375D01*
X97070759Y-73852817D01*
X97041505Y-73857379D01*
X97016031Y-73859811D01*
X96960008Y-73876260D01*
X96942799Y-73880652D01*
X96885741Y-73893065D01*
X96862215Y-73903140D01*
X96834355Y-73913156D01*
X96809790Y-73920369D01*
X96757889Y-73947125D01*
X96741815Y-73954698D01*
X96688151Y-73977678D01*
X96666951Y-73992027D01*
X96641492Y-74007132D01*
X96618742Y-74018860D01*
X96572847Y-74054952D01*
X96558500Y-74065428D01*
X96510147Y-74098155D01*
X96492042Y-74116260D01*
X96469906Y-74135906D01*
X96461088Y-74142841D01*
X96449777Y-74151736D01*
X96411535Y-74195869D01*
X96399427Y-74208874D01*
X95606734Y-75001569D01*
X95555164Y-75041140D01*
X95495110Y-75066016D01*
X95430664Y-75074500D01*
X93395129Y-75074500D01*
X93301486Y-75056221D01*
X93221592Y-75004066D01*
X93167177Y-74925694D01*
X93146231Y-74832612D01*
X93161828Y-74738485D01*
X93173581Y-74706972D01*
X93175686Y-74687393D01*
X93179990Y-74647363D01*
X93179989Y-72552638D01*
X93173581Y-72493027D01*
X93123286Y-72358179D01*
X93037036Y-72242964D01*
X93030661Y-72238192D01*
X92971511Y-72193912D01*
X92921821Y-72156714D01*
X92921820Y-72156713D01*
X92905279Y-72144331D01*
X92851670Y-72089431D01*
X92817323Y-72020814D01*
X92805500Y-71944997D01*
X92805500Y-71855003D01*
X92817323Y-71779186D01*
X92851670Y-71710569D01*
X92905279Y-71655669D01*
X92921819Y-71643286D01*
X92921821Y-71643286D01*
X93037036Y-71557036D01*
X93123286Y-71441821D01*
X93173581Y-71306973D01*
X93179990Y-71247363D01*
X93179989Y-69152638D01*
X93173581Y-69093027D01*
X93123286Y-68958179D01*
X93037036Y-68842964D01*
X92921821Y-68756714D01*
X92921817Y-68756712D01*
X92911962Y-68749335D01*
X92849809Y-68681615D01*
X92816460Y-68595959D01*
X92816460Y-68504041D01*
X92849809Y-68418385D01*
X92911962Y-68350665D01*
X92921817Y-68343287D01*
X92921821Y-68343286D01*
X93037036Y-68257036D01*
X93123286Y-68141821D01*
X93173581Y-68006973D01*
X93179990Y-67947363D01*
X93179989Y-65852638D01*
X93173581Y-65793027D01*
X93123286Y-65658179D01*
X93037036Y-65542964D01*
X92978751Y-65499332D01*
X92916601Y-65431615D01*
X92883252Y-65345959D01*
X92883252Y-65254041D01*
X92916601Y-65168385D01*
X92978751Y-65100667D01*
X93037036Y-65057036D01*
X93123286Y-64941821D01*
X93123286Y-64941819D01*
X93135669Y-64925279D01*
X93190569Y-64871670D01*
X93259186Y-64837323D01*
X93335003Y-64825500D01*
X94185233Y-64825500D01*
X94213675Y-64827874D01*
X94219337Y-64827739D01*
X94219342Y-64827740D01*
X94310444Y-64825571D01*
X94316372Y-64825500D01*
X94353614Y-64825500D01*
X94353618Y-64825500D01*
X94358127Y-64825069D01*
X94375842Y-64824013D01*
X94434226Y-64822624D01*
X94459244Y-64817181D01*
X94488490Y-64812620D01*
X94513971Y-64810188D01*
X94569990Y-64793739D01*
X94587195Y-64789347D01*
X94644258Y-64776934D01*
X94667789Y-64766856D01*
X94695647Y-64756842D01*
X94720209Y-64749631D01*
X94772116Y-64722869D01*
X94788156Y-64715312D01*
X94841849Y-64692321D01*
X94863056Y-64677966D01*
X94888495Y-64662872D01*
X94911259Y-64651138D01*
X94957166Y-64615034D01*
X94971482Y-64604581D01*
X95019855Y-64571843D01*
X95037961Y-64553736D01*
X95060101Y-64534086D01*
X95080217Y-64518268D01*
X95118445Y-64474149D01*
X95130558Y-64461139D01*
X96123268Y-63468430D01*
X96204049Y-63414454D01*
X96299337Y-63395500D01*
X97650908Y-63395500D01*
X97744609Y-63413803D01*
G37*
%TD.AperFunction*%
%TD*%
M02*
